%TF.GenerationSoftware,KiCad,Pcbnew,6.0.11-2627ca5db0~126~ubuntu22.04.1*%
%TF.CreationDate,2023-02-25T21:45:26+01:00*%
%TF.ProjectId,pmod,706d6f64-2e6b-4696-9361-645f70636258,0.7*%
%TF.SameCoordinates,Original*%
%TF.FileFunction,Copper,L1,Top*%
%TF.FilePolarity,Positive*%
%FSLAX46Y46*%
G04 Gerber Fmt 4.6, Leading zero omitted, Abs format (unit mm)*
G04 Created by KiCad (PCBNEW 6.0.11-2627ca5db0~126~ubuntu22.04.1) date 2023-02-25 21:45:26*
%MOMM*%
%LPD*%
G01*
G04 APERTURE LIST*
%TA.AperFunction,ComponentPad*%
%ADD10R,1.700000X1.700000*%
%TD*%
%TA.AperFunction,ComponentPad*%
%ADD11O,1.700000X1.700000*%
%TD*%
%TA.AperFunction,ComponentPad*%
%ADD12C,1.700000*%
%TD*%
%TA.AperFunction,ComponentPad*%
%ADD13C,1.300000*%
%TD*%
%TA.AperFunction,ComponentPad*%
%ADD14C,2.800000*%
%TD*%
%TA.AperFunction,ViaPad*%
%ADD15C,0.500000*%
%TD*%
%TA.AperFunction,Conductor*%
%ADD16C,0.250000*%
%TD*%
%TA.AperFunction,Conductor*%
%ADD17C,0.500000*%
%TD*%
%TA.AperFunction,Conductor*%
%ADD18C,0.200000*%
%TD*%
G04 APERTURE END LIST*
D10*
%TO.P,J1,1,Pin_1*%
%TO.N,/D0*%
X143212400Y-68795480D03*
D11*
%TO.P,J1,2,Pin_2*%
%TO.N,/D1*%
X143212400Y-71335480D03*
%TO.P,J1,3,Pin_3*%
%TO.N,/D2*%
X143212400Y-73875480D03*
%TO.P,J1,4,Pin_4*%
%TO.N,/D3*%
X143212400Y-76415480D03*
%TO.P,J1,5,Pin_5*%
%TO.N,GND*%
X143212400Y-78955480D03*
D12*
%TO.P,J1,6,Pin_6*%
%TO.N,/3V3*%
X143212400Y-81495480D03*
%TO.P,J1,7,Pin_7*%
%TO.N,/D4*%
X140672400Y-68795480D03*
D11*
%TO.P,J1,8,Pin_8*%
%TO.N,/D5*%
X140672400Y-71335480D03*
%TO.P,J1,9,Pin_9*%
%TO.N,/D6*%
X140672400Y-73875480D03*
%TO.P,J1,10,Pin_10*%
%TO.N,/D7*%
X140672400Y-76415480D03*
%TO.P,J1,11,Pin_11*%
%TO.N,GND*%
X140672400Y-78955480D03*
%TO.P,J1,12,Pin_12*%
%TO.N,/3V3*%
X140672400Y-81495480D03*
%TD*%
D13*
%TO.P,J2,1,VBUS*%
%TO.N,/VBUS*%
X155383000Y-78615000D03*
%TO.P,J2,2,D-*%
%TO.N,/D5*%
X155383000Y-76115000D03*
%TO.P,J2,3,D+*%
%TO.N,/D1*%
X155383000Y-74115000D03*
%TO.P,J2,4,GND*%
%TO.N,GND*%
X155383000Y-71615000D03*
%TO.P,J2,5,SSRX-*%
%TO.N,/D3*%
X153883000Y-71115000D03*
%TO.P,J2,6,SSRX+*%
%TO.N,/D0*%
X153883000Y-73115000D03*
%TO.P,J2,7,DRAIN*%
%TO.N,/D6*%
X153883000Y-75115000D03*
%TO.P,J2,8,SSTX-*%
%TO.N,/D2*%
X153883000Y-77115000D03*
%TO.P,J2,9,SSTX+*%
%TO.N,/D7*%
X153883000Y-79115000D03*
D14*
%TO.P,J2,10,SHIELD*%
%TO.N,GND*%
X157383000Y-81685000D03*
%TO.P,J2,11*%
%TO.N,N/C*%
X157383000Y-68545000D03*
%TD*%
D10*
%TO.P,JP1,1,Pin_1*%
%TO.N,/3V3*%
X146870000Y-84005000D03*
D11*
%TO.P,JP1,2,Pin_2*%
%TO.N,/VBUS*%
X149410000Y-84005000D03*
%TO.P,JP1,3,Pin_3*%
%TO.N,GND*%
X151950000Y-84005000D03*
%TD*%
D15*
%TO.N,/D3*%
X146235000Y-76385000D03*
%TO.N,GND*%
X150680000Y-73845000D03*
%TD*%
D16*
%TO.N,/D0*%
X148170480Y-68795480D02*
X152490000Y-73115000D01*
X143212400Y-68795480D02*
X148170480Y-68795480D01*
X152490000Y-73115000D02*
X153883000Y-73115000D01*
%TO.N,/D2*%
X151337894Y-77115000D02*
X153883000Y-77115000D01*
X143212400Y-73875480D02*
X148098374Y-73875480D01*
X148098374Y-73875480D02*
X151337894Y-77115000D01*
%TO.N,/D3*%
X145600000Y-77020000D02*
X143816920Y-77020000D01*
X143816920Y-77020000D02*
X143212400Y-76415480D01*
X146235000Y-76385000D02*
X145600000Y-77020000D01*
D17*
%TO.N,/3V3*%
X140672400Y-81495480D02*
X143212400Y-81495480D01*
X144355480Y-81495480D02*
X146865000Y-84005000D01*
X143212400Y-81495480D02*
X144355480Y-81495480D01*
%TO.N,GND*%
X157383000Y-73615000D02*
X155383000Y-71615000D01*
X140672400Y-78955480D02*
X143212400Y-78955480D01*
X157383000Y-81685000D02*
X157383000Y-73615000D01*
D18*
%TO.N,/D5*%
X152855000Y-76115000D02*
X155383000Y-76115000D01*
D16*
X143719812Y-72650480D02*
X141987400Y-72650480D01*
D18*
X152585000Y-76385000D02*
X152855000Y-76115000D01*
D16*
X148305480Y-73375480D02*
X144444812Y-73375480D01*
X152585000Y-76385000D02*
X151315000Y-76385000D01*
X151315000Y-76385000D02*
X148305480Y-73375480D01*
X141987400Y-72650480D02*
X140672400Y-71335480D01*
X144444812Y-73375480D02*
X143719812Y-72650480D01*
%TO.N,/D7*%
X140672400Y-76415480D02*
X141911920Y-77655000D01*
X141911920Y-77655000D02*
X152585000Y-77655000D01*
X153883000Y-78953000D02*
X153883000Y-79115000D01*
X152585000Y-77655000D02*
X153883000Y-78953000D01*
D17*
%TO.N,/VBUS*%
X153220000Y-81465000D02*
X151315000Y-81465000D01*
X155383000Y-79302000D02*
X153220000Y-81465000D01*
X149410000Y-83370000D02*
X149410000Y-84005000D01*
X151315000Y-81465000D02*
X149410000Y-83370000D01*
X155383000Y-78615000D02*
X155383000Y-79302000D01*
%TD*%
%TA.AperFunction,Conductor*%
%TO.N,GND*%
G36*
X168880945Y-64463502D02*
G01*
X168927438Y-64517158D01*
X168938823Y-64569526D01*
X168936215Y-75768224D01*
X168933911Y-85660529D01*
X168913893Y-85728645D01*
X168860227Y-85775126D01*
X168807911Y-85786500D01*
X136832500Y-85786500D01*
X136764379Y-85766498D01*
X136717886Y-85712842D01*
X136706500Y-85660500D01*
X136706500Y-79223446D01*
X139340657Y-79223446D01*
X139370965Y-79357926D01*
X139374045Y-79367755D01*
X139454170Y-79565083D01*
X139458813Y-79574274D01*
X139570094Y-79755868D01*
X139576177Y-79764179D01*
X139715613Y-79925147D01*
X139722980Y-79932363D01*
X139886834Y-80068396D01*
X139895281Y-80074311D01*
X140079156Y-80181759D01*
X140088442Y-80186209D01*
X140243202Y-80245305D01*
X140299705Y-80288292D01*
X140323998Y-80355003D01*
X140308368Y-80424258D01*
X140257777Y-80474068D01*
X140241865Y-80481227D01*
X140202006Y-80495932D01*
X140196593Y-80497929D01*
X140022771Y-80601342D01*
X139870705Y-80734700D01*
X139745489Y-80893537D01*
X139651314Y-81072533D01*
X139591337Y-81265693D01*
X139567564Y-81466549D01*
X139580792Y-81668374D01*
X139588268Y-81697812D01*
X139609930Y-81783104D01*
X139630578Y-81864408D01*
X139715256Y-82048087D01*
X139721571Y-82057022D01*
X139791756Y-82156332D01*
X139831988Y-82213260D01*
X139976866Y-82354393D01*
X140145037Y-82466762D01*
X140150340Y-82469040D01*
X140150343Y-82469042D01*
X140238691Y-82506999D01*
X140330870Y-82546602D01*
X140528140Y-82591240D01*
X140533909Y-82591467D01*
X140533912Y-82591467D01*
X140610083Y-82594459D01*
X140730242Y-82599180D01*
X140835794Y-82583876D01*
X140924686Y-82570988D01*
X140924691Y-82570987D01*
X140930407Y-82570158D01*
X140935879Y-82568300D01*
X140935881Y-82568300D01*
X141116467Y-82506999D01*
X141116469Y-82506998D01*
X141121931Y-82505144D01*
X141244417Y-82436549D01*
X141293364Y-82409138D01*
X141293365Y-82409137D01*
X141298401Y-82406317D01*
X141360833Y-82354393D01*
X141449473Y-82280671D01*
X141453905Y-82276985D01*
X141583237Y-82121481D01*
X141586058Y-82116444D01*
X141617436Y-82060414D01*
X141668173Y-82010752D01*
X141727371Y-81995980D01*
X142153188Y-81995980D01*
X142221309Y-82015982D01*
X142256085Y-82049260D01*
X142331756Y-82156332D01*
X142371988Y-82213260D01*
X142516866Y-82354393D01*
X142685037Y-82466762D01*
X142690340Y-82469040D01*
X142690343Y-82469042D01*
X142778691Y-82506999D01*
X142870870Y-82546602D01*
X143068140Y-82591240D01*
X143073909Y-82591467D01*
X143073912Y-82591467D01*
X143150083Y-82594459D01*
X143270242Y-82599180D01*
X143375794Y-82583876D01*
X143464686Y-82570988D01*
X143464691Y-82570987D01*
X143470407Y-82570158D01*
X143475879Y-82568300D01*
X143475881Y-82568300D01*
X143656467Y-82506999D01*
X143656469Y-82506998D01*
X143661931Y-82505144D01*
X143784417Y-82436549D01*
X143833364Y-82409138D01*
X143833365Y-82409137D01*
X143838401Y-82406317D01*
X143900833Y-82354393D01*
X143989473Y-82280671D01*
X143993905Y-82276985D01*
X143997591Y-82272553D01*
X143997596Y-82272548D01*
X144103229Y-82145538D01*
X144162166Y-82105954D01*
X144233148Y-82104518D01*
X144289198Y-82137012D01*
X145732595Y-83580409D01*
X145766621Y-83642721D01*
X145769500Y-83669504D01*
X145769500Y-84879674D01*
X145784034Y-84952740D01*
X145839399Y-85035601D01*
X145922260Y-85090966D01*
X145995326Y-85105500D01*
X147744674Y-85105500D01*
X147817740Y-85090966D01*
X147900601Y-85035601D01*
X147955966Y-84952740D01*
X147970500Y-84879674D01*
X147970500Y-83130326D01*
X147955966Y-83057260D01*
X147900601Y-82974399D01*
X147817740Y-82919034D01*
X147744674Y-82904500D01*
X146524504Y-82904500D01*
X146456383Y-82884498D01*
X146435409Y-82867595D01*
X144759014Y-81191200D01*
X144751548Y-81181856D01*
X144751158Y-81182188D01*
X144745340Y-81175352D01*
X144740550Y-81167760D01*
X144726869Y-81155677D01*
X144700880Y-81132725D01*
X144695192Y-81127378D01*
X144683974Y-81116160D01*
X144680385Y-81113470D01*
X144675796Y-81110030D01*
X144667957Y-81103648D01*
X144639819Y-81078798D01*
X144633092Y-81072857D01*
X144624969Y-81069043D01*
X144621816Y-81066972D01*
X144608804Y-81059153D01*
X144605485Y-81057336D01*
X144598304Y-81051954D01*
X144554741Y-81035623D01*
X144545427Y-81031697D01*
X144511446Y-81015743D01*
X144511443Y-81015742D01*
X144503317Y-81011927D01*
X144494443Y-81010545D01*
X144490830Y-81009441D01*
X144476173Y-81005595D01*
X144472470Y-81004781D01*
X144464060Y-81001628D01*
X144417637Y-80998178D01*
X144407624Y-80997028D01*
X144394471Y-80994980D01*
X144379276Y-80994980D01*
X144369939Y-80994634D01*
X144354516Y-80993488D01*
X144321088Y-80991004D01*
X144312312Y-80992877D01*
X144303355Y-80993488D01*
X144303355Y-80993482D01*
X144289162Y-80994980D01*
X144271062Y-80994980D01*
X144202941Y-80974978D01*
X144160824Y-80927808D01*
X144160325Y-80928114D01*
X144158635Y-80925357D01*
X144158056Y-80924708D01*
X144157307Y-80923189D01*
X144157304Y-80923185D01*
X144154751Y-80918007D01*
X144033735Y-80755947D01*
X144010750Y-80734700D01*
X143889453Y-80622574D01*
X143889451Y-80622572D01*
X143885212Y-80618654D01*
X143857774Y-80601342D01*
X143719037Y-80513805D01*
X143714157Y-80510726D01*
X143637853Y-80480284D01*
X143581994Y-80436463D01*
X143558693Y-80369399D01*
X143575349Y-80300384D01*
X143626673Y-80251330D01*
X143648335Y-80242569D01*
X143704644Y-80225675D01*
X143714242Y-80221913D01*
X143905495Y-80128219D01*
X143914345Y-80122944D01*
X144087728Y-79999272D01*
X144095600Y-79992619D01*
X144246452Y-79842292D01*
X144253130Y-79834445D01*
X144377403Y-79661500D01*
X144382713Y-79652663D01*
X144477070Y-79461747D01*
X144480869Y-79452152D01*
X144542777Y-79248390D01*
X144544955Y-79238317D01*
X144546386Y-79227442D01*
X144544175Y-79213258D01*
X144531017Y-79209480D01*
X139355625Y-79209480D01*
X139342094Y-79213453D01*
X139340657Y-79223446D01*
X136706500Y-79223446D01*
X136706500Y-78689663D01*
X139336789Y-78689663D01*
X139338312Y-78698087D01*
X139350692Y-78701480D01*
X144530744Y-78701480D01*
X144544275Y-78697507D01*
X144545580Y-78688427D01*
X144503614Y-78521355D01*
X144500294Y-78511604D01*
X144415372Y-78316294D01*
X144410505Y-78307219D01*
X144357277Y-78224940D01*
X144337070Y-78156880D01*
X144356866Y-78088699D01*
X144410381Y-78042045D01*
X144463069Y-78030500D01*
X152377273Y-78030500D01*
X152445394Y-78050502D01*
X152466368Y-78067405D01*
X153023260Y-78624297D01*
X153057286Y-78686609D01*
X153053998Y-78752326D01*
X152997326Y-78926744D01*
X152996636Y-78933305D01*
X152996636Y-78933307D01*
X152990782Y-78989007D01*
X152977540Y-79115000D01*
X152978230Y-79121565D01*
X152987888Y-79213453D01*
X152997326Y-79303256D01*
X153055821Y-79483284D01*
X153059124Y-79489006D01*
X153059125Y-79489007D01*
X153063467Y-79496527D01*
X153150467Y-79647216D01*
X153154885Y-79652123D01*
X153154886Y-79652124D01*
X153163336Y-79661508D01*
X153277129Y-79787888D01*
X153430270Y-79899151D01*
X153603197Y-79976144D01*
X153704310Y-79997636D01*
X153766783Y-80031364D01*
X153801105Y-80093514D01*
X153796377Y-80164353D01*
X153767208Y-80209978D01*
X153049591Y-80927595D01*
X152987279Y-80961621D01*
X152960496Y-80964500D01*
X151385181Y-80964500D01*
X151373296Y-80963172D01*
X151373255Y-80963682D01*
X151364309Y-80962962D01*
X151355553Y-80960981D01*
X151320240Y-80963172D01*
X151302736Y-80964258D01*
X151294933Y-80964500D01*
X151279060Y-80964500D01*
X151268948Y-80965948D01*
X151258894Y-80966978D01*
X151230903Y-80968715D01*
X151212462Y-80969859D01*
X151204018Y-80972907D01*
X151200306Y-80973676D01*
X151185601Y-80977343D01*
X151181973Y-80978404D01*
X151173082Y-80979677D01*
X151130718Y-80998939D01*
X151121363Y-81002746D01*
X151086057Y-81015491D01*
X151086053Y-81015493D01*
X151077613Y-81018540D01*
X151070365Y-81023835D01*
X151067025Y-81025611D01*
X151053911Y-81033274D01*
X151050739Y-81035303D01*
X151042572Y-81039016D01*
X151035777Y-81044871D01*
X151035774Y-81044873D01*
X151007325Y-81069387D01*
X150999405Y-81075675D01*
X150988664Y-81083522D01*
X150977921Y-81094265D01*
X150971075Y-81100623D01*
X150933963Y-81132600D01*
X150929080Y-81140134D01*
X150923181Y-81146896D01*
X150923176Y-81146892D01*
X150914200Y-81157986D01*
X149160601Y-82911585D01*
X149115117Y-82940702D01*
X149000722Y-82982905D01*
X148934193Y-83007449D01*
X148760371Y-83110862D01*
X148608305Y-83244220D01*
X148483089Y-83403057D01*
X148388914Y-83582053D01*
X148328937Y-83775213D01*
X148305164Y-83976069D01*
X148318392Y-84177894D01*
X148368178Y-84373928D01*
X148452856Y-84557607D01*
X148456189Y-84562323D01*
X148555032Y-84702183D01*
X148569588Y-84722780D01*
X148714466Y-84863913D01*
X148719270Y-84867123D01*
X148786651Y-84912146D01*
X148882637Y-84976282D01*
X148887940Y-84978560D01*
X148887943Y-84978562D01*
X149051409Y-85048792D01*
X149068470Y-85056122D01*
X149265740Y-85100760D01*
X149271509Y-85100987D01*
X149271512Y-85100987D01*
X149347683Y-85103979D01*
X149467842Y-85108700D01*
X149554132Y-85096189D01*
X149662286Y-85080508D01*
X149662291Y-85080507D01*
X149668007Y-85079678D01*
X149673479Y-85077820D01*
X149673481Y-85077820D01*
X149854067Y-85016519D01*
X149854069Y-85016518D01*
X149859531Y-85014664D01*
X150036001Y-84915837D01*
X150098433Y-84863913D01*
X150187073Y-84790191D01*
X150191505Y-84786505D01*
X150320837Y-84631001D01*
X150419664Y-84454531D01*
X150423419Y-84443468D01*
X150464254Y-84385392D01*
X150530006Y-84358611D01*
X150599799Y-84371630D01*
X150651473Y-84420315D01*
X150659476Y-84436563D01*
X150731770Y-84614603D01*
X150736413Y-84623794D01*
X150847694Y-84805388D01*
X150853777Y-84813699D01*
X150993213Y-84974667D01*
X151000580Y-84981883D01*
X151164434Y-85117916D01*
X151172881Y-85123831D01*
X151356756Y-85231279D01*
X151366042Y-85235729D01*
X151565001Y-85311703D01*
X151574899Y-85314579D01*
X151678250Y-85335606D01*
X151692299Y-85334410D01*
X151696000Y-85324065D01*
X151696000Y-85323517D01*
X152204000Y-85323517D01*
X152208064Y-85337359D01*
X152221478Y-85339393D01*
X152228184Y-85338534D01*
X152238262Y-85336392D01*
X152442255Y-85275191D01*
X152451842Y-85271433D01*
X152643095Y-85177739D01*
X152651945Y-85172464D01*
X152825328Y-85048792D01*
X152833200Y-85042139D01*
X152984052Y-84891812D01*
X152990730Y-84883965D01*
X153115003Y-84711020D01*
X153120313Y-84702183D01*
X153214670Y-84511267D01*
X153218469Y-84501672D01*
X153280377Y-84297910D01*
X153282555Y-84287837D01*
X153283986Y-84276962D01*
X153281775Y-84262778D01*
X153268617Y-84259000D01*
X152222115Y-84259000D01*
X152206876Y-84263475D01*
X152205671Y-84264865D01*
X152204000Y-84272548D01*
X152204000Y-85323517D01*
X151696000Y-85323517D01*
X151696000Y-83732885D01*
X152204000Y-83732885D01*
X152208475Y-83748124D01*
X152209865Y-83749329D01*
X152217548Y-83751000D01*
X153268344Y-83751000D01*
X153281875Y-83747027D01*
X153283180Y-83737947D01*
X153241214Y-83570875D01*
X153237894Y-83561124D01*
X153152972Y-83365814D01*
X153148105Y-83356739D01*
X153048522Y-83202806D01*
X156230361Y-83202806D01*
X156237751Y-83213108D01*
X156279630Y-83247203D01*
X156286909Y-83252318D01*
X156510756Y-83387085D01*
X156518670Y-83391118D01*
X156759286Y-83493006D01*
X156767691Y-83495883D01*
X157020257Y-83562850D01*
X157028989Y-83564516D01*
X157288474Y-83595227D01*
X157297340Y-83595645D01*
X157558561Y-83589490D01*
X157567414Y-83588653D01*
X157825162Y-83545752D01*
X157833796Y-83543679D01*
X158082930Y-83464888D01*
X158091192Y-83461617D01*
X158326731Y-83348513D01*
X158334455Y-83344107D01*
X158528268Y-83214606D01*
X158536556Y-83204688D01*
X158529299Y-83190509D01*
X157395812Y-82057022D01*
X157381868Y-82049408D01*
X157380035Y-82049539D01*
X157373420Y-82053790D01*
X156237527Y-83189683D01*
X156230361Y-83202806D01*
X153048522Y-83202806D01*
X153032426Y-83177926D01*
X153026136Y-83169757D01*
X152882806Y-83012240D01*
X152875273Y-83005215D01*
X152708139Y-82873222D01*
X152699552Y-82867517D01*
X152513117Y-82764599D01*
X152503705Y-82760369D01*
X152302959Y-82689280D01*
X152292988Y-82686646D01*
X152221837Y-82673972D01*
X152208540Y-82675432D01*
X152204000Y-82689989D01*
X152204000Y-83732885D01*
X151696000Y-83732885D01*
X151696000Y-82688102D01*
X151692082Y-82674758D01*
X151677806Y-82672771D01*
X151639324Y-82678660D01*
X151629288Y-82681051D01*
X151426868Y-82747212D01*
X151417359Y-82751209D01*
X151228463Y-82849542D01*
X151219738Y-82855036D01*
X151049433Y-82982905D01*
X151041726Y-82989748D01*
X150894590Y-83143717D01*
X150888104Y-83151727D01*
X150768098Y-83327649D01*
X150763000Y-83336623D01*
X150673338Y-83529783D01*
X150669776Y-83539465D01*
X150663684Y-83561432D01*
X150626204Y-83621730D01*
X150562074Y-83652191D01*
X150491656Y-83643147D01*
X150437307Y-83597467D01*
X150429261Y-83583486D01*
X150428555Y-83582053D01*
X150352351Y-83427527D01*
X150292738Y-83347695D01*
X150268006Y-83281147D01*
X150283180Y-83211790D01*
X150304601Y-83183212D01*
X151485408Y-82002405D01*
X151547720Y-81968379D01*
X151574503Y-81965500D01*
X153149819Y-81965500D01*
X153161704Y-81966828D01*
X153161745Y-81966318D01*
X153170691Y-81967038D01*
X153179447Y-81969019D01*
X153232263Y-81965742D01*
X153240067Y-81965500D01*
X153255940Y-81965500D01*
X153266052Y-81964052D01*
X153276106Y-81963022D01*
X153304097Y-81961285D01*
X153322538Y-81960141D01*
X153330982Y-81957093D01*
X153334694Y-81956324D01*
X153349399Y-81952657D01*
X153353027Y-81951596D01*
X153361918Y-81950323D01*
X153404282Y-81931061D01*
X153413637Y-81927254D01*
X153448943Y-81914509D01*
X153448947Y-81914507D01*
X153457387Y-81911460D01*
X153464635Y-81906165D01*
X153467975Y-81904389D01*
X153481089Y-81896726D01*
X153484261Y-81894697D01*
X153492428Y-81890984D01*
X153499223Y-81885129D01*
X153499226Y-81885127D01*
X153527675Y-81860613D01*
X153535596Y-81854324D01*
X153542402Y-81849352D01*
X153546336Y-81846478D01*
X153557079Y-81835735D01*
X153563926Y-81829377D01*
X153594237Y-81803259D01*
X153601037Y-81797400D01*
X153605920Y-81789866D01*
X153611819Y-81783104D01*
X153611824Y-81783108D01*
X153620800Y-81772014D01*
X153763447Y-81629367D01*
X155471245Y-81629367D01*
X155481503Y-81890459D01*
X155482478Y-81899288D01*
X155529422Y-82156332D01*
X155531631Y-82164934D01*
X155614324Y-82412796D01*
X155617728Y-82421014D01*
X155734519Y-82654750D01*
X155739043Y-82662398D01*
X155854352Y-82829235D01*
X155864673Y-82837589D01*
X155878323Y-82830467D01*
X157010978Y-81697812D01*
X157017356Y-81686132D01*
X157747408Y-81686132D01*
X157747539Y-81687965D01*
X157751790Y-81694580D01*
X158888517Y-82831307D01*
X158901917Y-82838624D01*
X158911821Y-82831637D01*
X158927686Y-82812763D01*
X158932905Y-82805580D01*
X159071171Y-82583876D01*
X159075333Y-82576017D01*
X159180988Y-82337030D01*
X159183994Y-82328680D01*
X159254921Y-82077192D01*
X159256722Y-82068499D01*
X159291672Y-81808292D01*
X159292200Y-81801899D01*
X159295773Y-81688222D01*
X159295646Y-81681779D01*
X159277106Y-81419923D01*
X159275853Y-81411119D01*
X159220858Y-81155677D01*
X159218379Y-81147144D01*
X159127941Y-80902002D01*
X159124286Y-80893907D01*
X159000206Y-80663947D01*
X158995447Y-80656449D01*
X158910759Y-80541790D01*
X158899631Y-80533348D01*
X158887038Y-80540172D01*
X157755022Y-81672188D01*
X157747408Y-81686132D01*
X157017356Y-81686132D01*
X157018592Y-81683868D01*
X157018461Y-81682035D01*
X157014210Y-81675420D01*
X155878819Y-80540029D01*
X155865978Y-80533017D01*
X155855289Y-80540813D01*
X155803663Y-80606299D01*
X155798658Y-80613663D01*
X155667420Y-80839605D01*
X155663516Y-80847575D01*
X155565420Y-81089763D01*
X155562676Y-81098207D01*
X155499683Y-81351800D01*
X155498156Y-81360551D01*
X155471524Y-81620483D01*
X155471245Y-81629367D01*
X153763447Y-81629367D01*
X155225125Y-80167688D01*
X156231045Y-80167688D01*
X156238025Y-80180815D01*
X157370188Y-81312978D01*
X157384132Y-81320592D01*
X157385965Y-81320461D01*
X157392580Y-81316210D01*
X158527804Y-80180986D01*
X158534658Y-80168434D01*
X158526450Y-80157363D01*
X158436762Y-80088916D01*
X158429313Y-80084023D01*
X158201353Y-79956359D01*
X158193303Y-79952571D01*
X157949617Y-79858295D01*
X157941127Y-79855683D01*
X157686578Y-79796683D01*
X157677800Y-79795293D01*
X157417478Y-79772746D01*
X157408607Y-79772606D01*
X157147696Y-79786965D01*
X157138886Y-79788079D01*
X156882607Y-79839055D01*
X156874050Y-79841396D01*
X156627496Y-79927980D01*
X156619362Y-79931500D01*
X156387477Y-80051955D01*
X156379905Y-80056594D01*
X156239447Y-80156967D01*
X156231045Y-80167688D01*
X155225125Y-80167688D01*
X155687278Y-79705535D01*
X155696624Y-79698068D01*
X155696292Y-79697678D01*
X155703128Y-79691860D01*
X155710720Y-79687070D01*
X155733303Y-79661500D01*
X155745763Y-79647391D01*
X155751110Y-79641703D01*
X155762320Y-79630493D01*
X155765010Y-79626904D01*
X155768444Y-79622323D01*
X155774827Y-79614482D01*
X155799679Y-79586342D01*
X155805623Y-79579612D01*
X155809438Y-79571487D01*
X155811520Y-79568317D01*
X155819323Y-79555330D01*
X155821143Y-79552006D01*
X155826526Y-79544824D01*
X155842857Y-79501261D01*
X155846783Y-79491947D01*
X155862737Y-79457966D01*
X155862738Y-79457963D01*
X155866553Y-79449837D01*
X155867935Y-79440963D01*
X155869039Y-79437350D01*
X155872889Y-79422678D01*
X155873701Y-79418985D01*
X155876852Y-79410580D01*
X155877122Y-79406941D01*
X155909997Y-79347056D01*
X155924831Y-79334416D01*
X155983532Y-79291767D01*
X155988871Y-79287888D01*
X156024436Y-79248390D01*
X156111114Y-79152124D01*
X156111115Y-79152123D01*
X156115533Y-79147216D01*
X156210179Y-78983284D01*
X156268674Y-78803256D01*
X156274617Y-78746716D01*
X156287770Y-78621565D01*
X156288460Y-78615000D01*
X156268674Y-78426744D01*
X156210179Y-78246716D01*
X156205290Y-78238247D01*
X156118836Y-78088505D01*
X156115533Y-78082784D01*
X156086466Y-78050502D01*
X155993286Y-77947015D01*
X155993284Y-77947014D01*
X155988871Y-77942112D01*
X155835730Y-77830849D01*
X155662803Y-77753856D01*
X155564788Y-77733022D01*
X155484103Y-77715872D01*
X155484099Y-77715872D01*
X155477646Y-77714500D01*
X155288354Y-77714500D01*
X155281901Y-77715872D01*
X155281897Y-77715872D01*
X155201212Y-77733022D01*
X155103197Y-77753856D01*
X154930270Y-77830849D01*
X154777129Y-77942112D01*
X154772716Y-77947014D01*
X154772714Y-77947015D01*
X154679534Y-78050502D01*
X154650467Y-78082784D01*
X154647164Y-78088505D01*
X154560711Y-78238247D01*
X154555821Y-78246716D01*
X154553779Y-78253001D01*
X154553778Y-78253003D01*
X154545263Y-78279210D01*
X154505190Y-78337816D01*
X154439794Y-78365454D01*
X154369837Y-78353348D01*
X154351371Y-78342212D01*
X154341075Y-78334732D01*
X154341073Y-78334731D01*
X154335730Y-78330849D01*
X154162803Y-78253856D01*
X154089368Y-78238247D01*
X154026895Y-78204519D01*
X153992573Y-78142369D01*
X153997301Y-78071530D01*
X154039577Y-78014492D01*
X154089368Y-77991753D01*
X154094282Y-77990708D01*
X154162803Y-77976144D01*
X154335730Y-77899151D01*
X154345335Y-77892173D01*
X154483532Y-77791767D01*
X154488871Y-77787888D01*
X154517093Y-77756545D01*
X154611114Y-77652124D01*
X154611115Y-77652123D01*
X154615533Y-77647216D01*
X154674401Y-77545253D01*
X154706875Y-77489007D01*
X154706876Y-77489006D01*
X154710179Y-77483284D01*
X154768674Y-77303256D01*
X154772132Y-77270360D01*
X154787770Y-77121565D01*
X154788460Y-77115000D01*
X154780510Y-77039359D01*
X154793282Y-76969521D01*
X154841784Y-76917674D01*
X154910617Y-76900280D01*
X154957065Y-76911081D01*
X155103197Y-76976144D01*
X155201212Y-76996978D01*
X155281897Y-77014128D01*
X155281901Y-77014128D01*
X155288354Y-77015500D01*
X155477646Y-77015500D01*
X155484099Y-77014128D01*
X155484103Y-77014128D01*
X155564788Y-76996978D01*
X155662803Y-76976144D01*
X155835730Y-76899151D01*
X155853007Y-76886599D01*
X155983532Y-76791767D01*
X155988871Y-76787888D01*
X155997049Y-76778806D01*
X156111114Y-76652124D01*
X156111115Y-76652123D01*
X156115533Y-76647216D01*
X156156782Y-76575771D01*
X156206875Y-76489007D01*
X156206876Y-76489006D01*
X156210179Y-76483284D01*
X156268674Y-76303256D01*
X156274065Y-76251968D01*
X156287770Y-76121565D01*
X156288460Y-76115000D01*
X156276277Y-75999080D01*
X156269364Y-75933307D01*
X156269364Y-75933305D01*
X156268674Y-75926744D01*
X156210179Y-75746716D01*
X156115533Y-75582784D01*
X156111114Y-75577876D01*
X155993286Y-75447015D01*
X155993284Y-75447014D01*
X155988871Y-75442112D01*
X155859232Y-75347924D01*
X155841072Y-75334730D01*
X155841071Y-75334729D01*
X155835730Y-75330849D01*
X155662803Y-75253856D01*
X155589368Y-75238247D01*
X155526895Y-75204519D01*
X155492573Y-75142369D01*
X155497301Y-75071530D01*
X155539577Y-75014492D01*
X155589368Y-74991753D01*
X155594282Y-74990708D01*
X155662803Y-74976144D01*
X155835730Y-74899151D01*
X155904700Y-74849042D01*
X155983532Y-74791767D01*
X155988871Y-74787888D01*
X156020284Y-74753001D01*
X156111114Y-74652124D01*
X156111115Y-74652123D01*
X156115533Y-74647216D01*
X156210179Y-74483284D01*
X156268674Y-74303256D01*
X156271998Y-74271635D01*
X156287770Y-74121565D01*
X156288460Y-74115000D01*
X156280510Y-74039359D01*
X156269364Y-73933307D01*
X156269364Y-73933305D01*
X156268674Y-73926744D01*
X156210179Y-73746716D01*
X156168238Y-73674071D01*
X156118836Y-73588505D01*
X156115533Y-73582784D01*
X156111114Y-73577876D01*
X155993286Y-73447015D01*
X155993284Y-73447014D01*
X155988871Y-73442112D01*
X155919531Y-73391734D01*
X155841072Y-73334730D01*
X155841071Y-73334729D01*
X155835730Y-73330849D01*
X155662803Y-73253856D01*
X155550498Y-73229985D01*
X155484103Y-73215872D01*
X155484099Y-73215872D01*
X155477646Y-73214500D01*
X155288354Y-73214500D01*
X155281901Y-73215872D01*
X155281897Y-73215872D01*
X155215502Y-73229985D01*
X155103197Y-73253856D01*
X154957066Y-73318918D01*
X154886702Y-73328352D01*
X154822405Y-73298246D01*
X154784592Y-73238157D01*
X154780510Y-73190641D01*
X154787770Y-73121565D01*
X154788460Y-73115000D01*
X154778778Y-73022875D01*
X154769364Y-72933307D01*
X154769364Y-72933305D01*
X154768674Y-72926744D01*
X154735562Y-72824836D01*
X154733534Y-72753871D01*
X154770196Y-72693073D01*
X154833908Y-72661748D01*
X154905133Y-72670134D01*
X155018318Y-72718762D01*
X155029261Y-72722317D01*
X155225567Y-72766737D01*
X155236975Y-72768239D01*
X155438096Y-72776140D01*
X155449580Y-72775538D01*
X155648774Y-72746657D01*
X155659957Y-72743972D01*
X155850547Y-72679276D01*
X155861060Y-72674595D01*
X155987766Y-72603635D01*
X155997631Y-72593557D01*
X155994675Y-72585885D01*
X155112885Y-71704095D01*
X155078859Y-71641783D01*
X155080694Y-71616132D01*
X155747408Y-71616132D01*
X155747539Y-71617965D01*
X155751790Y-71624580D01*
X156349971Y-72222761D01*
X156362351Y-72229521D01*
X156368931Y-72224595D01*
X156442595Y-72093060D01*
X156447276Y-72082547D01*
X156511972Y-71891957D01*
X156514657Y-71880774D01*
X156543834Y-71679539D01*
X156544464Y-71672157D01*
X156545864Y-71618704D01*
X156545621Y-71611305D01*
X156527016Y-71408824D01*
X156524918Y-71397503D01*
X156470287Y-71203797D01*
X156466163Y-71193050D01*
X156377141Y-71012534D01*
X156373617Y-71006784D01*
X156363595Y-70999262D01*
X156351176Y-71006034D01*
X155755022Y-71602188D01*
X155747408Y-71616132D01*
X155080694Y-71616132D01*
X155083924Y-71570968D01*
X155112885Y-71525905D01*
X155989533Y-70649257D01*
X155996293Y-70636877D01*
X155990263Y-70628822D01*
X155915857Y-70581875D01*
X155905609Y-70576654D01*
X155718663Y-70502070D01*
X155707635Y-70498803D01*
X155510230Y-70459537D01*
X155498784Y-70458334D01*
X155297537Y-70455700D01*
X155286057Y-70456603D01*
X155087701Y-70490687D01*
X155076581Y-70493667D01*
X154887748Y-70563331D01*
X154877370Y-70568281D01*
X154785393Y-70623002D01*
X154716623Y-70640642D01*
X154649233Y-70618302D01*
X154619031Y-70588774D01*
X154618836Y-70588505D01*
X154615533Y-70582784D01*
X154604822Y-70570888D01*
X154493286Y-70447015D01*
X154493284Y-70447014D01*
X154488871Y-70442112D01*
X154483532Y-70438233D01*
X154341072Y-70334730D01*
X154341071Y-70334729D01*
X154335730Y-70330849D01*
X154162803Y-70253856D01*
X154064788Y-70233022D01*
X153984103Y-70215872D01*
X153984099Y-70215872D01*
X153977646Y-70214500D01*
X153788354Y-70214500D01*
X153781901Y-70215872D01*
X153781897Y-70215872D01*
X153701212Y-70233022D01*
X153603197Y-70253856D01*
X153430270Y-70330849D01*
X153424929Y-70334729D01*
X153424928Y-70334730D01*
X153282468Y-70438233D01*
X153277129Y-70442112D01*
X153272716Y-70447014D01*
X153272714Y-70447015D01*
X153161178Y-70570888D01*
X153150467Y-70582784D01*
X153147164Y-70588505D01*
X153060480Y-70738647D01*
X153055821Y-70746716D01*
X152997326Y-70926744D01*
X152977540Y-71115000D01*
X152997326Y-71303256D01*
X153055821Y-71483284D01*
X153059124Y-71489006D01*
X153059125Y-71489007D01*
X153070307Y-71508374D01*
X153150467Y-71647216D01*
X153154885Y-71652123D01*
X153154886Y-71652124D01*
X153269619Y-71779547D01*
X153277129Y-71787888D01*
X153282468Y-71791767D01*
X153421533Y-71892803D01*
X153430270Y-71899151D01*
X153603197Y-71976144D01*
X153671718Y-71990708D01*
X153676632Y-71991753D01*
X153739105Y-72025481D01*
X153773427Y-72087631D01*
X153768699Y-72158470D01*
X153726423Y-72215508D01*
X153676632Y-72238247D01*
X153603197Y-72253856D01*
X153430270Y-72330849D01*
X153424929Y-72334729D01*
X153424928Y-72334730D01*
X153376464Y-72369941D01*
X153277129Y-72442112D01*
X153150467Y-72582784D01*
X153147164Y-72588505D01*
X153096360Y-72676500D01*
X153044978Y-72725493D01*
X152987241Y-72739500D01*
X152697727Y-72739500D01*
X152629606Y-72719498D01*
X152608632Y-72702595D01*
X148473828Y-68567791D01*
X148459103Y-68549560D01*
X148457702Y-68548020D01*
X148455752Y-68545000D01*
X155727396Y-68545000D01*
X155747779Y-68803994D01*
X155748933Y-68808801D01*
X155748934Y-68808807D01*
X155785859Y-68962606D01*
X155808427Y-69056610D01*
X155810320Y-69061181D01*
X155810321Y-69061183D01*
X155855801Y-69170980D01*
X155907846Y-69296628D01*
X156043588Y-69518140D01*
X156096995Y-69580671D01*
X156204307Y-69706317D01*
X156212311Y-69715689D01*
X156409860Y-69884412D01*
X156631372Y-70020154D01*
X156635942Y-70022047D01*
X156635946Y-70022049D01*
X156866817Y-70117679D01*
X156871390Y-70119573D01*
X156959724Y-70140780D01*
X157119193Y-70179066D01*
X157119199Y-70179067D01*
X157124006Y-70180221D01*
X157383000Y-70200604D01*
X157641994Y-70180221D01*
X157646801Y-70179067D01*
X157646807Y-70179066D01*
X157806276Y-70140780D01*
X157894610Y-70119573D01*
X157899183Y-70117679D01*
X158130054Y-70022049D01*
X158130058Y-70022047D01*
X158134628Y-70020154D01*
X158356140Y-69884412D01*
X158553689Y-69715689D01*
X158561694Y-69706317D01*
X158669005Y-69580671D01*
X158722412Y-69518140D01*
X158858154Y-69296628D01*
X158910200Y-69170980D01*
X158955679Y-69061183D01*
X158955680Y-69061181D01*
X158957573Y-69056610D01*
X158980141Y-68962606D01*
X159017066Y-68808807D01*
X159017067Y-68808801D01*
X159018221Y-68803994D01*
X159038604Y-68545000D01*
X159018221Y-68286006D01*
X159017067Y-68281199D01*
X159017066Y-68281193D01*
X158978780Y-68121724D01*
X158957573Y-68033390D01*
X158913502Y-67926993D01*
X158860049Y-67797946D01*
X158860047Y-67797942D01*
X158858154Y-67793372D01*
X158722412Y-67571860D01*
X158553689Y-67374311D01*
X158356140Y-67205588D01*
X158134628Y-67069846D01*
X158130058Y-67067953D01*
X158130054Y-67067951D01*
X157899183Y-66972321D01*
X157899181Y-66972320D01*
X157894610Y-66970427D01*
X157806276Y-66949220D01*
X157646807Y-66910934D01*
X157646801Y-66910933D01*
X157641994Y-66909779D01*
X157383000Y-66889396D01*
X157124006Y-66909779D01*
X157119199Y-66910933D01*
X157119193Y-66910934D01*
X156959724Y-66949220D01*
X156871390Y-66970427D01*
X156866819Y-66972320D01*
X156866817Y-66972321D01*
X156635946Y-67067951D01*
X156635942Y-67067953D01*
X156631372Y-67069846D01*
X156409860Y-67205588D01*
X156212311Y-67374311D01*
X156043588Y-67571860D01*
X155907846Y-67793372D01*
X155905953Y-67797942D01*
X155905951Y-67797946D01*
X155852498Y-67926993D01*
X155808427Y-68033390D01*
X155787220Y-68121724D01*
X155748934Y-68281193D01*
X155748933Y-68281199D01*
X155747779Y-68286006D01*
X155727396Y-68545000D01*
X148455752Y-68545000D01*
X148452052Y-68539270D01*
X148426015Y-68518744D01*
X148421648Y-68514863D01*
X148421582Y-68514941D01*
X148417624Y-68511587D01*
X148413942Y-68507905D01*
X148409711Y-68504882D01*
X148409708Y-68504879D01*
X148404889Y-68501436D01*
X148398428Y-68496819D01*
X148393692Y-68493263D01*
X148353880Y-68461877D01*
X148345331Y-68458875D01*
X148337961Y-68453608D01*
X148304683Y-68443656D01*
X148289410Y-68439088D01*
X148283766Y-68437254D01*
X148243415Y-68423084D01*
X148243409Y-68423083D01*
X148235932Y-68420457D01*
X148230425Y-68419980D01*
X148227718Y-68419980D01*
X148225145Y-68419869D01*
X148224986Y-68419821D01*
X148224992Y-68419677D01*
X148224372Y-68419638D01*
X148218193Y-68417790D01*
X148164925Y-68419883D01*
X148159978Y-68419980D01*
X144438900Y-68419980D01*
X144370779Y-68399978D01*
X144324286Y-68346322D01*
X144312900Y-68293980D01*
X144312900Y-67920806D01*
X144298366Y-67847740D01*
X144243001Y-67764879D01*
X144160140Y-67709514D01*
X144087074Y-67694980D01*
X142337726Y-67694980D01*
X142264660Y-67709514D01*
X142181799Y-67764879D01*
X142126434Y-67847740D01*
X142111900Y-67920806D01*
X142111900Y-69670154D01*
X142126434Y-69743220D01*
X142181799Y-69826081D01*
X142264660Y-69881446D01*
X142337726Y-69895980D01*
X144087074Y-69895980D01*
X144160140Y-69881446D01*
X144243001Y-69826081D01*
X144298366Y-69743220D01*
X144312900Y-69670154D01*
X144312900Y-69296980D01*
X144332902Y-69228859D01*
X144386558Y-69182366D01*
X144438900Y-69170980D01*
X147962753Y-69170980D01*
X148030874Y-69190982D01*
X148051848Y-69207885D01*
X152186654Y-73342692D01*
X152201367Y-73360909D01*
X152202778Y-73362460D01*
X152208428Y-73371210D01*
X152216608Y-73377658D01*
X152216610Y-73377661D01*
X152234461Y-73391734D01*
X152238835Y-73395621D01*
X152238901Y-73395543D01*
X152242860Y-73398898D01*
X152246538Y-73402576D01*
X152250762Y-73405595D01*
X152250771Y-73405602D01*
X152262074Y-73413679D01*
X152266820Y-73417243D01*
X152306600Y-73448603D01*
X152315148Y-73451605D01*
X152322519Y-73456872D01*
X152332492Y-73459855D01*
X152332495Y-73459856D01*
X152371083Y-73471396D01*
X152376730Y-73473231D01*
X152417064Y-73487395D01*
X152417065Y-73487395D01*
X152424548Y-73490023D01*
X152430055Y-73490500D01*
X152432762Y-73490500D01*
X152435332Y-73490611D01*
X152435494Y-73490659D01*
X152435488Y-73490804D01*
X152436108Y-73490843D01*
X152442287Y-73492691D01*
X152495581Y-73490597D01*
X152500527Y-73490500D01*
X152987241Y-73490500D01*
X153055362Y-73510502D01*
X153096360Y-73553500D01*
X153150467Y-73647216D01*
X153154885Y-73652123D01*
X153154886Y-73652124D01*
X153245717Y-73753001D01*
X153277129Y-73787888D01*
X153282468Y-73791767D01*
X153402788Y-73879184D01*
X153430270Y-73899151D01*
X153603197Y-73976144D01*
X153671718Y-73990708D01*
X153676632Y-73991753D01*
X153739105Y-74025481D01*
X153773427Y-74087631D01*
X153768699Y-74158470D01*
X153726423Y-74215508D01*
X153676632Y-74238247D01*
X153603197Y-74253856D01*
X153430270Y-74330849D01*
X153277129Y-74442112D01*
X153272716Y-74447014D01*
X153272714Y-74447015D01*
X153154886Y-74577876D01*
X153150467Y-74582784D01*
X153055821Y-74746716D01*
X152997326Y-74926744D01*
X152996636Y-74933305D01*
X152996636Y-74933307D01*
X152985490Y-75039359D01*
X152977540Y-75115000D01*
X152978230Y-75121565D01*
X152992417Y-75256545D01*
X152997326Y-75303256D01*
X153055821Y-75483284D01*
X153059124Y-75489006D01*
X153059125Y-75489007D01*
X153109062Y-75575500D01*
X153125800Y-75644495D01*
X153102580Y-75711587D01*
X153046773Y-75755474D01*
X152999943Y-75764500D01*
X152905826Y-75764500D01*
X152886727Y-75762467D01*
X152881923Y-75762240D01*
X152871740Y-75760048D01*
X152861398Y-75761272D01*
X152841501Y-75763627D01*
X152836253Y-75763936D01*
X152836264Y-75764072D01*
X152831085Y-75764500D01*
X152825885Y-75764500D01*
X152820759Y-75765353D01*
X152820750Y-75765354D01*
X152808537Y-75767387D01*
X152802661Y-75768224D01*
X152766203Y-75772539D01*
X152766202Y-75772539D01*
X152755862Y-75773763D01*
X152748239Y-75777424D01*
X152739897Y-75778812D01*
X152730730Y-75783758D01*
X152730731Y-75783758D01*
X152698436Y-75801184D01*
X152693145Y-75803880D01*
X152650674Y-75824274D01*
X152646726Y-75827592D01*
X152644787Y-75829531D01*
X152643196Y-75830990D01*
X152642706Y-75831254D01*
X152642687Y-75831234D01*
X152642598Y-75831313D01*
X152637206Y-75834222D01*
X152630136Y-75841870D01*
X152630135Y-75841871D01*
X152603545Y-75870636D01*
X152600116Y-75874202D01*
X152501723Y-75972595D01*
X152439411Y-76006621D01*
X152412628Y-76009500D01*
X151522727Y-76009500D01*
X151454606Y-75989498D01*
X151433632Y-75972595D01*
X148608828Y-73147791D01*
X148594103Y-73129560D01*
X148592702Y-73128020D01*
X148587052Y-73119270D01*
X148561015Y-73098744D01*
X148556648Y-73094863D01*
X148556582Y-73094941D01*
X148552624Y-73091587D01*
X148548942Y-73087905D01*
X148544711Y-73084882D01*
X148544708Y-73084879D01*
X148539889Y-73081436D01*
X148533428Y-73076819D01*
X148528692Y-73073263D01*
X148488880Y-73041877D01*
X148480331Y-73038875D01*
X148472961Y-73033608D01*
X148437072Y-73022875D01*
X148424410Y-73019088D01*
X148418766Y-73017254D01*
X148378415Y-73003084D01*
X148378409Y-73003083D01*
X148370932Y-73000457D01*
X148365425Y-72999980D01*
X148362718Y-72999980D01*
X148360145Y-72999869D01*
X148359986Y-72999821D01*
X148359992Y-72999677D01*
X148359372Y-72999638D01*
X148353193Y-72997790D01*
X148299925Y-72999883D01*
X148294978Y-72999980D01*
X144652539Y-72999980D01*
X144584418Y-72979978D01*
X144563444Y-72963075D01*
X144023160Y-72422791D01*
X144008435Y-72404560D01*
X144007034Y-72403020D01*
X144001384Y-72394270D01*
X143975347Y-72373744D01*
X143970980Y-72369863D01*
X143970914Y-72369941D01*
X143966959Y-72366590D01*
X143963274Y-72362905D01*
X143953586Y-72355982D01*
X143909794Y-72300101D01*
X143903166Y-72229415D01*
X143935805Y-72166366D01*
X143946279Y-72156596D01*
X143989468Y-72120676D01*
X143989473Y-72120671D01*
X143993905Y-72116985D01*
X144123237Y-71961481D01*
X144222064Y-71785011D01*
X144249532Y-71704095D01*
X144285220Y-71598961D01*
X144285220Y-71598959D01*
X144287078Y-71593487D01*
X144287907Y-71587771D01*
X144287908Y-71587766D01*
X144313852Y-71408824D01*
X144316100Y-71393322D01*
X144317615Y-71335480D01*
X144299108Y-71134071D01*
X144293730Y-71115000D01*
X144245776Y-70944970D01*
X144244207Y-70939406D01*
X144154751Y-70758007D01*
X144136479Y-70733537D01*
X144037188Y-70600571D01*
X144037187Y-70600570D01*
X144033735Y-70595947D01*
X144029499Y-70592031D01*
X143889453Y-70462574D01*
X143889451Y-70462572D01*
X143885212Y-70458654D01*
X143857774Y-70441342D01*
X143719037Y-70353805D01*
X143714157Y-70350726D01*
X143526298Y-70275778D01*
X143327926Y-70236319D01*
X143322152Y-70236243D01*
X143322148Y-70236243D01*
X143219657Y-70234902D01*
X143125686Y-70233672D01*
X143119989Y-70234651D01*
X143119988Y-70234651D01*
X142932046Y-70266945D01*
X142932045Y-70266945D01*
X142926349Y-70267924D01*
X142736593Y-70337929D01*
X142562771Y-70441342D01*
X142410705Y-70574700D01*
X142285489Y-70733537D01*
X142191314Y-70912533D01*
X142131337Y-71105693D01*
X142107564Y-71306549D01*
X142120792Y-71508374D01*
X142136689Y-71570968D01*
X142157300Y-71652124D01*
X142170578Y-71704408D01*
X142255256Y-71888087D01*
X142371988Y-72053260D01*
X142377601Y-72058728D01*
X142378080Y-72059577D01*
X142379877Y-72061682D01*
X142379464Y-72062035D01*
X142412437Y-72120588D01*
X142408300Y-72191463D01*
X142366501Y-72248851D01*
X142300311Y-72274531D01*
X142289678Y-72274980D01*
X142195127Y-72274980D01*
X142127006Y-72254978D01*
X142106032Y-72238075D01*
X141730094Y-71862137D01*
X141696068Y-71799825D01*
X141699876Y-71732541D01*
X141745219Y-71598965D01*
X141745220Y-71598960D01*
X141747078Y-71593487D01*
X141747907Y-71587771D01*
X141747908Y-71587766D01*
X141773852Y-71408824D01*
X141776100Y-71393322D01*
X141777615Y-71335480D01*
X141759108Y-71134071D01*
X141753730Y-71115000D01*
X141705776Y-70944970D01*
X141704207Y-70939406D01*
X141614751Y-70758007D01*
X141596479Y-70733537D01*
X141497188Y-70600571D01*
X141497187Y-70600570D01*
X141493735Y-70595947D01*
X141489499Y-70592031D01*
X141349453Y-70462574D01*
X141349451Y-70462572D01*
X141345212Y-70458654D01*
X141317774Y-70441342D01*
X141179037Y-70353805D01*
X141174157Y-70350726D01*
X140986298Y-70275778D01*
X140787926Y-70236319D01*
X140782152Y-70236243D01*
X140782148Y-70236243D01*
X140679657Y-70234902D01*
X140585686Y-70233672D01*
X140579989Y-70234651D01*
X140579988Y-70234651D01*
X140392046Y-70266945D01*
X140392045Y-70266945D01*
X140386349Y-70267924D01*
X140196593Y-70337929D01*
X140022771Y-70441342D01*
X139870705Y-70574700D01*
X139745489Y-70733537D01*
X139651314Y-70912533D01*
X139591337Y-71105693D01*
X139567564Y-71306549D01*
X139580792Y-71508374D01*
X139596689Y-71570968D01*
X139617300Y-71652124D01*
X139630578Y-71704408D01*
X139715256Y-71888087D01*
X139831988Y-72053260D01*
X139976866Y-72194393D01*
X140145037Y-72306762D01*
X140150340Y-72309040D01*
X140150343Y-72309042D01*
X140291909Y-72369863D01*
X140330870Y-72386602D01*
X140528140Y-72431240D01*
X140533909Y-72431467D01*
X140533912Y-72431467D01*
X140610083Y-72434459D01*
X140730242Y-72439180D01*
X140816532Y-72426669D01*
X140924686Y-72410988D01*
X140924691Y-72410987D01*
X140930407Y-72410158D01*
X140935880Y-72408300D01*
X140935885Y-72408299D01*
X141069461Y-72362956D01*
X141140396Y-72360000D01*
X141199057Y-72393174D01*
X141684052Y-72878169D01*
X141698777Y-72896400D01*
X141700178Y-72897940D01*
X141705828Y-72906690D01*
X141714006Y-72913137D01*
X141731865Y-72927216D01*
X141736232Y-72931097D01*
X141736298Y-72931019D01*
X141740256Y-72934373D01*
X141743938Y-72938055D01*
X141748169Y-72941078D01*
X141748172Y-72941081D01*
X141752991Y-72944524D01*
X141759452Y-72949141D01*
X141764181Y-72952692D01*
X141804000Y-72984083D01*
X141812549Y-72987085D01*
X141819919Y-72992352D01*
X141829900Y-72995337D01*
X141868483Y-73006876D01*
X141874130Y-73008711D01*
X141914464Y-73022875D01*
X141914465Y-73022875D01*
X141921948Y-73025503D01*
X141927455Y-73025980D01*
X141930162Y-73025980D01*
X141932732Y-73026091D01*
X141932894Y-73026139D01*
X141932888Y-73026284D01*
X141933508Y-73026323D01*
X141939687Y-73028171D01*
X141992981Y-73026077D01*
X141997927Y-73025980D01*
X142220872Y-73025980D01*
X142288993Y-73045982D01*
X142335486Y-73099638D01*
X142345590Y-73169912D01*
X142319824Y-73229983D01*
X142285489Y-73273537D01*
X142191314Y-73452533D01*
X142131337Y-73645693D01*
X142107564Y-73846549D01*
X142120792Y-74048374D01*
X142137713Y-74115000D01*
X142160448Y-74204519D01*
X142170578Y-74244408D01*
X142255256Y-74428087D01*
X142265168Y-74442112D01*
X142368628Y-74588505D01*
X142371988Y-74593260D01*
X142516866Y-74734393D01*
X142521670Y-74737603D01*
X142544715Y-74753001D01*
X142685037Y-74846762D01*
X142690340Y-74849040D01*
X142690343Y-74849042D01*
X142834746Y-74911082D01*
X142870870Y-74926602D01*
X143068140Y-74971240D01*
X143073909Y-74971467D01*
X143073912Y-74971467D01*
X143150083Y-74974459D01*
X143270242Y-74979180D01*
X143356532Y-74966669D01*
X143464686Y-74950988D01*
X143464691Y-74950987D01*
X143470407Y-74950158D01*
X143475879Y-74948300D01*
X143475881Y-74948300D01*
X143656467Y-74886999D01*
X143656469Y-74886998D01*
X143661931Y-74885144D01*
X143784417Y-74816549D01*
X143833364Y-74789138D01*
X143833365Y-74789137D01*
X143838401Y-74786317D01*
X143900833Y-74734393D01*
X143989473Y-74660671D01*
X143993905Y-74656985D01*
X144123237Y-74501481D01*
X144136948Y-74476999D01*
X144216621Y-74334730D01*
X144222064Y-74325011D01*
X144222255Y-74324449D01*
X144267147Y-74271635D01*
X144336272Y-74250980D01*
X147890647Y-74250980D01*
X147958768Y-74270982D01*
X147979742Y-74287885D01*
X150756262Y-77064405D01*
X150790288Y-77126717D01*
X150785223Y-77197532D01*
X150742676Y-77254368D01*
X150676156Y-77279179D01*
X150667167Y-77279500D01*
X146175729Y-77279500D01*
X146107608Y-77259498D01*
X146061115Y-77205842D01*
X146051011Y-77135568D01*
X146080505Y-77070988D01*
X146086634Y-77064405D01*
X146230414Y-76920625D01*
X146292578Y-76886680D01*
X146297499Y-76886770D01*
X146306154Y-76884410D01*
X146306157Y-76884410D01*
X146427158Y-76851421D01*
X146427160Y-76851420D01*
X146435817Y-76849060D01*
X146557991Y-76774045D01*
X146654200Y-76667754D01*
X146716710Y-76538733D01*
X146740496Y-76397354D01*
X146740647Y-76385000D01*
X146729840Y-76309534D01*
X146721596Y-76251968D01*
X146721595Y-76251965D01*
X146720323Y-76243082D01*
X146660984Y-76112572D01*
X146576241Y-76014223D01*
X146573260Y-76010763D01*
X146573257Y-76010760D01*
X146567400Y-76003963D01*
X146447095Y-75925985D01*
X146309739Y-75884907D01*
X146300763Y-75884852D01*
X146300762Y-75884852D01*
X146240555Y-75884484D01*
X146166376Y-75884031D01*
X146028529Y-75923428D01*
X145907280Y-75999930D01*
X145901338Y-76006658D01*
X145901337Y-76006659D01*
X145859829Y-76053659D01*
X145812377Y-76107388D01*
X145751447Y-76237163D01*
X145750066Y-76246035D01*
X145739267Y-76315391D01*
X145709023Y-76379623D01*
X145703862Y-76385101D01*
X145481368Y-76607595D01*
X145419056Y-76641621D01*
X145392273Y-76644500D01*
X144436867Y-76644500D01*
X144368746Y-76624498D01*
X144322253Y-76570842D01*
X144312171Y-76500420D01*
X144313826Y-76489007D01*
X144316100Y-76473322D01*
X144317615Y-76415480D01*
X144299108Y-76214071D01*
X144244207Y-76019406D01*
X144178664Y-75886498D01*
X144157306Y-75843188D01*
X144154751Y-75838007D01*
X144149694Y-75831234D01*
X144037188Y-75680571D01*
X144037187Y-75680570D01*
X144033735Y-75675947D01*
X144010241Y-75654229D01*
X143889453Y-75542574D01*
X143889451Y-75542572D01*
X143885212Y-75538654D01*
X143857774Y-75521342D01*
X143719037Y-75433805D01*
X143714157Y-75430726D01*
X143526298Y-75355778D01*
X143327926Y-75316319D01*
X143322152Y-75316243D01*
X143322148Y-75316243D01*
X143219657Y-75314902D01*
X143125686Y-75313672D01*
X143119989Y-75314651D01*
X143119988Y-75314651D01*
X142932046Y-75346945D01*
X142932045Y-75346945D01*
X142926349Y-75347924D01*
X142736593Y-75417929D01*
X142562771Y-75521342D01*
X142410705Y-75654700D01*
X142285489Y-75813537D01*
X142191314Y-75992533D01*
X142131337Y-76185693D01*
X142107564Y-76386549D01*
X142120792Y-76588374D01*
X142143799Y-76678965D01*
X142169139Y-76778741D01*
X142170578Y-76784408D01*
X142255256Y-76968087D01*
X142258589Y-76972803D01*
X142334899Y-77080780D01*
X142357880Y-77147954D01*
X142340895Y-77216889D01*
X142289338Y-77265699D01*
X142232002Y-77279500D01*
X142119647Y-77279500D01*
X142051526Y-77259498D01*
X142030552Y-77242595D01*
X141730094Y-76942137D01*
X141696068Y-76879825D01*
X141699876Y-76812541D01*
X141745219Y-76678965D01*
X141745220Y-76678960D01*
X141747078Y-76673487D01*
X141747907Y-76667771D01*
X141747908Y-76667766D01*
X141773826Y-76489007D01*
X141776100Y-76473322D01*
X141777615Y-76415480D01*
X141759108Y-76214071D01*
X141704207Y-76019406D01*
X141638664Y-75886498D01*
X141617306Y-75843188D01*
X141614751Y-75838007D01*
X141609694Y-75831234D01*
X141497188Y-75680571D01*
X141497187Y-75680570D01*
X141493735Y-75675947D01*
X141470241Y-75654229D01*
X141349453Y-75542574D01*
X141349451Y-75542572D01*
X141345212Y-75538654D01*
X141317774Y-75521342D01*
X141179037Y-75433805D01*
X141174157Y-75430726D01*
X140986298Y-75355778D01*
X140787926Y-75316319D01*
X140782152Y-75316243D01*
X140782148Y-75316243D01*
X140679657Y-75314902D01*
X140585686Y-75313672D01*
X140579989Y-75314651D01*
X140579988Y-75314651D01*
X140392046Y-75346945D01*
X140392045Y-75346945D01*
X140386349Y-75347924D01*
X140196593Y-75417929D01*
X140022771Y-75521342D01*
X139870705Y-75654700D01*
X139745489Y-75813537D01*
X139651314Y-75992533D01*
X139591337Y-76185693D01*
X139567564Y-76386549D01*
X139580792Y-76588374D01*
X139603799Y-76678965D01*
X139629139Y-76778741D01*
X139630578Y-76784408D01*
X139715256Y-76968087D01*
X139718589Y-76972803D01*
X139814444Y-77108435D01*
X139831988Y-77133260D01*
X139976866Y-77274393D01*
X140145037Y-77386762D01*
X140150340Y-77389040D01*
X140150343Y-77389042D01*
X140251109Y-77432334D01*
X140305802Y-77477602D01*
X140327339Y-77545253D01*
X140308882Y-77613809D01*
X140256291Y-77661503D01*
X140240516Y-77667867D01*
X140149268Y-77697692D01*
X140139759Y-77701689D01*
X139950863Y-77800022D01*
X139942138Y-77805516D01*
X139771833Y-77933385D01*
X139764126Y-77940228D01*
X139616990Y-78094197D01*
X139610504Y-78102207D01*
X139490498Y-78278129D01*
X139485400Y-78287103D01*
X139395738Y-78480263D01*
X139392175Y-78489950D01*
X139336789Y-78689663D01*
X136706500Y-78689663D01*
X136706500Y-73846549D01*
X139567564Y-73846549D01*
X139580792Y-74048374D01*
X139597713Y-74115000D01*
X139620448Y-74204519D01*
X139630578Y-74244408D01*
X139715256Y-74428087D01*
X139725168Y-74442112D01*
X139828628Y-74588505D01*
X139831988Y-74593260D01*
X139976866Y-74734393D01*
X139981670Y-74737603D01*
X140004715Y-74753001D01*
X140145037Y-74846762D01*
X140150340Y-74849040D01*
X140150343Y-74849042D01*
X140294746Y-74911082D01*
X140330870Y-74926602D01*
X140528140Y-74971240D01*
X140533909Y-74971467D01*
X140533912Y-74971467D01*
X140610083Y-74974459D01*
X140730242Y-74979180D01*
X140816532Y-74966669D01*
X140924686Y-74950988D01*
X140924691Y-74950987D01*
X140930407Y-74950158D01*
X140935879Y-74948300D01*
X140935881Y-74948300D01*
X141116467Y-74886999D01*
X141116469Y-74886998D01*
X141121931Y-74885144D01*
X141244417Y-74816549D01*
X141293364Y-74789138D01*
X141293365Y-74789137D01*
X141298401Y-74786317D01*
X141360833Y-74734393D01*
X141449473Y-74660671D01*
X141453905Y-74656985D01*
X141583237Y-74501481D01*
X141596948Y-74476999D01*
X141676621Y-74334730D01*
X141682064Y-74325011D01*
X141684133Y-74318918D01*
X141745220Y-74138961D01*
X141745220Y-74138959D01*
X141747078Y-74133487D01*
X141747907Y-74127771D01*
X141747908Y-74127766D01*
X141775567Y-73936996D01*
X141776100Y-73933322D01*
X141777615Y-73875480D01*
X141759108Y-73674071D01*
X141704207Y-73479406D01*
X141614751Y-73298007D01*
X141596479Y-73273537D01*
X141497188Y-73140571D01*
X141497187Y-73140570D01*
X141493735Y-73135947D01*
X141468720Y-73112823D01*
X141349453Y-73002574D01*
X141349451Y-73002572D01*
X141345212Y-72998654D01*
X141335224Y-72992352D01*
X141179037Y-72893805D01*
X141174157Y-72890726D01*
X140986298Y-72815778D01*
X140787926Y-72776319D01*
X140782152Y-72776243D01*
X140782148Y-72776243D01*
X140679657Y-72774902D01*
X140585686Y-72773672D01*
X140579989Y-72774651D01*
X140579988Y-72774651D01*
X140392046Y-72806945D01*
X140392045Y-72806945D01*
X140386349Y-72807924D01*
X140196593Y-72877929D01*
X140191632Y-72880881D01*
X140191631Y-72880881D01*
X140076915Y-72949130D01*
X140022771Y-72981342D01*
X139870705Y-73114700D01*
X139745489Y-73273537D01*
X139651314Y-73452533D01*
X139591337Y-73645693D01*
X139567564Y-73846549D01*
X136706500Y-73846549D01*
X136706500Y-68766549D01*
X139567564Y-68766549D01*
X139580792Y-68968374D01*
X139630578Y-69164408D01*
X139715256Y-69348087D01*
X139831988Y-69513260D01*
X139976866Y-69654393D01*
X140145037Y-69766762D01*
X140150340Y-69769040D01*
X140150343Y-69769042D01*
X140325563Y-69844322D01*
X140330870Y-69846602D01*
X140483774Y-69881201D01*
X140509376Y-69886994D01*
X140528140Y-69891240D01*
X140533909Y-69891467D01*
X140533912Y-69891467D01*
X140610083Y-69894459D01*
X140730242Y-69899180D01*
X140816532Y-69886669D01*
X140924686Y-69870988D01*
X140924691Y-69870987D01*
X140930407Y-69870158D01*
X140935879Y-69868300D01*
X140935881Y-69868300D01*
X141116467Y-69806999D01*
X141116469Y-69806998D01*
X141121931Y-69805144D01*
X141298401Y-69706317D01*
X141360833Y-69654393D01*
X141449473Y-69580671D01*
X141453905Y-69576985D01*
X141583237Y-69421481D01*
X141682064Y-69245011D01*
X141700405Y-69190982D01*
X141745220Y-69058961D01*
X141745220Y-69058959D01*
X141747078Y-69053487D01*
X141747907Y-69047771D01*
X141747908Y-69047766D01*
X141775567Y-68856996D01*
X141776100Y-68853322D01*
X141777615Y-68795480D01*
X141759108Y-68594071D01*
X141736568Y-68514148D01*
X141722300Y-68463558D01*
X141704207Y-68399406D01*
X141614751Y-68218007D01*
X141596479Y-68193537D01*
X141497188Y-68060571D01*
X141497187Y-68060570D01*
X141493735Y-68055947D01*
X141469333Y-68033390D01*
X141349453Y-67922574D01*
X141349451Y-67922572D01*
X141345212Y-67918654D01*
X141317774Y-67901342D01*
X141179037Y-67813805D01*
X141174157Y-67810726D01*
X140986298Y-67735778D01*
X140787926Y-67696319D01*
X140782152Y-67696243D01*
X140782148Y-67696243D01*
X140679657Y-67694902D01*
X140585686Y-67693672D01*
X140579989Y-67694651D01*
X140579988Y-67694651D01*
X140392046Y-67726945D01*
X140392045Y-67726945D01*
X140386349Y-67727924D01*
X140196593Y-67797929D01*
X140022771Y-67901342D01*
X139870705Y-68034700D01*
X139745489Y-68193537D01*
X139651314Y-68372533D01*
X139591337Y-68565693D01*
X139567564Y-68766549D01*
X136706500Y-68766549D01*
X136706500Y-64569500D01*
X136726502Y-64501379D01*
X136780158Y-64454886D01*
X136832500Y-64443500D01*
X168812824Y-64443500D01*
X168880945Y-64463502D01*
G37*
%TD.AperFunction*%
%TD*%
M02*
