%TF.GenerationSoftware,KiCad,Pcbnew,6.0.11-2627ca5db0~126~ubuntu22.04.1*%
%TF.CreationDate,2023-02-25T21:45:52+01:00*%
%TF.ProjectId,pmod,706d6f64-2e6b-4696-9361-645f70636258,0.7*%
%TF.SameCoordinates,Original*%
%TF.FileFunction,Drillmap*%
%TF.FilePolarity,Positive*%
%FSLAX45Y45*%
G04 Gerber Fmt 4.5, Leading zero omitted, Abs format (unit mm)*
G04 Created by KiCad (PCBNEW 6.0.11-2627ca5db0~126~ubuntu22.04.1) date 2023-02-25 21:45:52*
%MOMM*%
%LPD*%
G01*
G04 APERTURE LIST*
%ADD10C,0.150000*%
%ADD11C,0.200000*%
%ADD12C,0.030000*%
%ADD13C,0.070000*%
%ADD14C,0.100000*%
%ADD15C,0.230000*%
G04 APERTURE END LIST*
D10*
X13645600Y-6419300D02*
X16922200Y-6419300D01*
X16922200Y-6419300D02*
X16922200Y-8603700D01*
X16922200Y-8603700D02*
X13645600Y-8603700D01*
X13645600Y-8603700D02*
X13645600Y-6419300D01*
D11*
D12*
X14608500Y-7623500D02*
X14638500Y-7653500D01*
X14638500Y-7623500D02*
X14608500Y-7653500D01*
X15053000Y-7369500D02*
X15083000Y-7399500D01*
X15083000Y-7369500D02*
X15053000Y-7399500D01*
D13*
X15423300Y-7111500D02*
G75*
G03*
X15423300Y-7111500I-35000J0D01*
G01*
X15423300Y-7311500D02*
G75*
G03*
X15423300Y-7311500I-35000J0D01*
G01*
X15423300Y-7511500D02*
G75*
G03*
X15423300Y-7511500I-35000J0D01*
G01*
X15423300Y-7711500D02*
G75*
G03*
X15423300Y-7711500I-35000J0D01*
G01*
X15423300Y-7911500D02*
G75*
G03*
X15423300Y-7911500I-35000J0D01*
G01*
X15573300Y-7161500D02*
G75*
G03*
X15573300Y-7161500I-35000J0D01*
G01*
X15573300Y-7411500D02*
G75*
G03*
X15573300Y-7411500I-35000J0D01*
G01*
X15573300Y-7611500D02*
G75*
G03*
X15573300Y-7611500I-35000J0D01*
G01*
X15573300Y-7861500D02*
G75*
G03*
X15573300Y-7861500I-35000J0D01*
G01*
D14*
X14067240Y-6829548D02*
X14067240Y-6929548D01*
X14017240Y-6879548D02*
X14117240Y-6879548D01*
X14067240Y-7083548D02*
X14067240Y-7183548D01*
X14017240Y-7133548D02*
X14117240Y-7133548D01*
X14067240Y-7337548D02*
X14067240Y-7437548D01*
X14017240Y-7387548D02*
X14117240Y-7387548D01*
X14067240Y-7591548D02*
X14067240Y-7691548D01*
X14017240Y-7641548D02*
X14117240Y-7641548D01*
X14067240Y-7845548D02*
X14067240Y-7945548D01*
X14017240Y-7895548D02*
X14117240Y-7895548D01*
X14067240Y-8099548D02*
X14067240Y-8199548D01*
X14017240Y-8149548D02*
X14117240Y-8149548D01*
X14321240Y-6829548D02*
X14321240Y-6929548D01*
X14271240Y-6879548D02*
X14371240Y-6879548D01*
X14321240Y-7083548D02*
X14321240Y-7183548D01*
X14271240Y-7133548D02*
X14371240Y-7133548D01*
X14321240Y-7337548D02*
X14321240Y-7437548D01*
X14271240Y-7387548D02*
X14371240Y-7387548D01*
X14321240Y-7591548D02*
X14321240Y-7691548D01*
X14271240Y-7641548D02*
X14371240Y-7641548D01*
X14321240Y-7845548D02*
X14321240Y-7945548D01*
X14271240Y-7895548D02*
X14371240Y-7895548D01*
X14321240Y-8099548D02*
X14321240Y-8199548D01*
X14271240Y-8149548D02*
X14371240Y-8149548D01*
X14687000Y-8350500D02*
X14687000Y-8450500D01*
X14637000Y-8400500D02*
X14737000Y-8400500D01*
X14941000Y-8350500D02*
X14941000Y-8450500D01*
X14891000Y-8400500D02*
X14991000Y-8400500D01*
X15195000Y-8350500D02*
X15195000Y-8450500D01*
X15145000Y-8400500D02*
X15245000Y-8400500D01*
D15*
X15819618Y-6935818D02*
X15819618Y-6773182D01*
X15656982Y-6773182D01*
X15656982Y-6935818D01*
X15819618Y-6935818D01*
X15819618Y-8249818D02*
X15819618Y-8087182D01*
X15656982Y-8087182D01*
X15656982Y-8249818D01*
X15819618Y-8249818D01*
D11*
X13895719Y-8921676D02*
X13895719Y-8721676D01*
X13943338Y-8721676D01*
X13971909Y-8731200D01*
X13990957Y-8750248D01*
X14000481Y-8769295D01*
X14010005Y-8807390D01*
X14010005Y-8835962D01*
X14000481Y-8874057D01*
X13990957Y-8893105D01*
X13971909Y-8912152D01*
X13943338Y-8921676D01*
X13895719Y-8921676D01*
X14095719Y-8921676D02*
X14095719Y-8788343D01*
X14095719Y-8826438D02*
X14105243Y-8807390D01*
X14114767Y-8797867D01*
X14133814Y-8788343D01*
X14152862Y-8788343D01*
X14219528Y-8921676D02*
X14219528Y-8788343D01*
X14219528Y-8721676D02*
X14210005Y-8731200D01*
X14219528Y-8740724D01*
X14229052Y-8731200D01*
X14219528Y-8721676D01*
X14219528Y-8740724D01*
X14343338Y-8921676D02*
X14324290Y-8912152D01*
X14314767Y-8893105D01*
X14314767Y-8721676D01*
X14448100Y-8921676D02*
X14429052Y-8912152D01*
X14419528Y-8893105D01*
X14419528Y-8721676D01*
X14676671Y-8921676D02*
X14676671Y-8721676D01*
X14743338Y-8864533D01*
X14810005Y-8721676D01*
X14810005Y-8921676D01*
X14990957Y-8921676D02*
X14990957Y-8816914D01*
X14981433Y-8797867D01*
X14962386Y-8788343D01*
X14924290Y-8788343D01*
X14905243Y-8797867D01*
X14990957Y-8912152D02*
X14971909Y-8921676D01*
X14924290Y-8921676D01*
X14905243Y-8912152D01*
X14895719Y-8893105D01*
X14895719Y-8874057D01*
X14905243Y-8855010D01*
X14924290Y-8845486D01*
X14971909Y-8845486D01*
X14990957Y-8835962D01*
X15086195Y-8788343D02*
X15086195Y-8988343D01*
X15086195Y-8797867D02*
X15105243Y-8788343D01*
X15143338Y-8788343D01*
X15162386Y-8797867D01*
X15171909Y-8807390D01*
X15181433Y-8826438D01*
X15181433Y-8883581D01*
X15171909Y-8902629D01*
X15162386Y-8912152D01*
X15143338Y-8921676D01*
X15105243Y-8921676D01*
X15086195Y-8912152D01*
X15267148Y-8902629D02*
X15276671Y-8912152D01*
X15267148Y-8921676D01*
X15257624Y-8912152D01*
X15267148Y-8902629D01*
X15267148Y-8921676D01*
X15267148Y-8797867D02*
X15276671Y-8807390D01*
X15267148Y-8816914D01*
X15257624Y-8807390D01*
X15267148Y-8797867D01*
X15267148Y-8816914D01*
D12*
X13608100Y-9236200D02*
X13638100Y-9266200D01*
X13638100Y-9236200D02*
X13608100Y-9266200D01*
D11*
X13933814Y-9141676D02*
X13952862Y-9141676D01*
X13971909Y-9151200D01*
X13981433Y-9160724D01*
X13990957Y-9179771D01*
X14000481Y-9217867D01*
X14000481Y-9265486D01*
X13990957Y-9303581D01*
X13981433Y-9322629D01*
X13971909Y-9332152D01*
X13952862Y-9341676D01*
X13933814Y-9341676D01*
X13914767Y-9332152D01*
X13905243Y-9322629D01*
X13895719Y-9303581D01*
X13886195Y-9265486D01*
X13886195Y-9217867D01*
X13895719Y-9179771D01*
X13905243Y-9160724D01*
X13914767Y-9151200D01*
X13933814Y-9141676D01*
X14086195Y-9322629D02*
X14095719Y-9332152D01*
X14086195Y-9341676D01*
X14076671Y-9332152D01*
X14086195Y-9322629D01*
X14086195Y-9341676D01*
X14162386Y-9141676D02*
X14286195Y-9141676D01*
X14219528Y-9217867D01*
X14248100Y-9217867D01*
X14267148Y-9227390D01*
X14276671Y-9236914D01*
X14286195Y-9255962D01*
X14286195Y-9303581D01*
X14276671Y-9322629D01*
X14267148Y-9332152D01*
X14248100Y-9341676D01*
X14190957Y-9341676D01*
X14171909Y-9332152D01*
X14162386Y-9322629D01*
X14410005Y-9141676D02*
X14429052Y-9141676D01*
X14448100Y-9151200D01*
X14457624Y-9160724D01*
X14467148Y-9179771D01*
X14476671Y-9217867D01*
X14476671Y-9265486D01*
X14467148Y-9303581D01*
X14457624Y-9322629D01*
X14448100Y-9332152D01*
X14429052Y-9341676D01*
X14410005Y-9341676D01*
X14390957Y-9332152D01*
X14381433Y-9322629D01*
X14371909Y-9303581D01*
X14362386Y-9265486D01*
X14362386Y-9217867D01*
X14371909Y-9179771D01*
X14381433Y-9160724D01*
X14390957Y-9151200D01*
X14410005Y-9141676D01*
X14600481Y-9141676D02*
X14619528Y-9141676D01*
X14638576Y-9151200D01*
X14648100Y-9160724D01*
X14657624Y-9179771D01*
X14667148Y-9217867D01*
X14667148Y-9265486D01*
X14657624Y-9303581D01*
X14648100Y-9322629D01*
X14638576Y-9332152D01*
X14619528Y-9341676D01*
X14600481Y-9341676D01*
X14581433Y-9332152D01*
X14571909Y-9322629D01*
X14562386Y-9303581D01*
X14552862Y-9265486D01*
X14552862Y-9217867D01*
X14562386Y-9179771D01*
X14571909Y-9160724D01*
X14581433Y-9151200D01*
X14600481Y-9141676D01*
X14752862Y-9341676D02*
X14752862Y-9208343D01*
X14752862Y-9227390D02*
X14762386Y-9217867D01*
X14781433Y-9208343D01*
X14810005Y-9208343D01*
X14829052Y-9217867D01*
X14838576Y-9236914D01*
X14838576Y-9341676D01*
X14838576Y-9236914D02*
X14848100Y-9217867D01*
X14867148Y-9208343D01*
X14895719Y-9208343D01*
X14914767Y-9217867D01*
X14924290Y-9236914D01*
X14924290Y-9341676D01*
X15019528Y-9341676D02*
X15019528Y-9208343D01*
X15019528Y-9227390D02*
X15029052Y-9217867D01*
X15048100Y-9208343D01*
X15076671Y-9208343D01*
X15095719Y-9217867D01*
X15105243Y-9236914D01*
X15105243Y-9341676D01*
X15105243Y-9236914D02*
X15114767Y-9217867D01*
X15133814Y-9208343D01*
X15162386Y-9208343D01*
X15181433Y-9217867D01*
X15190957Y-9236914D01*
X15190957Y-9341676D01*
X15581433Y-9132152D02*
X15410005Y-9389295D01*
X15838576Y-9141676D02*
X15857624Y-9141676D01*
X15876671Y-9151200D01*
X15886195Y-9160724D01*
X15895719Y-9179771D01*
X15905243Y-9217867D01*
X15905243Y-9265486D01*
X15895719Y-9303581D01*
X15886195Y-9322629D01*
X15876671Y-9332152D01*
X15857624Y-9341676D01*
X15838576Y-9341676D01*
X15819528Y-9332152D01*
X15810005Y-9322629D01*
X15800481Y-9303581D01*
X15790957Y-9265486D01*
X15790957Y-9217867D01*
X15800481Y-9179771D01*
X15810005Y-9160724D01*
X15819528Y-9151200D01*
X15838576Y-9141676D01*
X15990957Y-9322629D02*
X16000481Y-9332152D01*
X15990957Y-9341676D01*
X15981433Y-9332152D01*
X15990957Y-9322629D01*
X15990957Y-9341676D01*
X16124290Y-9141676D02*
X16143338Y-9141676D01*
X16162386Y-9151200D01*
X16171909Y-9160724D01*
X16181433Y-9179771D01*
X16190957Y-9217867D01*
X16190957Y-9265486D01*
X16181433Y-9303581D01*
X16171909Y-9322629D01*
X16162386Y-9332152D01*
X16143338Y-9341676D01*
X16124290Y-9341676D01*
X16105243Y-9332152D01*
X16095719Y-9322629D01*
X16086195Y-9303581D01*
X16076671Y-9265486D01*
X16076671Y-9217867D01*
X16086195Y-9179771D01*
X16095719Y-9160724D01*
X16105243Y-9151200D01*
X16124290Y-9141676D01*
X16381433Y-9341676D02*
X16267148Y-9341676D01*
X16324290Y-9341676D02*
X16324290Y-9141676D01*
X16305243Y-9170248D01*
X16286195Y-9189295D01*
X16267148Y-9198819D01*
X16571909Y-9341676D02*
X16457624Y-9341676D01*
X16514767Y-9341676D02*
X16514767Y-9141676D01*
X16495719Y-9170248D01*
X16476671Y-9189295D01*
X16457624Y-9198819D01*
X16686195Y-9227390D02*
X16667148Y-9217867D01*
X16657624Y-9208343D01*
X16648100Y-9189295D01*
X16648100Y-9179771D01*
X16657624Y-9160724D01*
X16667148Y-9151200D01*
X16686195Y-9141676D01*
X16724290Y-9141676D01*
X16743338Y-9151200D01*
X16752862Y-9160724D01*
X16762386Y-9179771D01*
X16762386Y-9189295D01*
X16752862Y-9208343D01*
X16743338Y-9217867D01*
X16724290Y-9227390D01*
X16686195Y-9227390D01*
X16667148Y-9236914D01*
X16657624Y-9246438D01*
X16648100Y-9265486D01*
X16648100Y-9303581D01*
X16657624Y-9322629D01*
X16667148Y-9332152D01*
X16686195Y-9341676D01*
X16724290Y-9341676D01*
X16743338Y-9332152D01*
X16752862Y-9322629D01*
X16762386Y-9303581D01*
X16762386Y-9265486D01*
X16752862Y-9246438D01*
X16743338Y-9236914D01*
X16724290Y-9227390D01*
X16838576Y-9141676D02*
X16838576Y-9179771D01*
X16914767Y-9141676D02*
X16914767Y-9179771D01*
X17210005Y-9417867D02*
X17200481Y-9408343D01*
X17181433Y-9379771D01*
X17171910Y-9360724D01*
X17162386Y-9332152D01*
X17152862Y-9284533D01*
X17152862Y-9246438D01*
X17162386Y-9198819D01*
X17171910Y-9170248D01*
X17181433Y-9151200D01*
X17200481Y-9122629D01*
X17210005Y-9113105D01*
X17276671Y-9160724D02*
X17286195Y-9151200D01*
X17305243Y-9141676D01*
X17352862Y-9141676D01*
X17371910Y-9151200D01*
X17381433Y-9160724D01*
X17390957Y-9179771D01*
X17390957Y-9198819D01*
X17381433Y-9227390D01*
X17267148Y-9341676D01*
X17390957Y-9341676D01*
X17629052Y-9341676D02*
X17629052Y-9141676D01*
X17714767Y-9341676D02*
X17714767Y-9236914D01*
X17705243Y-9217867D01*
X17686195Y-9208343D01*
X17657624Y-9208343D01*
X17638576Y-9217867D01*
X17629052Y-9227390D01*
X17838576Y-9341676D02*
X17819529Y-9332152D01*
X17810005Y-9322629D01*
X17800481Y-9303581D01*
X17800481Y-9246438D01*
X17810005Y-9227390D01*
X17819529Y-9217867D01*
X17838576Y-9208343D01*
X17867148Y-9208343D01*
X17886195Y-9217867D01*
X17895719Y-9227390D01*
X17905243Y-9246438D01*
X17905243Y-9303581D01*
X17895719Y-9322629D01*
X17886195Y-9332152D01*
X17867148Y-9341676D01*
X17838576Y-9341676D01*
X18019529Y-9341676D02*
X18000481Y-9332152D01*
X17990957Y-9313105D01*
X17990957Y-9141676D01*
X18171910Y-9332152D02*
X18152862Y-9341676D01*
X18114767Y-9341676D01*
X18095719Y-9332152D01*
X18086195Y-9313105D01*
X18086195Y-9236914D01*
X18095719Y-9217867D01*
X18114767Y-9208343D01*
X18152862Y-9208343D01*
X18171910Y-9217867D01*
X18181433Y-9236914D01*
X18181433Y-9255962D01*
X18086195Y-9275010D01*
X18257624Y-9332152D02*
X18276671Y-9341676D01*
X18314767Y-9341676D01*
X18333814Y-9332152D01*
X18343338Y-9313105D01*
X18343338Y-9303581D01*
X18333814Y-9284533D01*
X18314767Y-9275010D01*
X18286195Y-9275010D01*
X18267148Y-9265486D01*
X18257624Y-9246438D01*
X18257624Y-9236914D01*
X18267148Y-9217867D01*
X18286195Y-9208343D01*
X18314767Y-9208343D01*
X18333814Y-9217867D01*
X18410005Y-9417867D02*
X18419529Y-9408343D01*
X18438576Y-9379771D01*
X18448100Y-9360724D01*
X18457624Y-9332152D01*
X18467148Y-9284533D01*
X18467148Y-9246438D01*
X18457624Y-9198819D01*
X18448100Y-9170248D01*
X18438576Y-9151200D01*
X18419529Y-9122629D01*
X18410005Y-9113105D01*
D13*
X13638100Y-9515200D02*
G75*
G03*
X13638100Y-9515200I-35000J0D01*
G01*
D11*
X13933814Y-9405676D02*
X13952862Y-9405676D01*
X13971909Y-9415200D01*
X13981433Y-9424724D01*
X13990957Y-9443771D01*
X14000481Y-9481867D01*
X14000481Y-9529486D01*
X13990957Y-9567581D01*
X13981433Y-9586629D01*
X13971909Y-9596152D01*
X13952862Y-9605676D01*
X13933814Y-9605676D01*
X13914767Y-9596152D01*
X13905243Y-9586629D01*
X13895719Y-9567581D01*
X13886195Y-9529486D01*
X13886195Y-9481867D01*
X13895719Y-9443771D01*
X13905243Y-9424724D01*
X13914767Y-9415200D01*
X13933814Y-9405676D01*
X14086195Y-9586629D02*
X14095719Y-9596152D01*
X14086195Y-9605676D01*
X14076671Y-9596152D01*
X14086195Y-9586629D01*
X14086195Y-9605676D01*
X14162386Y-9405676D02*
X14295719Y-9405676D01*
X14210005Y-9605676D01*
X14410005Y-9405676D02*
X14429052Y-9405676D01*
X14448100Y-9415200D01*
X14457624Y-9424724D01*
X14467148Y-9443771D01*
X14476671Y-9481867D01*
X14476671Y-9529486D01*
X14467148Y-9567581D01*
X14457624Y-9586629D01*
X14448100Y-9596152D01*
X14429052Y-9605676D01*
X14410005Y-9605676D01*
X14390957Y-9596152D01*
X14381433Y-9586629D01*
X14371909Y-9567581D01*
X14362386Y-9529486D01*
X14362386Y-9481867D01*
X14371909Y-9443771D01*
X14381433Y-9424724D01*
X14390957Y-9415200D01*
X14410005Y-9405676D01*
X14600481Y-9405676D02*
X14619528Y-9405676D01*
X14638576Y-9415200D01*
X14648100Y-9424724D01*
X14657624Y-9443771D01*
X14667148Y-9481867D01*
X14667148Y-9529486D01*
X14657624Y-9567581D01*
X14648100Y-9586629D01*
X14638576Y-9596152D01*
X14619528Y-9605676D01*
X14600481Y-9605676D01*
X14581433Y-9596152D01*
X14571909Y-9586629D01*
X14562386Y-9567581D01*
X14552862Y-9529486D01*
X14552862Y-9481867D01*
X14562386Y-9443771D01*
X14571909Y-9424724D01*
X14581433Y-9415200D01*
X14600481Y-9405676D01*
X14752862Y-9605676D02*
X14752862Y-9472343D01*
X14752862Y-9491390D02*
X14762386Y-9481867D01*
X14781433Y-9472343D01*
X14810005Y-9472343D01*
X14829052Y-9481867D01*
X14838576Y-9500914D01*
X14838576Y-9605676D01*
X14838576Y-9500914D02*
X14848100Y-9481867D01*
X14867148Y-9472343D01*
X14895719Y-9472343D01*
X14914767Y-9481867D01*
X14924290Y-9500914D01*
X14924290Y-9605676D01*
X15019528Y-9605676D02*
X15019528Y-9472343D01*
X15019528Y-9491390D02*
X15029052Y-9481867D01*
X15048100Y-9472343D01*
X15076671Y-9472343D01*
X15095719Y-9481867D01*
X15105243Y-9500914D01*
X15105243Y-9605676D01*
X15105243Y-9500914D02*
X15114767Y-9481867D01*
X15133814Y-9472343D01*
X15162386Y-9472343D01*
X15181433Y-9481867D01*
X15190957Y-9500914D01*
X15190957Y-9605676D01*
X15581433Y-9396152D02*
X15410005Y-9653295D01*
X15838576Y-9405676D02*
X15857624Y-9405676D01*
X15876671Y-9415200D01*
X15886195Y-9424724D01*
X15895719Y-9443771D01*
X15905243Y-9481867D01*
X15905243Y-9529486D01*
X15895719Y-9567581D01*
X15886195Y-9586629D01*
X15876671Y-9596152D01*
X15857624Y-9605676D01*
X15838576Y-9605676D01*
X15819528Y-9596152D01*
X15810005Y-9586629D01*
X15800481Y-9567581D01*
X15790957Y-9529486D01*
X15790957Y-9481867D01*
X15800481Y-9443771D01*
X15810005Y-9424724D01*
X15819528Y-9415200D01*
X15838576Y-9405676D01*
X15990957Y-9586629D02*
X16000481Y-9596152D01*
X15990957Y-9605676D01*
X15981433Y-9596152D01*
X15990957Y-9586629D01*
X15990957Y-9605676D01*
X16124290Y-9405676D02*
X16143338Y-9405676D01*
X16162386Y-9415200D01*
X16171909Y-9424724D01*
X16181433Y-9443771D01*
X16190957Y-9481867D01*
X16190957Y-9529486D01*
X16181433Y-9567581D01*
X16171909Y-9586629D01*
X16162386Y-9596152D01*
X16143338Y-9605676D01*
X16124290Y-9605676D01*
X16105243Y-9596152D01*
X16095719Y-9586629D01*
X16086195Y-9567581D01*
X16076671Y-9529486D01*
X16076671Y-9481867D01*
X16086195Y-9443771D01*
X16095719Y-9424724D01*
X16105243Y-9415200D01*
X16124290Y-9405676D01*
X16267148Y-9424724D02*
X16276671Y-9415200D01*
X16295719Y-9405676D01*
X16343338Y-9405676D01*
X16362386Y-9415200D01*
X16371909Y-9424724D01*
X16381433Y-9443771D01*
X16381433Y-9462819D01*
X16371909Y-9491390D01*
X16257624Y-9605676D01*
X16381433Y-9605676D01*
X16448100Y-9405676D02*
X16581433Y-9405676D01*
X16495719Y-9605676D01*
X16743338Y-9405676D02*
X16705243Y-9405676D01*
X16686195Y-9415200D01*
X16676671Y-9424724D01*
X16657624Y-9453295D01*
X16648100Y-9491390D01*
X16648100Y-9567581D01*
X16657624Y-9586629D01*
X16667148Y-9596152D01*
X16686195Y-9605676D01*
X16724290Y-9605676D01*
X16743338Y-9596152D01*
X16752862Y-9586629D01*
X16762386Y-9567581D01*
X16762386Y-9519962D01*
X16752862Y-9500914D01*
X16743338Y-9491390D01*
X16724290Y-9481867D01*
X16686195Y-9481867D01*
X16667148Y-9491390D01*
X16657624Y-9500914D01*
X16648100Y-9519962D01*
X16838576Y-9405676D02*
X16838576Y-9443771D01*
X16914767Y-9405676D02*
X16914767Y-9443771D01*
X17210005Y-9681867D02*
X17200481Y-9672343D01*
X17181433Y-9643771D01*
X17171910Y-9624724D01*
X17162386Y-9596152D01*
X17152862Y-9548533D01*
X17152862Y-9510438D01*
X17162386Y-9462819D01*
X17171910Y-9434248D01*
X17181433Y-9415200D01*
X17200481Y-9386629D01*
X17210005Y-9377105D01*
X17295719Y-9605676D02*
X17333814Y-9605676D01*
X17352862Y-9596152D01*
X17362386Y-9586629D01*
X17381433Y-9558057D01*
X17390957Y-9519962D01*
X17390957Y-9443771D01*
X17381433Y-9424724D01*
X17371910Y-9415200D01*
X17352862Y-9405676D01*
X17314767Y-9405676D01*
X17295719Y-9415200D01*
X17286195Y-9424724D01*
X17276671Y-9443771D01*
X17276671Y-9491390D01*
X17286195Y-9510438D01*
X17295719Y-9519962D01*
X17314767Y-9529486D01*
X17352862Y-9529486D01*
X17371910Y-9519962D01*
X17381433Y-9510438D01*
X17390957Y-9491390D01*
X17629052Y-9605676D02*
X17629052Y-9405676D01*
X17714767Y-9605676D02*
X17714767Y-9500914D01*
X17705243Y-9481867D01*
X17686195Y-9472343D01*
X17657624Y-9472343D01*
X17638576Y-9481867D01*
X17629052Y-9491390D01*
X17838576Y-9605676D02*
X17819529Y-9596152D01*
X17810005Y-9586629D01*
X17800481Y-9567581D01*
X17800481Y-9510438D01*
X17810005Y-9491390D01*
X17819529Y-9481867D01*
X17838576Y-9472343D01*
X17867148Y-9472343D01*
X17886195Y-9481867D01*
X17895719Y-9491390D01*
X17905243Y-9510438D01*
X17905243Y-9567581D01*
X17895719Y-9586629D01*
X17886195Y-9596152D01*
X17867148Y-9605676D01*
X17838576Y-9605676D01*
X18019529Y-9605676D02*
X18000481Y-9596152D01*
X17990957Y-9577105D01*
X17990957Y-9405676D01*
X18171910Y-9596152D02*
X18152862Y-9605676D01*
X18114767Y-9605676D01*
X18095719Y-9596152D01*
X18086195Y-9577105D01*
X18086195Y-9500914D01*
X18095719Y-9481867D01*
X18114767Y-9472343D01*
X18152862Y-9472343D01*
X18171910Y-9481867D01*
X18181433Y-9500914D01*
X18181433Y-9519962D01*
X18086195Y-9539010D01*
X18257624Y-9596152D02*
X18276671Y-9605676D01*
X18314767Y-9605676D01*
X18333814Y-9596152D01*
X18343338Y-9577105D01*
X18343338Y-9567581D01*
X18333814Y-9548533D01*
X18314767Y-9539010D01*
X18286195Y-9539010D01*
X18267148Y-9529486D01*
X18257624Y-9510438D01*
X18257624Y-9500914D01*
X18267148Y-9481867D01*
X18286195Y-9472343D01*
X18314767Y-9472343D01*
X18333814Y-9481867D01*
X18410005Y-9681867D02*
X18419529Y-9672343D01*
X18438576Y-9643771D01*
X18448100Y-9624724D01*
X18457624Y-9596152D01*
X18467148Y-9548533D01*
X18467148Y-9510438D01*
X18457624Y-9462819D01*
X18448100Y-9434248D01*
X18438576Y-9415200D01*
X18419529Y-9386629D01*
X18410005Y-9377105D01*
D14*
X13588100Y-9729200D02*
X13588100Y-9829200D01*
X13538100Y-9779200D02*
X13638100Y-9779200D01*
D11*
X14000481Y-9869676D02*
X13886195Y-9869676D01*
X13943338Y-9869676D02*
X13943338Y-9669676D01*
X13924290Y-9698248D01*
X13905243Y-9717295D01*
X13886195Y-9726819D01*
X14086195Y-9850629D02*
X14095719Y-9860152D01*
X14086195Y-9869676D01*
X14076671Y-9860152D01*
X14086195Y-9850629D01*
X14086195Y-9869676D01*
X14219528Y-9669676D02*
X14238576Y-9669676D01*
X14257624Y-9679200D01*
X14267148Y-9688724D01*
X14276671Y-9707771D01*
X14286195Y-9745867D01*
X14286195Y-9793486D01*
X14276671Y-9831581D01*
X14267148Y-9850629D01*
X14257624Y-9860152D01*
X14238576Y-9869676D01*
X14219528Y-9869676D01*
X14200481Y-9860152D01*
X14190957Y-9850629D01*
X14181433Y-9831581D01*
X14171909Y-9793486D01*
X14171909Y-9745867D01*
X14181433Y-9707771D01*
X14190957Y-9688724D01*
X14200481Y-9679200D01*
X14219528Y-9669676D01*
X14410005Y-9669676D02*
X14429052Y-9669676D01*
X14448100Y-9679200D01*
X14457624Y-9688724D01*
X14467148Y-9707771D01*
X14476671Y-9745867D01*
X14476671Y-9793486D01*
X14467148Y-9831581D01*
X14457624Y-9850629D01*
X14448100Y-9860152D01*
X14429052Y-9869676D01*
X14410005Y-9869676D01*
X14390957Y-9860152D01*
X14381433Y-9850629D01*
X14371909Y-9831581D01*
X14362386Y-9793486D01*
X14362386Y-9745867D01*
X14371909Y-9707771D01*
X14381433Y-9688724D01*
X14390957Y-9679200D01*
X14410005Y-9669676D01*
X14600481Y-9669676D02*
X14619528Y-9669676D01*
X14638576Y-9679200D01*
X14648100Y-9688724D01*
X14657624Y-9707771D01*
X14667148Y-9745867D01*
X14667148Y-9793486D01*
X14657624Y-9831581D01*
X14648100Y-9850629D01*
X14638576Y-9860152D01*
X14619528Y-9869676D01*
X14600481Y-9869676D01*
X14581433Y-9860152D01*
X14571909Y-9850629D01*
X14562386Y-9831581D01*
X14552862Y-9793486D01*
X14552862Y-9745867D01*
X14562386Y-9707771D01*
X14571909Y-9688724D01*
X14581433Y-9679200D01*
X14600481Y-9669676D01*
X14752862Y-9869676D02*
X14752862Y-9736343D01*
X14752862Y-9755390D02*
X14762386Y-9745867D01*
X14781433Y-9736343D01*
X14810005Y-9736343D01*
X14829052Y-9745867D01*
X14838576Y-9764914D01*
X14838576Y-9869676D01*
X14838576Y-9764914D02*
X14848100Y-9745867D01*
X14867148Y-9736343D01*
X14895719Y-9736343D01*
X14914767Y-9745867D01*
X14924290Y-9764914D01*
X14924290Y-9869676D01*
X15019528Y-9869676D02*
X15019528Y-9736343D01*
X15019528Y-9755390D02*
X15029052Y-9745867D01*
X15048100Y-9736343D01*
X15076671Y-9736343D01*
X15095719Y-9745867D01*
X15105243Y-9764914D01*
X15105243Y-9869676D01*
X15105243Y-9764914D02*
X15114767Y-9745867D01*
X15133814Y-9736343D01*
X15162386Y-9736343D01*
X15181433Y-9745867D01*
X15190957Y-9764914D01*
X15190957Y-9869676D01*
X15581433Y-9660152D02*
X15410005Y-9917295D01*
X15838576Y-9669676D02*
X15857624Y-9669676D01*
X15876671Y-9679200D01*
X15886195Y-9688724D01*
X15895719Y-9707771D01*
X15905243Y-9745867D01*
X15905243Y-9793486D01*
X15895719Y-9831581D01*
X15886195Y-9850629D01*
X15876671Y-9860152D01*
X15857624Y-9869676D01*
X15838576Y-9869676D01*
X15819528Y-9860152D01*
X15810005Y-9850629D01*
X15800481Y-9831581D01*
X15790957Y-9793486D01*
X15790957Y-9745867D01*
X15800481Y-9707771D01*
X15810005Y-9688724D01*
X15819528Y-9679200D01*
X15838576Y-9669676D01*
X15990957Y-9850629D02*
X16000481Y-9860152D01*
X15990957Y-9869676D01*
X15981433Y-9860152D01*
X15990957Y-9850629D01*
X15990957Y-9869676D01*
X16124290Y-9669676D02*
X16143338Y-9669676D01*
X16162386Y-9679200D01*
X16171909Y-9688724D01*
X16181433Y-9707771D01*
X16190957Y-9745867D01*
X16190957Y-9793486D01*
X16181433Y-9831581D01*
X16171909Y-9850629D01*
X16162386Y-9860152D01*
X16143338Y-9869676D01*
X16124290Y-9869676D01*
X16105243Y-9860152D01*
X16095719Y-9850629D01*
X16086195Y-9831581D01*
X16076671Y-9793486D01*
X16076671Y-9745867D01*
X16086195Y-9707771D01*
X16095719Y-9688724D01*
X16105243Y-9679200D01*
X16124290Y-9669676D01*
X16257624Y-9669676D02*
X16381433Y-9669676D01*
X16314767Y-9745867D01*
X16343338Y-9745867D01*
X16362386Y-9755390D01*
X16371909Y-9764914D01*
X16381433Y-9783962D01*
X16381433Y-9831581D01*
X16371909Y-9850629D01*
X16362386Y-9860152D01*
X16343338Y-9869676D01*
X16286195Y-9869676D01*
X16267148Y-9860152D01*
X16257624Y-9850629D01*
X16476671Y-9869676D02*
X16514767Y-9869676D01*
X16533814Y-9860152D01*
X16543338Y-9850629D01*
X16562386Y-9822057D01*
X16571909Y-9783962D01*
X16571909Y-9707771D01*
X16562386Y-9688724D01*
X16552862Y-9679200D01*
X16533814Y-9669676D01*
X16495719Y-9669676D01*
X16476671Y-9679200D01*
X16467148Y-9688724D01*
X16457624Y-9707771D01*
X16457624Y-9755390D01*
X16467148Y-9774438D01*
X16476671Y-9783962D01*
X16495719Y-9793486D01*
X16533814Y-9793486D01*
X16552862Y-9783962D01*
X16562386Y-9774438D01*
X16571909Y-9755390D01*
X16743338Y-9736343D02*
X16743338Y-9869676D01*
X16695719Y-9660152D02*
X16648100Y-9803010D01*
X16771909Y-9803010D01*
X16838576Y-9669676D02*
X16838576Y-9707771D01*
X16914767Y-9669676D02*
X16914767Y-9707771D01*
X17210005Y-9945867D02*
X17200481Y-9936343D01*
X17181433Y-9907771D01*
X17171910Y-9888724D01*
X17162386Y-9860152D01*
X17152862Y-9812533D01*
X17152862Y-9774438D01*
X17162386Y-9726819D01*
X17171910Y-9698248D01*
X17181433Y-9679200D01*
X17200481Y-9650629D01*
X17210005Y-9641105D01*
X17390957Y-9869676D02*
X17276671Y-9869676D01*
X17333814Y-9869676D02*
X17333814Y-9669676D01*
X17314767Y-9698248D01*
X17295719Y-9717295D01*
X17276671Y-9726819D01*
X17571910Y-9669676D02*
X17476671Y-9669676D01*
X17467148Y-9764914D01*
X17476671Y-9755390D01*
X17495719Y-9745867D01*
X17543338Y-9745867D01*
X17562386Y-9755390D01*
X17571910Y-9764914D01*
X17581433Y-9783962D01*
X17581433Y-9831581D01*
X17571910Y-9850629D01*
X17562386Y-9860152D01*
X17543338Y-9869676D01*
X17495719Y-9869676D01*
X17476671Y-9860152D01*
X17467148Y-9850629D01*
X17819529Y-9869676D02*
X17819529Y-9669676D01*
X17905243Y-9869676D02*
X17905243Y-9764914D01*
X17895719Y-9745867D01*
X17876671Y-9736343D01*
X17848100Y-9736343D01*
X17829052Y-9745867D01*
X17819529Y-9755390D01*
X18029052Y-9869676D02*
X18010005Y-9860152D01*
X18000481Y-9850629D01*
X17990957Y-9831581D01*
X17990957Y-9774438D01*
X18000481Y-9755390D01*
X18010005Y-9745867D01*
X18029052Y-9736343D01*
X18057624Y-9736343D01*
X18076671Y-9745867D01*
X18086195Y-9755390D01*
X18095719Y-9774438D01*
X18095719Y-9831581D01*
X18086195Y-9850629D01*
X18076671Y-9860152D01*
X18057624Y-9869676D01*
X18029052Y-9869676D01*
X18210005Y-9869676D02*
X18190957Y-9860152D01*
X18181433Y-9841105D01*
X18181433Y-9669676D01*
X18362386Y-9860152D02*
X18343338Y-9869676D01*
X18305243Y-9869676D01*
X18286195Y-9860152D01*
X18276671Y-9841105D01*
X18276671Y-9764914D01*
X18286195Y-9745867D01*
X18305243Y-9736343D01*
X18343338Y-9736343D01*
X18362386Y-9745867D01*
X18371910Y-9764914D01*
X18371910Y-9783962D01*
X18276671Y-9803010D01*
X18448100Y-9860152D02*
X18467148Y-9869676D01*
X18505243Y-9869676D01*
X18524290Y-9860152D01*
X18533814Y-9841105D01*
X18533814Y-9831581D01*
X18524290Y-9812533D01*
X18505243Y-9803010D01*
X18476671Y-9803010D01*
X18457624Y-9793486D01*
X18448100Y-9774438D01*
X18448100Y-9764914D01*
X18457624Y-9745867D01*
X18476671Y-9736343D01*
X18505243Y-9736343D01*
X18524290Y-9745867D01*
X18600481Y-9945867D02*
X18610005Y-9936343D01*
X18629052Y-9907771D01*
X18638576Y-9888724D01*
X18648100Y-9860152D01*
X18657624Y-9812533D01*
X18657624Y-9774438D01*
X18648100Y-9726819D01*
X18638576Y-9698248D01*
X18629052Y-9679200D01*
X18610005Y-9650629D01*
X18600481Y-9641105D01*
X13608811Y-10113911D02*
X13608811Y-9972489D01*
X13467389Y-9972489D01*
X13467389Y-10113911D01*
X13608811Y-10113911D01*
X13886195Y-9952724D02*
X13895719Y-9943200D01*
X13914767Y-9933676D01*
X13962386Y-9933676D01*
X13981433Y-9943200D01*
X13990957Y-9952724D01*
X14000481Y-9971771D01*
X14000481Y-9990819D01*
X13990957Y-10019390D01*
X13876671Y-10133676D01*
X14000481Y-10133676D01*
X14086195Y-10114629D02*
X14095719Y-10124152D01*
X14086195Y-10133676D01*
X14076671Y-10124152D01*
X14086195Y-10114629D01*
X14086195Y-10133676D01*
X14162386Y-9933676D02*
X14286195Y-9933676D01*
X14219528Y-10009867D01*
X14248100Y-10009867D01*
X14267148Y-10019390D01*
X14276671Y-10028914D01*
X14286195Y-10047962D01*
X14286195Y-10095581D01*
X14276671Y-10114629D01*
X14267148Y-10124152D01*
X14248100Y-10133676D01*
X14190957Y-10133676D01*
X14171909Y-10124152D01*
X14162386Y-10114629D01*
X14410005Y-9933676D02*
X14429052Y-9933676D01*
X14448100Y-9943200D01*
X14457624Y-9952724D01*
X14467148Y-9971771D01*
X14476671Y-10009867D01*
X14476671Y-10057486D01*
X14467148Y-10095581D01*
X14457624Y-10114629D01*
X14448100Y-10124152D01*
X14429052Y-10133676D01*
X14410005Y-10133676D01*
X14390957Y-10124152D01*
X14381433Y-10114629D01*
X14371909Y-10095581D01*
X14362386Y-10057486D01*
X14362386Y-10009867D01*
X14371909Y-9971771D01*
X14381433Y-9952724D01*
X14390957Y-9943200D01*
X14410005Y-9933676D01*
X14600481Y-9933676D02*
X14619528Y-9933676D01*
X14638576Y-9943200D01*
X14648100Y-9952724D01*
X14657624Y-9971771D01*
X14667148Y-10009867D01*
X14667148Y-10057486D01*
X14657624Y-10095581D01*
X14648100Y-10114629D01*
X14638576Y-10124152D01*
X14619528Y-10133676D01*
X14600481Y-10133676D01*
X14581433Y-10124152D01*
X14571909Y-10114629D01*
X14562386Y-10095581D01*
X14552862Y-10057486D01*
X14552862Y-10009867D01*
X14562386Y-9971771D01*
X14571909Y-9952724D01*
X14581433Y-9943200D01*
X14600481Y-9933676D01*
X14752862Y-10133676D02*
X14752862Y-10000343D01*
X14752862Y-10019390D02*
X14762386Y-10009867D01*
X14781433Y-10000343D01*
X14810005Y-10000343D01*
X14829052Y-10009867D01*
X14838576Y-10028914D01*
X14838576Y-10133676D01*
X14838576Y-10028914D02*
X14848100Y-10009867D01*
X14867148Y-10000343D01*
X14895719Y-10000343D01*
X14914767Y-10009867D01*
X14924290Y-10028914D01*
X14924290Y-10133676D01*
X15019528Y-10133676D02*
X15019528Y-10000343D01*
X15019528Y-10019390D02*
X15029052Y-10009867D01*
X15048100Y-10000343D01*
X15076671Y-10000343D01*
X15095719Y-10009867D01*
X15105243Y-10028914D01*
X15105243Y-10133676D01*
X15105243Y-10028914D02*
X15114767Y-10009867D01*
X15133814Y-10000343D01*
X15162386Y-10000343D01*
X15181433Y-10009867D01*
X15190957Y-10028914D01*
X15190957Y-10133676D01*
X15581433Y-9924152D02*
X15410005Y-10181295D01*
X15838576Y-9933676D02*
X15857624Y-9933676D01*
X15876671Y-9943200D01*
X15886195Y-9952724D01*
X15895719Y-9971771D01*
X15905243Y-10009867D01*
X15905243Y-10057486D01*
X15895719Y-10095581D01*
X15886195Y-10114629D01*
X15876671Y-10124152D01*
X15857624Y-10133676D01*
X15838576Y-10133676D01*
X15819528Y-10124152D01*
X15810005Y-10114629D01*
X15800481Y-10095581D01*
X15790957Y-10057486D01*
X15790957Y-10009867D01*
X15800481Y-9971771D01*
X15810005Y-9952724D01*
X15819528Y-9943200D01*
X15838576Y-9933676D01*
X15990957Y-10114629D02*
X16000481Y-10124152D01*
X15990957Y-10133676D01*
X15981433Y-10124152D01*
X15990957Y-10114629D01*
X15990957Y-10133676D01*
X16124290Y-9933676D02*
X16143338Y-9933676D01*
X16162386Y-9943200D01*
X16171909Y-9952724D01*
X16181433Y-9971771D01*
X16190957Y-10009867D01*
X16190957Y-10057486D01*
X16181433Y-10095581D01*
X16171909Y-10114629D01*
X16162386Y-10124152D01*
X16143338Y-10133676D01*
X16124290Y-10133676D01*
X16105243Y-10124152D01*
X16095719Y-10114629D01*
X16086195Y-10095581D01*
X16076671Y-10057486D01*
X16076671Y-10009867D01*
X16086195Y-9971771D01*
X16095719Y-9952724D01*
X16105243Y-9943200D01*
X16124290Y-9933676D01*
X16286195Y-10133676D02*
X16324290Y-10133676D01*
X16343338Y-10124152D01*
X16352862Y-10114629D01*
X16371909Y-10086057D01*
X16381433Y-10047962D01*
X16381433Y-9971771D01*
X16371909Y-9952724D01*
X16362386Y-9943200D01*
X16343338Y-9933676D01*
X16305243Y-9933676D01*
X16286195Y-9943200D01*
X16276671Y-9952724D01*
X16267148Y-9971771D01*
X16267148Y-10019390D01*
X16276671Y-10038438D01*
X16286195Y-10047962D01*
X16305243Y-10057486D01*
X16343338Y-10057486D01*
X16362386Y-10047962D01*
X16371909Y-10038438D01*
X16381433Y-10019390D01*
X16505243Y-9933676D02*
X16524290Y-9933676D01*
X16543338Y-9943200D01*
X16552862Y-9952724D01*
X16562386Y-9971771D01*
X16571909Y-10009867D01*
X16571909Y-10057486D01*
X16562386Y-10095581D01*
X16552862Y-10114629D01*
X16543338Y-10124152D01*
X16524290Y-10133676D01*
X16505243Y-10133676D01*
X16486195Y-10124152D01*
X16476671Y-10114629D01*
X16467148Y-10095581D01*
X16457624Y-10057486D01*
X16457624Y-10009867D01*
X16467148Y-9971771D01*
X16476671Y-9952724D01*
X16486195Y-9943200D01*
X16505243Y-9933676D01*
X16743338Y-9933676D02*
X16705243Y-9933676D01*
X16686195Y-9943200D01*
X16676671Y-9952724D01*
X16657624Y-9981295D01*
X16648100Y-10019390D01*
X16648100Y-10095581D01*
X16657624Y-10114629D01*
X16667148Y-10124152D01*
X16686195Y-10133676D01*
X16724290Y-10133676D01*
X16743338Y-10124152D01*
X16752862Y-10114629D01*
X16762386Y-10095581D01*
X16762386Y-10047962D01*
X16752862Y-10028914D01*
X16743338Y-10019390D01*
X16724290Y-10009867D01*
X16686195Y-10009867D01*
X16667148Y-10019390D01*
X16657624Y-10028914D01*
X16648100Y-10047962D01*
X16838576Y-9933676D02*
X16838576Y-9971771D01*
X16914767Y-9933676D02*
X16914767Y-9971771D01*
X17210005Y-10209867D02*
X17200481Y-10200343D01*
X17181433Y-10171771D01*
X17171910Y-10152724D01*
X17162386Y-10124152D01*
X17152862Y-10076533D01*
X17152862Y-10038438D01*
X17162386Y-9990819D01*
X17171910Y-9962248D01*
X17181433Y-9943200D01*
X17200481Y-9914629D01*
X17210005Y-9905105D01*
X17276671Y-9952724D02*
X17286195Y-9943200D01*
X17305243Y-9933676D01*
X17352862Y-9933676D01*
X17371910Y-9943200D01*
X17381433Y-9952724D01*
X17390957Y-9971771D01*
X17390957Y-9990819D01*
X17381433Y-10019390D01*
X17267148Y-10133676D01*
X17390957Y-10133676D01*
X17629052Y-10133676D02*
X17629052Y-9933676D01*
X17714767Y-10133676D02*
X17714767Y-10028914D01*
X17705243Y-10009867D01*
X17686195Y-10000343D01*
X17657624Y-10000343D01*
X17638576Y-10009867D01*
X17629052Y-10019390D01*
X17838576Y-10133676D02*
X17819529Y-10124152D01*
X17810005Y-10114629D01*
X17800481Y-10095581D01*
X17800481Y-10038438D01*
X17810005Y-10019390D01*
X17819529Y-10009867D01*
X17838576Y-10000343D01*
X17867148Y-10000343D01*
X17886195Y-10009867D01*
X17895719Y-10019390D01*
X17905243Y-10038438D01*
X17905243Y-10095581D01*
X17895719Y-10114629D01*
X17886195Y-10124152D01*
X17867148Y-10133676D01*
X17838576Y-10133676D01*
X18019529Y-10133676D02*
X18000481Y-10124152D01*
X17990957Y-10105105D01*
X17990957Y-9933676D01*
X18171910Y-10124152D02*
X18152862Y-10133676D01*
X18114767Y-10133676D01*
X18095719Y-10124152D01*
X18086195Y-10105105D01*
X18086195Y-10028914D01*
X18095719Y-10009867D01*
X18114767Y-10000343D01*
X18152862Y-10000343D01*
X18171910Y-10009867D01*
X18181433Y-10028914D01*
X18181433Y-10047962D01*
X18086195Y-10067010D01*
X18257624Y-10124152D02*
X18276671Y-10133676D01*
X18314767Y-10133676D01*
X18333814Y-10124152D01*
X18343338Y-10105105D01*
X18343338Y-10095581D01*
X18333814Y-10076533D01*
X18314767Y-10067010D01*
X18286195Y-10067010D01*
X18267148Y-10057486D01*
X18257624Y-10038438D01*
X18257624Y-10028914D01*
X18267148Y-10009867D01*
X18286195Y-10000343D01*
X18314767Y-10000343D01*
X18333814Y-10009867D01*
X18410005Y-10209867D02*
X18419529Y-10200343D01*
X18438576Y-10171771D01*
X18448100Y-10152724D01*
X18457624Y-10124152D01*
X18467148Y-10076533D01*
X18467148Y-10038438D01*
X18457624Y-9990819D01*
X18448100Y-9962248D01*
X18438576Y-9943200D01*
X18419529Y-9914629D01*
X18410005Y-9905105D01*
M02*
