%TF.GenerationSoftware,KiCad,Pcbnew,6.0.11-2627ca5db0~126~ubuntu22.04.1*%
%TF.CreationDate,2023-02-25T21:45:52+01:00*%
%TF.ProjectId,pmod,706d6f64-2e6b-4696-9361-645f70636258,0.7*%
%TF.SameCoordinates,Original*%
%TF.FileFunction,Drillmap*%
%TF.FilePolarity,Positive*%
%FSLAX45Y45*%
G04 Gerber Fmt 4.5, Leading zero omitted, Abs format (unit mm)*
G04 Created by KiCad (PCBNEW 6.0.11-2627ca5db0~126~ubuntu22.04.1) date 2023-02-25 21:45:52*
%MOMM*%
%LPD*%
G01*
G04 APERTURE LIST*
%ADD10C,0.150000*%
%ADD11C,0.200000*%
G04 APERTURE END LIST*
D10*
X13645600Y-6419300D02*
X16922200Y-6419300D01*
X16922200Y-6419300D02*
X16922200Y-8603700D01*
X16922200Y-8603700D02*
X13645600Y-8603700D01*
X13645600Y-8603700D02*
X13645600Y-6419300D01*
D11*
X13895719Y-8921676D02*
X13895719Y-8721676D01*
X13943338Y-8721676D01*
X13971909Y-8731200D01*
X13990957Y-8750248D01*
X14000481Y-8769295D01*
X14010005Y-8807390D01*
X14010005Y-8835962D01*
X14000481Y-8874057D01*
X13990957Y-8893105D01*
X13971909Y-8912152D01*
X13943338Y-8921676D01*
X13895719Y-8921676D01*
X14095719Y-8921676D02*
X14095719Y-8788343D01*
X14095719Y-8826438D02*
X14105243Y-8807390D01*
X14114767Y-8797867D01*
X14133814Y-8788343D01*
X14152862Y-8788343D01*
X14219528Y-8921676D02*
X14219528Y-8788343D01*
X14219528Y-8721676D02*
X14210005Y-8731200D01*
X14219528Y-8740724D01*
X14229052Y-8731200D01*
X14219528Y-8721676D01*
X14219528Y-8740724D01*
X14343338Y-8921676D02*
X14324290Y-8912152D01*
X14314767Y-8893105D01*
X14314767Y-8721676D01*
X14448100Y-8921676D02*
X14429052Y-8912152D01*
X14419528Y-8893105D01*
X14419528Y-8721676D01*
X14676671Y-8921676D02*
X14676671Y-8721676D01*
X14743338Y-8864533D01*
X14810005Y-8721676D01*
X14810005Y-8921676D01*
X14990957Y-8921676D02*
X14990957Y-8816914D01*
X14981433Y-8797867D01*
X14962386Y-8788343D01*
X14924290Y-8788343D01*
X14905243Y-8797867D01*
X14990957Y-8912152D02*
X14971909Y-8921676D01*
X14924290Y-8921676D01*
X14905243Y-8912152D01*
X14895719Y-8893105D01*
X14895719Y-8874057D01*
X14905243Y-8855010D01*
X14924290Y-8845486D01*
X14971909Y-8845486D01*
X14990957Y-8835962D01*
X15086195Y-8788343D02*
X15086195Y-8988343D01*
X15086195Y-8797867D02*
X15105243Y-8788343D01*
X15143338Y-8788343D01*
X15162386Y-8797867D01*
X15171909Y-8807390D01*
X15181433Y-8826438D01*
X15181433Y-8883581D01*
X15171909Y-8902629D01*
X15162386Y-8912152D01*
X15143338Y-8921676D01*
X15105243Y-8921676D01*
X15086195Y-8912152D01*
X15267148Y-8902629D02*
X15276671Y-8912152D01*
X15267148Y-8921676D01*
X15257624Y-8912152D01*
X15267148Y-8902629D01*
X15267148Y-8921676D01*
X15267148Y-8797867D02*
X15276671Y-8807390D01*
X15267148Y-8816914D01*
X15257624Y-8807390D01*
X15267148Y-8797867D01*
X15267148Y-8816914D01*
M02*
