%TF.GenerationSoftware,KiCad,Pcbnew,6.0.11-2627ca5db0~126~ubuntu22.04.1*%
%TF.CreationDate,2023-02-26T23:23:44+01:00*%
%TF.ProjectId,pmod,706d6f64-2e6b-4696-9361-645f70636258,0.7*%
%TF.SameCoordinates,Original*%
%TF.FileFunction,Legend,Top*%
%TF.FilePolarity,Positive*%
%FSLAX46Y46*%
G04 Gerber Fmt 4.6, Leading zero omitted, Abs format (unit mm)*
G04 Created by KiCad (PCBNEW 6.0.11-2627ca5db0~126~ubuntu22.04.1) date 2023-02-26 23:23:44*
%MOMM*%
%LPD*%
G01*
G04 APERTURE LIST*
G04 Aperture macros list*
%AMRoundRect*
0 Rectangle with rounded corners*
0 $1 Rounding radius*
0 $2 $3 $4 $5 $6 $7 $8 $9 X,Y pos of 4 corners*
0 Add a 4 corners polygon primitive as box body*
4,1,4,$2,$3,$4,$5,$6,$7,$8,$9,$2,$3,0*
0 Add four circle primitives for the rounded corners*
1,1,$1+$1,$2,$3*
1,1,$1+$1,$4,$5*
1,1,$1+$1,$6,$7*
1,1,$1+$1,$8,$9*
0 Add four rect primitives between the rounded corners*
20,1,$1+$1,$2,$3,$4,$5,0*
20,1,$1+$1,$4,$5,$6,$7,0*
20,1,$1+$1,$6,$7,$8,$9,0*
20,1,$1+$1,$8,$9,$2,$3,0*%
G04 Aperture macros list end*
%ADD10C,0.150000*%
%ADD11C,0.203200*%
%ADD12C,0.254000*%
%ADD13C,0.120000*%
%ADD14RoundRect,0.050800X0.787400X-0.787400X0.787400X0.787400X-0.787400X0.787400X-0.787400X-0.787400X0*%
%ADD15C,1.676400*%
%ADD16C,2.946400*%
%ADD17C,1.400000*%
%ADD18C,2.900000*%
%ADD19RoundRect,0.050000X0.850000X-0.850000X0.850000X0.850000X-0.850000X0.850000X-0.850000X-0.850000X0*%
%ADD20O,1.800000X1.800000*%
G04 APERTURE END LIST*
D10*
X154744095Y-65804380D02*
X155315523Y-65804380D01*
X155029809Y-66804380D02*
X155029809Y-65804380D01*
X155553619Y-65804380D02*
X156220285Y-66804380D01*
X156220285Y-65804380D02*
X155553619Y-66804380D01*
X143822095Y-65725000D02*
X143726857Y-65677380D01*
X143584000Y-65677380D01*
X143441142Y-65725000D01*
X143345904Y-65820238D01*
X143298285Y-65915476D01*
X143250666Y-66105952D01*
X143250666Y-66248809D01*
X143298285Y-66439285D01*
X143345904Y-66534523D01*
X143441142Y-66629761D01*
X143584000Y-66677380D01*
X143679238Y-66677380D01*
X143822095Y-66629761D01*
X143869714Y-66582142D01*
X143869714Y-66248809D01*
X143679238Y-66248809D01*
X144298285Y-66677380D02*
X144298285Y-65677380D01*
X144869714Y-66677380D01*
X144869714Y-65677380D01*
X145345904Y-66677380D02*
X145345904Y-65677380D01*
X145584000Y-65677380D01*
X145726857Y-65725000D01*
X145822095Y-65820238D01*
X145869714Y-65915476D01*
X145917333Y-66105952D01*
X145917333Y-66248809D01*
X145869714Y-66439285D01*
X145822095Y-66534523D01*
X145726857Y-66629761D01*
X145584000Y-66677380D01*
X145345904Y-66677380D01*
X153799666Y-84219380D02*
X154133000Y-85219380D01*
X154466333Y-84219380D01*
X155133000Y-84695571D02*
X155275857Y-84743190D01*
X155323476Y-84790809D01*
X155371095Y-84886047D01*
X155371095Y-85028904D01*
X155323476Y-85124142D01*
X155275857Y-85171761D01*
X155180619Y-85219380D01*
X154799666Y-85219380D01*
X154799666Y-84219380D01*
X155133000Y-84219380D01*
X155228238Y-84267000D01*
X155275857Y-84314619D01*
X155323476Y-84409857D01*
X155323476Y-84505095D01*
X155275857Y-84600333D01*
X155228238Y-84647952D01*
X155133000Y-84695571D01*
X154799666Y-84695571D01*
X155799666Y-84219380D02*
X155799666Y-85028904D01*
X155847285Y-85124142D01*
X155894904Y-85171761D01*
X155990142Y-85219380D01*
X156180619Y-85219380D01*
X156275857Y-85171761D01*
X156323476Y-85124142D01*
X156371095Y-85028904D01*
X156371095Y-84219380D01*
X156799666Y-85171761D02*
X156942523Y-85219380D01*
X157180619Y-85219380D01*
X157275857Y-85171761D01*
X157323476Y-85124142D01*
X157371095Y-85028904D01*
X157371095Y-84933666D01*
X157323476Y-84838428D01*
X157275857Y-84790809D01*
X157180619Y-84743190D01*
X156990142Y-84695571D01*
X156894904Y-84647952D01*
X156847285Y-84600333D01*
X156799666Y-84505095D01*
X156799666Y-84409857D01*
X156847285Y-84314619D01*
X156894904Y-84267000D01*
X156990142Y-84219380D01*
X157228238Y-84219380D01*
X157371095Y-84267000D01*
X142456904Y-84219380D02*
X143075952Y-84219380D01*
X142742619Y-84600333D01*
X142885476Y-84600333D01*
X142980714Y-84647952D01*
X143028333Y-84695571D01*
X143075952Y-84790809D01*
X143075952Y-85028904D01*
X143028333Y-85124142D01*
X142980714Y-85171761D01*
X142885476Y-85219380D01*
X142599761Y-85219380D01*
X142504523Y-85171761D01*
X142456904Y-85124142D01*
X143361666Y-84219380D02*
X143695000Y-85219380D01*
X144028333Y-84219380D01*
X144266428Y-84219380D02*
X144885476Y-84219380D01*
X144552142Y-84600333D01*
X144695000Y-84600333D01*
X144790238Y-84647952D01*
X144837857Y-84695571D01*
X144885476Y-84790809D01*
X144885476Y-85028904D01*
X144837857Y-85124142D01*
X144790238Y-85171761D01*
X144695000Y-85219380D01*
X144409285Y-85219380D01*
X144314047Y-85171761D01*
X144266428Y-85124142D01*
X150513333Y-68836380D02*
X150180000Y-68360190D01*
X149941904Y-68836380D02*
X149941904Y-67836380D01*
X150322857Y-67836380D01*
X150418095Y-67884000D01*
X150465714Y-67931619D01*
X150513333Y-68026857D01*
X150513333Y-68169714D01*
X150465714Y-68264952D01*
X150418095Y-68312571D01*
X150322857Y-68360190D01*
X149941904Y-68360190D01*
X150846666Y-67836380D02*
X151513333Y-68836380D01*
X151513333Y-67836380D02*
X150846666Y-68836380D01*
D11*
%TO.C,J3*%
X149410000Y-82023800D02*
X144203000Y-82023800D01*
X149410000Y-82023800D02*
X144203000Y-82023800D01*
X140393000Y-67952200D02*
X136583000Y-67952200D01*
X140393000Y-82023800D02*
X136583000Y-82023800D01*
X136583000Y-82023800D02*
X136583000Y-67952200D01*
X140393000Y-67952200D02*
X136583000Y-67952200D01*
X149410000Y-82023800D02*
X149410000Y-67952200D01*
X149410000Y-82023800D02*
X149410000Y-67952200D01*
X136583000Y-82023800D02*
X136583000Y-67952200D01*
X149410000Y-67952200D02*
X144203000Y-67952200D01*
X149410000Y-67952200D02*
X144203000Y-67952200D01*
X140393000Y-82023800D02*
X136583000Y-82023800D01*
D12*
%TO.C,J2*%
X168070000Y-71954000D02*
X168070000Y-73808000D01*
X163049000Y-78527000D02*
X163074000Y-78860000D01*
X168714000Y-81465000D02*
X168206000Y-81339000D01*
X162965000Y-71675000D02*
X163016000Y-71370000D01*
X167613000Y-77872000D02*
X163049000Y-78527000D01*
X158988000Y-81974000D02*
X168841000Y-81974000D01*
X163066000Y-75840000D02*
X163016000Y-76145000D01*
X163981000Y-78431000D02*
X163981000Y-76348000D01*
X168206000Y-80704000D02*
X168968000Y-80704000D01*
X163016000Y-76145000D02*
X167613000Y-76932000D01*
X168968000Y-68639000D02*
X169095000Y-68512000D01*
X168841000Y-67877000D02*
X168841000Y-68258000D01*
X163016000Y-71370000D02*
X168070000Y-71954000D01*
X167562000Y-73402000D02*
X167562000Y-72462000D01*
X168121000Y-76424000D02*
X163066000Y-75840000D01*
X163930000Y-73961000D02*
X163930000Y-71878000D01*
X168206000Y-81339000D02*
X168206000Y-80704000D01*
X169095000Y-69528000D02*
X168206000Y-69528000D01*
X165683000Y-73630000D02*
X165683000Y-72183000D01*
X168070000Y-73808000D02*
X163023000Y-74390000D01*
X168968000Y-80704000D02*
X169095000Y-80704000D01*
X155777000Y-68257000D02*
X152585000Y-68257000D01*
X168841000Y-81974000D02*
X168841000Y-82355000D01*
X168206000Y-69528000D02*
X168206000Y-68893000D01*
X168121000Y-78279000D02*
X168121000Y-76424000D01*
X162998000Y-74057000D02*
X167562000Y-73402000D01*
X152585000Y-68257000D02*
X152585000Y-81973000D01*
X169095000Y-80704000D02*
X169095000Y-69528000D01*
X168841000Y-68258000D02*
X168714000Y-68258000D01*
X152585000Y-81973000D02*
X155777000Y-81973000D01*
X169095000Y-68512000D02*
X169095000Y-67877000D01*
X168714000Y-68893000D02*
X168968000Y-68639000D01*
X163074000Y-78860000D02*
X168121000Y-78279000D01*
X167562000Y-72462000D02*
X162965000Y-71675000D01*
X169095000Y-67877000D02*
X168841000Y-67877000D01*
X169095000Y-82355000D02*
X169095000Y-81720000D01*
X163023000Y-74390000D02*
X162998000Y-74057000D01*
X165733000Y-78101000D02*
X165733000Y-76653000D01*
X168841000Y-82355000D02*
X169095000Y-82355000D01*
X168714000Y-68257000D02*
X158988000Y-68257000D01*
X167613000Y-76932000D02*
X167613000Y-77872000D01*
X169095000Y-81720000D02*
X168714000Y-81465000D01*
X168206000Y-68893000D02*
X168714000Y-68893000D01*
D13*
%TO.C,JP1*%
X145540000Y-85335000D02*
X145540000Y-84005000D01*
X148140000Y-85335000D02*
X148140000Y-82675000D01*
X148140000Y-82675000D02*
X153280000Y-82675000D01*
X153280000Y-85335000D02*
X153280000Y-82675000D01*
X148140000Y-85335000D02*
X153280000Y-85335000D01*
X146870000Y-85335000D02*
X145540000Y-85335000D01*
%TO.C,J4*%
X147901000Y-67555000D02*
X146571000Y-67555000D01*
X146571000Y-67555000D02*
X146571000Y-66225000D01*
X149171000Y-67555000D02*
X149171000Y-64895000D01*
X154311000Y-67555000D02*
X154311000Y-64895000D01*
X149171000Y-64895000D02*
X154311000Y-64895000D01*
X149171000Y-67555000D02*
X154311000Y-67555000D01*
%TD*%
%LPC*%
D14*
%TO.C,J3*%
X145092000Y-76258000D03*
D15*
X145092000Y-73667200D03*
X145092000Y-78315400D03*
X145092000Y-71609800D03*
X147581200Y-78315400D03*
X147581200Y-71609800D03*
D16*
X142094800Y-81719000D03*
X141282000Y-74962600D03*
X142094800Y-68206200D03*
%TD*%
D17*
%TO.C,J2*%
X155383000Y-78615000D03*
X155383000Y-76115000D03*
X155383000Y-74115000D03*
X155383000Y-71615000D03*
X153883000Y-71115000D03*
X153883000Y-73115000D03*
X153883000Y-75115000D03*
X153883000Y-77115000D03*
X153883000Y-79115000D03*
D18*
X157383000Y-81685000D03*
X157383000Y-68545000D03*
%TD*%
D19*
%TO.C,JP1*%
X146870000Y-84005000D03*
D20*
X149410000Y-84005000D03*
X151950000Y-84005000D03*
%TD*%
D19*
%TO.C,J4*%
X147901000Y-66225000D03*
D20*
X150441000Y-66225000D03*
X152981000Y-66225000D03*
%TD*%
M02*
