%TF.GenerationSoftware,KiCad,Pcbnew,6.0.11-2627ca5db0~126~ubuntu22.04.1*%
%TF.CreationDate,2023-02-26T23:21:46+01:00*%
%TF.ProjectId,pmod,706d6f64-2e6b-4696-9361-645f70636258,0.7*%
%TF.SameCoordinates,Original*%
%TF.FileFunction,Legend,Top*%
%TF.FilePolarity,Positive*%
%FSLAX46Y46*%
G04 Gerber Fmt 4.6, Leading zero omitted, Abs format (unit mm)*
G04 Created by KiCad (PCBNEW 6.0.11-2627ca5db0~126~ubuntu22.04.1) date 2023-02-26 23:21:46*
%MOMM*%
%LPD*%
G01*
G04 APERTURE LIST*
G04 Aperture macros list*
%AMRoundRect*
0 Rectangle with rounded corners*
0 $1 Rounding radius*
0 $2 $3 $4 $5 $6 $7 $8 $9 X,Y pos of 4 corners*
0 Add a 4 corners polygon primitive as box body*
4,1,4,$2,$3,$4,$5,$6,$7,$8,$9,$2,$3,0*
0 Add four circle primitives for the rounded corners*
1,1,$1+$1,$2,$3*
1,1,$1+$1,$4,$5*
1,1,$1+$1,$6,$7*
1,1,$1+$1,$8,$9*
0 Add four rect primitives between the rounded corners*
20,1,$1+$1,$2,$3,$4,$5,0*
20,1,$1+$1,$4,$5,$6,$7,0*
20,1,$1+$1,$6,$7,$8,$9,0*
20,1,$1+$1,$8,$9,$2,$3,0*%
G04 Aperture macros list end*
%ADD10C,0.150000*%
%ADD11C,0.152000*%
%ADD12C,0.120000*%
%ADD13C,0.254000*%
%ADD14RoundRect,0.050000X0.850000X0.850000X-0.850000X0.850000X-0.850000X-0.850000X0.850000X-0.850000X0*%
%ADD15O,1.800000X1.800000*%
%ADD16C,1.800000*%
%ADD17C,1.400000*%
%ADD18C,2.900000*%
%ADD19RoundRect,0.050000X0.850000X-0.850000X0.850000X0.850000X-0.850000X0.850000X-0.850000X-0.850000X0*%
G04 APERTURE END LIST*
D10*
X145473095Y-78425000D02*
X145377857Y-78377380D01*
X145235000Y-78377380D01*
X145092142Y-78425000D01*
X144996904Y-78520238D01*
X144949285Y-78615476D01*
X144901666Y-78805952D01*
X144901666Y-78948809D01*
X144949285Y-79139285D01*
X144996904Y-79234523D01*
X145092142Y-79329761D01*
X145235000Y-79377380D01*
X145330238Y-79377380D01*
X145473095Y-79329761D01*
X145520714Y-79282142D01*
X145520714Y-78948809D01*
X145330238Y-78948809D01*
X145949285Y-79377380D02*
X145949285Y-78377380D01*
X146520714Y-79377380D01*
X146520714Y-78377380D01*
X146996904Y-79377380D02*
X146996904Y-78377380D01*
X147235000Y-78377380D01*
X147377857Y-78425000D01*
X147473095Y-78520238D01*
X147520714Y-78615476D01*
X147568333Y-78805952D01*
X147568333Y-78948809D01*
X147520714Y-79139285D01*
X147473095Y-79234523D01*
X147377857Y-79329761D01*
X147235000Y-79377380D01*
X146996904Y-79377380D01*
X151360000Y-81591904D02*
X151312380Y-81687142D01*
X151312380Y-81830000D01*
X151360000Y-81972857D01*
X151455238Y-82068095D01*
X151550476Y-82115714D01*
X151740952Y-82163333D01*
X151883809Y-82163333D01*
X152074285Y-82115714D01*
X152169523Y-82068095D01*
X152264761Y-81972857D01*
X152312380Y-81830000D01*
X152312380Y-81734761D01*
X152264761Y-81591904D01*
X152217142Y-81544285D01*
X151883809Y-81544285D01*
X151883809Y-81734761D01*
X152312380Y-81115714D02*
X151312380Y-81115714D01*
X152312380Y-80544285D01*
X151312380Y-80544285D01*
X152312380Y-80068095D02*
X151312380Y-80068095D01*
X151312380Y-79830000D01*
X151360000Y-79687142D01*
X151455238Y-79591904D01*
X151550476Y-79544285D01*
X151740952Y-79496666D01*
X151883809Y-79496666D01*
X152074285Y-79544285D01*
X152169523Y-79591904D01*
X152264761Y-79687142D01*
X152312380Y-79830000D01*
X152312380Y-80068095D01*
X148862380Y-82028333D02*
X149862380Y-81695000D01*
X148862380Y-81361666D01*
X149338571Y-80695000D02*
X149386190Y-80552142D01*
X149433809Y-80504523D01*
X149529047Y-80456904D01*
X149671904Y-80456904D01*
X149767142Y-80504523D01*
X149814761Y-80552142D01*
X149862380Y-80647380D01*
X149862380Y-81028333D01*
X148862380Y-81028333D01*
X148862380Y-80695000D01*
X148910000Y-80599761D01*
X148957619Y-80552142D01*
X149052857Y-80504523D01*
X149148095Y-80504523D01*
X149243333Y-80552142D01*
X149290952Y-80599761D01*
X149338571Y-80695000D01*
X149338571Y-81028333D01*
X148862380Y-80028333D02*
X149671904Y-80028333D01*
X149767142Y-79980714D01*
X149814761Y-79933095D01*
X149862380Y-79837857D01*
X149862380Y-79647380D01*
X149814761Y-79552142D01*
X149767142Y-79504523D01*
X149671904Y-79456904D01*
X148862380Y-79456904D01*
X149814761Y-79028333D02*
X149862380Y-78885476D01*
X149862380Y-78647380D01*
X149814761Y-78552142D01*
X149767142Y-78504523D01*
X149671904Y-78456904D01*
X149576666Y-78456904D01*
X149481428Y-78504523D01*
X149433809Y-78552142D01*
X149386190Y-78647380D01*
X149338571Y-78837857D01*
X149290952Y-78933095D01*
X149243333Y-78980714D01*
X149148095Y-79028333D01*
X149052857Y-79028333D01*
X148957619Y-78980714D01*
X148910000Y-78933095D01*
X148862380Y-78837857D01*
X148862380Y-78599761D01*
X148910000Y-78456904D01*
X144996904Y-80917380D02*
X145615952Y-80917380D01*
X145282619Y-81298333D01*
X145425476Y-81298333D01*
X145520714Y-81345952D01*
X145568333Y-81393571D01*
X145615952Y-81488809D01*
X145615952Y-81726904D01*
X145568333Y-81822142D01*
X145520714Y-81869761D01*
X145425476Y-81917380D01*
X145139761Y-81917380D01*
X145044523Y-81869761D01*
X144996904Y-81822142D01*
X145901666Y-80917380D02*
X146235000Y-81917380D01*
X146568333Y-80917380D01*
X146806428Y-80917380D02*
X147425476Y-80917380D01*
X147092142Y-81298333D01*
X147235000Y-81298333D01*
X147330238Y-81345952D01*
X147377857Y-81393571D01*
X147425476Y-81488809D01*
X147425476Y-81726904D01*
X147377857Y-81822142D01*
X147330238Y-81869761D01*
X147235000Y-81917380D01*
X146949285Y-81917380D01*
X146854047Y-81869761D01*
X146806428Y-81822142D01*
%TO.C,J1*%
X143361666Y-65677380D02*
X143361666Y-66391666D01*
X143314047Y-66534523D01*
X143218809Y-66629761D01*
X143075952Y-66677380D01*
X142980714Y-66677380D01*
X144361666Y-66677380D02*
X143790238Y-66677380D01*
X144075952Y-66677380D02*
X144075952Y-65677380D01*
X143980714Y-65820238D01*
X143885476Y-65915476D01*
X143790238Y-65963095D01*
D11*
%TO.C,J2*%
X153207609Y-65677380D02*
X153207609Y-66391666D01*
X153159990Y-66534523D01*
X153064752Y-66629761D01*
X152921895Y-66677380D01*
X152826657Y-66677380D01*
X153636180Y-65772619D02*
X153683800Y-65725000D01*
X153779038Y-65677380D01*
X154017133Y-65677380D01*
X154112371Y-65725000D01*
X154159990Y-65772619D01*
X154207609Y-65867857D01*
X154207609Y-65963095D01*
X154159990Y-66105952D01*
X153588561Y-66677380D01*
X154207609Y-66677380D01*
D10*
%TO.C,JP1*%
X143909380Y-84838333D02*
X144623666Y-84838333D01*
X144766523Y-84885952D01*
X144861761Y-84981190D01*
X144909380Y-85124047D01*
X144909380Y-85219285D01*
X144909380Y-84362142D02*
X143909380Y-84362142D01*
X143909380Y-83981190D01*
X143957000Y-83885952D01*
X144004619Y-83838333D01*
X144099857Y-83790714D01*
X144242714Y-83790714D01*
X144337952Y-83838333D01*
X144385571Y-83885952D01*
X144433190Y-83981190D01*
X144433190Y-84362142D01*
X144909380Y-82838333D02*
X144909380Y-83409761D01*
X144909380Y-83124047D02*
X143909380Y-83124047D01*
X144052238Y-83219285D01*
X144147476Y-83314523D01*
X144195095Y-83409761D01*
D12*
%TO.C,J1*%
X139629471Y-69175480D02*
X139232400Y-69175480D01*
X139232400Y-77685480D02*
X136572400Y-77685480D01*
X144482400Y-67525480D02*
X144482400Y-68795480D01*
X139629471Y-70955480D02*
X139232400Y-70955480D01*
X139629471Y-71715480D02*
X139232400Y-71715480D01*
X142102400Y-81875480D02*
X141715329Y-81875480D01*
X139629471Y-68415480D02*
X139232400Y-68415480D01*
X142169471Y-69175480D02*
X141715329Y-69175480D01*
X139629471Y-81875480D02*
X139232400Y-81875480D01*
X139629471Y-79335480D02*
X139232400Y-79335480D01*
X143212400Y-67525480D02*
X144482400Y-67525480D01*
X139629471Y-81115480D02*
X139232400Y-81115480D01*
X142169471Y-76035480D02*
X141715329Y-76035480D01*
X139232400Y-75145480D02*
X136572400Y-75145480D01*
X139629471Y-73495480D02*
X139232400Y-73495480D01*
X139629471Y-76035480D02*
X139232400Y-76035480D01*
X136572400Y-67465480D02*
X136572400Y-82825480D01*
X139232400Y-80225480D02*
X136572400Y-80225480D01*
X142169471Y-76795480D02*
X141715329Y-76795480D01*
X142102400Y-81115480D02*
X141715329Y-81115480D01*
X142169471Y-68415480D02*
X141715329Y-68415480D01*
X142169471Y-73495480D02*
X141715329Y-73495480D01*
X142169471Y-79335480D02*
X141715329Y-79335480D01*
X139629471Y-76795480D02*
X139232400Y-76795480D01*
X139232400Y-82825480D02*
X139232400Y-67465480D01*
X139232400Y-70065480D02*
X136572400Y-70065480D01*
X139232400Y-67465480D02*
X136572400Y-67465480D01*
X139629471Y-74255480D02*
X139232400Y-74255480D01*
X142169471Y-70955480D02*
X141715329Y-70955480D01*
X139232400Y-72605480D02*
X136572400Y-72605480D01*
X142169471Y-78575480D02*
X141715329Y-78575480D01*
X139629471Y-78575480D02*
X139232400Y-78575480D01*
X136572400Y-82825480D02*
X139232400Y-82825480D01*
X142169471Y-71715480D02*
X141715329Y-71715480D01*
X142169471Y-74255480D02*
X141715329Y-74255480D01*
D13*
%TO.C,J2*%
X168070000Y-71954000D02*
X168070000Y-73808000D01*
X163049000Y-78527000D02*
X163074000Y-78860000D01*
X168714000Y-81465000D02*
X168206000Y-81339000D01*
X162965000Y-71675000D02*
X163016000Y-71370000D01*
X167613000Y-77872000D02*
X163049000Y-78527000D01*
X158988000Y-81974000D02*
X168841000Y-81974000D01*
X163066000Y-75840000D02*
X163016000Y-76145000D01*
X163981000Y-78431000D02*
X163981000Y-76348000D01*
X168206000Y-80704000D02*
X168968000Y-80704000D01*
X163016000Y-76145000D02*
X167613000Y-76932000D01*
X168968000Y-68639000D02*
X169095000Y-68512000D01*
X168841000Y-67877000D02*
X168841000Y-68258000D01*
X163016000Y-71370000D02*
X168070000Y-71954000D01*
X167562000Y-73402000D02*
X167562000Y-72462000D01*
X168121000Y-76424000D02*
X163066000Y-75840000D01*
X163930000Y-73961000D02*
X163930000Y-71878000D01*
X168206000Y-81339000D02*
X168206000Y-80704000D01*
X169095000Y-69528000D02*
X168206000Y-69528000D01*
X165683000Y-73630000D02*
X165683000Y-72183000D01*
X168070000Y-73808000D02*
X163023000Y-74390000D01*
X168968000Y-80704000D02*
X169095000Y-80704000D01*
X155777000Y-68257000D02*
X152585000Y-68257000D01*
X168841000Y-81974000D02*
X168841000Y-82355000D01*
X168206000Y-69528000D02*
X168206000Y-68893000D01*
X168121000Y-78279000D02*
X168121000Y-76424000D01*
X162998000Y-74057000D02*
X167562000Y-73402000D01*
X152585000Y-68257000D02*
X152585000Y-81973000D01*
X169095000Y-80704000D02*
X169095000Y-69528000D01*
X168841000Y-68258000D02*
X168714000Y-68258000D01*
X152585000Y-81973000D02*
X155777000Y-81973000D01*
X169095000Y-68512000D02*
X169095000Y-67877000D01*
X168714000Y-68893000D02*
X168968000Y-68639000D01*
X163074000Y-78860000D02*
X168121000Y-78279000D01*
X167562000Y-72462000D02*
X162965000Y-71675000D01*
X169095000Y-67877000D02*
X168841000Y-67877000D01*
X169095000Y-82355000D02*
X169095000Y-81720000D01*
X163023000Y-74390000D02*
X162998000Y-74057000D01*
X165733000Y-78101000D02*
X165733000Y-76653000D01*
X168841000Y-82355000D02*
X169095000Y-82355000D01*
X168714000Y-68257000D02*
X158988000Y-68257000D01*
X167613000Y-76932000D02*
X167613000Y-77872000D01*
X169095000Y-81720000D02*
X168714000Y-81465000D01*
X168206000Y-68893000D02*
X168714000Y-68893000D01*
D12*
%TO.C,JP1*%
X145540000Y-85335000D02*
X145540000Y-84005000D01*
X148140000Y-85335000D02*
X148140000Y-82675000D01*
X148140000Y-82675000D02*
X153280000Y-82675000D01*
X153280000Y-85335000D02*
X153280000Y-82675000D01*
X148140000Y-85335000D02*
X153280000Y-85335000D01*
X146870000Y-85335000D02*
X145540000Y-85335000D01*
%TD*%
%LPC*%
D14*
%TO.C,J1*%
X143212400Y-68795480D03*
D15*
X143212400Y-71335480D03*
X143212400Y-73875480D03*
X143212400Y-76415480D03*
X143212400Y-78955480D03*
D16*
X143212400Y-81495480D03*
X140672400Y-68795480D03*
D15*
X140672400Y-71335480D03*
X140672400Y-73875480D03*
X140672400Y-76415480D03*
X140672400Y-78955480D03*
X140672400Y-81495480D03*
%TD*%
D17*
%TO.C,J2*%
X155383000Y-78615000D03*
X155383000Y-76115000D03*
X155383000Y-74115000D03*
X155383000Y-71615000D03*
X153883000Y-71115000D03*
X153883000Y-73115000D03*
X153883000Y-75115000D03*
X153883000Y-77115000D03*
X153883000Y-79115000D03*
D18*
X157383000Y-81685000D03*
X157383000Y-68545000D03*
%TD*%
D19*
%TO.C,JP1*%
X146870000Y-84005000D03*
D15*
X149410000Y-84005000D03*
X151950000Y-84005000D03*
%TD*%
M02*
