%TF.GenerationSoftware,KiCad,Pcbnew,6.0.11-2627ca5db0~126~ubuntu22.04.1*%
%TF.CreationDate,2023-02-26T23:21:46+01:00*%
%TF.ProjectId,pmod,706d6f64-2e6b-4696-9361-645f70636258,0.7*%
%TF.SameCoordinates,Original*%
%TF.FileFunction,Copper,L2,Bot*%
%TF.FilePolarity,Positive*%
%FSLAX46Y46*%
G04 Gerber Fmt 4.6, Leading zero omitted, Abs format (unit mm)*
G04 Created by KiCad (PCBNEW 6.0.11-2627ca5db0~126~ubuntu22.04.1) date 2023-02-26 23:21:46*
%MOMM*%
%LPD*%
G01*
G04 APERTURE LIST*
%TA.AperFunction,ComponentPad*%
%ADD10R,1.700000X1.700000*%
%TD*%
%TA.AperFunction,ComponentPad*%
%ADD11O,1.700000X1.700000*%
%TD*%
%TA.AperFunction,ComponentPad*%
%ADD12C,1.700000*%
%TD*%
%TA.AperFunction,ComponentPad*%
%ADD13C,1.300000*%
%TD*%
%TA.AperFunction,ComponentPad*%
%ADD14C,2.800000*%
%TD*%
%TA.AperFunction,ViaPad*%
%ADD15C,0.800000*%
%TD*%
%TA.AperFunction,Conductor*%
%ADD16C,0.250000*%
%TD*%
G04 APERTURE END LIST*
D10*
%TO.P,J1,1,Pin_1*%
%TO.N,/D0*%
X143212400Y-68795480D03*
D11*
%TO.P,J1,2,Pin_2*%
%TO.N,/D1*%
X143212400Y-71335480D03*
%TO.P,J1,3,Pin_3*%
%TO.N,/D2*%
X143212400Y-73875480D03*
%TO.P,J1,4,Pin_4*%
%TO.N,/D3*%
X143212400Y-76415480D03*
%TO.P,J1,5,Pin_5*%
%TO.N,GND*%
X143212400Y-78955480D03*
D12*
%TO.P,J1,6,Pin_6*%
%TO.N,/3V3*%
X143212400Y-81495480D03*
%TO.P,J1,7,Pin_7*%
%TO.N,/D4*%
X140672400Y-68795480D03*
D11*
%TO.P,J1,8,Pin_8*%
%TO.N,/D5*%
X140672400Y-71335480D03*
%TO.P,J1,9,Pin_9*%
%TO.N,/D6*%
X140672400Y-73875480D03*
%TO.P,J1,10,Pin_10*%
%TO.N,/D7*%
X140672400Y-76415480D03*
%TO.P,J1,11,Pin_11*%
%TO.N,GND*%
X140672400Y-78955480D03*
%TO.P,J1,12,Pin_12*%
%TO.N,/3V3*%
X140672400Y-81495480D03*
%TD*%
D13*
%TO.P,J2,1,VBUS*%
%TO.N,/VBUS*%
X155383000Y-78615000D03*
%TO.P,J2,2,D-*%
%TO.N,/D5*%
X155383000Y-76115000D03*
%TO.P,J2,3,D+*%
%TO.N,/D1*%
X155383000Y-74115000D03*
%TO.P,J2,4,GND*%
%TO.N,GND*%
X155383000Y-71615000D03*
%TO.P,J2,5,SSRX-*%
%TO.N,/D3*%
X153883000Y-71115000D03*
%TO.P,J2,6,SSRX+*%
%TO.N,/D0*%
X153883000Y-73115000D03*
%TO.P,J2,7,DRAIN*%
%TO.N,/D6*%
X153883000Y-75115000D03*
%TO.P,J2,8,SSTX-*%
%TO.N,/D2*%
X153883000Y-77115000D03*
%TO.P,J2,9,SSTX+*%
%TO.N,/D7*%
X153883000Y-79115000D03*
D14*
%TO.P,J2,10,SHIELD*%
%TO.N,GND*%
X157383000Y-81685000D03*
%TO.P,J2,11*%
%TO.N,N/C*%
X157383000Y-68545000D03*
%TD*%
D10*
%TO.P,JP1,1,Pin_1*%
%TO.N,/3V3*%
X146870000Y-84005000D03*
D11*
%TO.P,JP1,2,Pin_2*%
%TO.N,/VBUS*%
X149410000Y-84005000D03*
%TO.P,JP1,3,Pin_3*%
%TO.N,GND*%
X151950000Y-84005000D03*
%TD*%
D15*
%TO.N,/D3*%
X146743000Y-75877000D03*
%TO.N,GND*%
X150807000Y-73845000D03*
%TD*%
D16*
%TO.N,/D1*%
X156408000Y-73090000D02*
X155383000Y-74115000D01*
X149379520Y-71335480D02*
X150680000Y-70035000D01*
X143212400Y-71335480D02*
X149379520Y-71335480D01*
X150680000Y-70035000D02*
X155252569Y-70035000D01*
X156408000Y-71190431D02*
X156408000Y-73090000D01*
X155252569Y-70035000D02*
X156408000Y-71190431D01*
%TO.N,/D3*%
X151505000Y-71115000D02*
X153883000Y-71115000D01*
X146679500Y-75940500D02*
X151505000Y-71115000D01*
%TO.N,/D6*%
X143770480Y-75190480D02*
X145600000Y-77020000D01*
X141987400Y-75190480D02*
X143770480Y-75190480D01*
X140672400Y-73875480D02*
X141987400Y-75190480D01*
X148775000Y-77020000D02*
X150680000Y-75115000D01*
X145600000Y-77020000D02*
X148775000Y-77020000D01*
X150680000Y-75115000D02*
X153883000Y-75115000D01*
%TD*%
%TA.AperFunction,Conductor*%
%TO.N,GND*%
G36*
X168881577Y-64463502D02*
G01*
X168928070Y-64517158D01*
X168939455Y-64569525D01*
X168936965Y-75261048D01*
X168934543Y-85660529D01*
X168914525Y-85728645D01*
X168860859Y-85775126D01*
X168808543Y-85786500D01*
X136832500Y-85786500D01*
X136764379Y-85766498D01*
X136717886Y-85712842D01*
X136706500Y-85660500D01*
X136706500Y-84879674D01*
X145769500Y-84879674D01*
X145784034Y-84952740D01*
X145839399Y-85035601D01*
X145922260Y-85090966D01*
X145995326Y-85105500D01*
X147744674Y-85105500D01*
X147817740Y-85090966D01*
X147900601Y-85035601D01*
X147955966Y-84952740D01*
X147970500Y-84879674D01*
X147970500Y-83976069D01*
X148305164Y-83976069D01*
X148318392Y-84177894D01*
X148368178Y-84373928D01*
X148452856Y-84557607D01*
X148456189Y-84562323D01*
X148555032Y-84702183D01*
X148569588Y-84722780D01*
X148714466Y-84863913D01*
X148719270Y-84867123D01*
X148786651Y-84912146D01*
X148882637Y-84976282D01*
X148887940Y-84978560D01*
X148887943Y-84978562D01*
X149051409Y-85048792D01*
X149068470Y-85056122D01*
X149265740Y-85100760D01*
X149271509Y-85100987D01*
X149271512Y-85100987D01*
X149347683Y-85103979D01*
X149467842Y-85108700D01*
X149554132Y-85096189D01*
X149662286Y-85080508D01*
X149662291Y-85080507D01*
X149668007Y-85079678D01*
X149673479Y-85077820D01*
X149673481Y-85077820D01*
X149854067Y-85016519D01*
X149854069Y-85016518D01*
X149859531Y-85014664D01*
X150036001Y-84915837D01*
X150098433Y-84863913D01*
X150187073Y-84790191D01*
X150191505Y-84786505D01*
X150320837Y-84631001D01*
X150419664Y-84454531D01*
X150423419Y-84443468D01*
X150464254Y-84385392D01*
X150530006Y-84358611D01*
X150599799Y-84371630D01*
X150651473Y-84420315D01*
X150659476Y-84436563D01*
X150731770Y-84614603D01*
X150736413Y-84623794D01*
X150847694Y-84805388D01*
X150853777Y-84813699D01*
X150993213Y-84974667D01*
X151000580Y-84981883D01*
X151164434Y-85117916D01*
X151172881Y-85123831D01*
X151356756Y-85231279D01*
X151366042Y-85235729D01*
X151565001Y-85311703D01*
X151574899Y-85314579D01*
X151678250Y-85335606D01*
X151692299Y-85334410D01*
X151696000Y-85324065D01*
X151696000Y-85323517D01*
X152204000Y-85323517D01*
X152208064Y-85337359D01*
X152221478Y-85339393D01*
X152228184Y-85338534D01*
X152238262Y-85336392D01*
X152442255Y-85275191D01*
X152451842Y-85271433D01*
X152643095Y-85177739D01*
X152651945Y-85172464D01*
X152825328Y-85048792D01*
X152833200Y-85042139D01*
X152984052Y-84891812D01*
X152990730Y-84883965D01*
X153115003Y-84711020D01*
X153120313Y-84702183D01*
X153214670Y-84511267D01*
X153218469Y-84501672D01*
X153280377Y-84297910D01*
X153282555Y-84287837D01*
X153283986Y-84276962D01*
X153281775Y-84262778D01*
X153268617Y-84259000D01*
X152222115Y-84259000D01*
X152206876Y-84263475D01*
X152205671Y-84264865D01*
X152204000Y-84272548D01*
X152204000Y-85323517D01*
X151696000Y-85323517D01*
X151696000Y-83732885D01*
X152204000Y-83732885D01*
X152208475Y-83748124D01*
X152209865Y-83749329D01*
X152217548Y-83751000D01*
X153268344Y-83751000D01*
X153281875Y-83747027D01*
X153283180Y-83737947D01*
X153241214Y-83570875D01*
X153237894Y-83561124D01*
X153152972Y-83365814D01*
X153148105Y-83356739D01*
X153048522Y-83202806D01*
X156230361Y-83202806D01*
X156237751Y-83213108D01*
X156279630Y-83247203D01*
X156286909Y-83252318D01*
X156510756Y-83387085D01*
X156518670Y-83391118D01*
X156759286Y-83493006D01*
X156767691Y-83495883D01*
X157020257Y-83562850D01*
X157028989Y-83564516D01*
X157288474Y-83595227D01*
X157297340Y-83595645D01*
X157558561Y-83589490D01*
X157567414Y-83588653D01*
X157825162Y-83545752D01*
X157833796Y-83543679D01*
X158082930Y-83464888D01*
X158091192Y-83461617D01*
X158326731Y-83348513D01*
X158334455Y-83344107D01*
X158528268Y-83214606D01*
X158536556Y-83204688D01*
X158529299Y-83190509D01*
X157395812Y-82057022D01*
X157381868Y-82049408D01*
X157380035Y-82049539D01*
X157373420Y-82053790D01*
X156237527Y-83189683D01*
X156230361Y-83202806D01*
X153048522Y-83202806D01*
X153032426Y-83177926D01*
X153026136Y-83169757D01*
X152882806Y-83012240D01*
X152875273Y-83005215D01*
X152708139Y-82873222D01*
X152699552Y-82867517D01*
X152513117Y-82764599D01*
X152503705Y-82760369D01*
X152302959Y-82689280D01*
X152292988Y-82686646D01*
X152221837Y-82673972D01*
X152208540Y-82675432D01*
X152204000Y-82689989D01*
X152204000Y-83732885D01*
X151696000Y-83732885D01*
X151696000Y-82688102D01*
X151692082Y-82674758D01*
X151677806Y-82672771D01*
X151639324Y-82678660D01*
X151629288Y-82681051D01*
X151426868Y-82747212D01*
X151417359Y-82751209D01*
X151228463Y-82849542D01*
X151219738Y-82855036D01*
X151049433Y-82982905D01*
X151041726Y-82989748D01*
X150894590Y-83143717D01*
X150888104Y-83151727D01*
X150768098Y-83327649D01*
X150763000Y-83336623D01*
X150673338Y-83529783D01*
X150669776Y-83539465D01*
X150663684Y-83561432D01*
X150626204Y-83621730D01*
X150562074Y-83652191D01*
X150491656Y-83643147D01*
X150437307Y-83597467D01*
X150429261Y-83583486D01*
X150428555Y-83582053D01*
X150352351Y-83427527D01*
X150334079Y-83403057D01*
X150234788Y-83270091D01*
X150234787Y-83270090D01*
X150231335Y-83265467D01*
X150227099Y-83261551D01*
X150087053Y-83132094D01*
X150087051Y-83132092D01*
X150082812Y-83128174D01*
X150055374Y-83110862D01*
X149916637Y-83023325D01*
X149911757Y-83020246D01*
X149723898Y-82945298D01*
X149525526Y-82905839D01*
X149519752Y-82905763D01*
X149519748Y-82905763D01*
X149417257Y-82904422D01*
X149323286Y-82903192D01*
X149317589Y-82904171D01*
X149317588Y-82904171D01*
X149129646Y-82936465D01*
X149129645Y-82936465D01*
X149123949Y-82937444D01*
X148934193Y-83007449D01*
X148760371Y-83110862D01*
X148608305Y-83244220D01*
X148483089Y-83403057D01*
X148388914Y-83582053D01*
X148328937Y-83775213D01*
X148305164Y-83976069D01*
X147970500Y-83976069D01*
X147970500Y-83130326D01*
X147955966Y-83057260D01*
X147900601Y-82974399D01*
X147817740Y-82919034D01*
X147744674Y-82904500D01*
X145995326Y-82904500D01*
X145922260Y-82919034D01*
X145839399Y-82974399D01*
X145784034Y-83057260D01*
X145769500Y-83130326D01*
X145769500Y-84879674D01*
X136706500Y-84879674D01*
X136706500Y-79223446D01*
X139340657Y-79223446D01*
X139370965Y-79357926D01*
X139374045Y-79367755D01*
X139454170Y-79565083D01*
X139458813Y-79574274D01*
X139570094Y-79755868D01*
X139576177Y-79764179D01*
X139715613Y-79925147D01*
X139722980Y-79932363D01*
X139886834Y-80068396D01*
X139895281Y-80074311D01*
X140079156Y-80181759D01*
X140088442Y-80186209D01*
X140243202Y-80245305D01*
X140299705Y-80288292D01*
X140323998Y-80355003D01*
X140308368Y-80424258D01*
X140257777Y-80474068D01*
X140241865Y-80481227D01*
X140202006Y-80495932D01*
X140196593Y-80497929D01*
X140022771Y-80601342D01*
X139870705Y-80734700D01*
X139745489Y-80893537D01*
X139651314Y-81072533D01*
X139591337Y-81265693D01*
X139567564Y-81466549D01*
X139580792Y-81668374D01*
X139630578Y-81864408D01*
X139715256Y-82048087D01*
X139721571Y-82057022D01*
X139791756Y-82156332D01*
X139831988Y-82213260D01*
X139976866Y-82354393D01*
X140145037Y-82466762D01*
X140150340Y-82469040D01*
X140150343Y-82469042D01*
X140238691Y-82506999D01*
X140330870Y-82546602D01*
X140528140Y-82591240D01*
X140533909Y-82591467D01*
X140533912Y-82591467D01*
X140610083Y-82594459D01*
X140730242Y-82599180D01*
X140835794Y-82583876D01*
X140924686Y-82570988D01*
X140924691Y-82570987D01*
X140930407Y-82570158D01*
X140935879Y-82568300D01*
X140935881Y-82568300D01*
X141116467Y-82506999D01*
X141116469Y-82506998D01*
X141121931Y-82505144D01*
X141244417Y-82436549D01*
X141293364Y-82409138D01*
X141293365Y-82409137D01*
X141298401Y-82406317D01*
X141360833Y-82354393D01*
X141449473Y-82280671D01*
X141453905Y-82276985D01*
X141583237Y-82121481D01*
X141682064Y-81945011D01*
X141747078Y-81753487D01*
X141747907Y-81747771D01*
X141747908Y-81747766D01*
X141775567Y-81556996D01*
X141776100Y-81553322D01*
X141777615Y-81495480D01*
X141759108Y-81294071D01*
X141704207Y-81099406D01*
X141614751Y-80918007D01*
X141602800Y-80902002D01*
X141497188Y-80760571D01*
X141497187Y-80760570D01*
X141493735Y-80755947D01*
X141470750Y-80734700D01*
X141349453Y-80622574D01*
X141349451Y-80622572D01*
X141345212Y-80618654D01*
X141317774Y-80601342D01*
X141179037Y-80513805D01*
X141174157Y-80510726D01*
X141097853Y-80480284D01*
X141041994Y-80436463D01*
X141018693Y-80369399D01*
X141035349Y-80300384D01*
X141086673Y-80251330D01*
X141108335Y-80242569D01*
X141164644Y-80225675D01*
X141174242Y-80221913D01*
X141365495Y-80128219D01*
X141374345Y-80122944D01*
X141547728Y-79999272D01*
X141555600Y-79992619D01*
X141706452Y-79842292D01*
X141713130Y-79834445D01*
X141840422Y-79657299D01*
X141841547Y-79658107D01*
X141889069Y-79614356D01*
X141959007Y-79602141D01*
X142024446Y-79629677D01*
X142052270Y-79661508D01*
X142110090Y-79755863D01*
X142116177Y-79764179D01*
X142255613Y-79925147D01*
X142262980Y-79932363D01*
X142426834Y-80068396D01*
X142435281Y-80074311D01*
X142619156Y-80181759D01*
X142628442Y-80186209D01*
X142783202Y-80245305D01*
X142839705Y-80288292D01*
X142863998Y-80355003D01*
X142848368Y-80424258D01*
X142797777Y-80474068D01*
X142781865Y-80481227D01*
X142742006Y-80495932D01*
X142736593Y-80497929D01*
X142562771Y-80601342D01*
X142410705Y-80734700D01*
X142285489Y-80893537D01*
X142191314Y-81072533D01*
X142131337Y-81265693D01*
X142107564Y-81466549D01*
X142120792Y-81668374D01*
X142170578Y-81864408D01*
X142255256Y-82048087D01*
X142261571Y-82057022D01*
X142331756Y-82156332D01*
X142371988Y-82213260D01*
X142516866Y-82354393D01*
X142685037Y-82466762D01*
X142690340Y-82469040D01*
X142690343Y-82469042D01*
X142778691Y-82506999D01*
X142870870Y-82546602D01*
X143068140Y-82591240D01*
X143073909Y-82591467D01*
X143073912Y-82591467D01*
X143150083Y-82594459D01*
X143270242Y-82599180D01*
X143375794Y-82583876D01*
X143464686Y-82570988D01*
X143464691Y-82570987D01*
X143470407Y-82570158D01*
X143475879Y-82568300D01*
X143475881Y-82568300D01*
X143656467Y-82506999D01*
X143656469Y-82506998D01*
X143661931Y-82505144D01*
X143784417Y-82436549D01*
X143833364Y-82409138D01*
X143833365Y-82409137D01*
X143838401Y-82406317D01*
X143900833Y-82354393D01*
X143989473Y-82280671D01*
X143993905Y-82276985D01*
X144123237Y-82121481D01*
X144222064Y-81945011D01*
X144287078Y-81753487D01*
X144287907Y-81747771D01*
X144287908Y-81747766D01*
X144305074Y-81629367D01*
X155471245Y-81629367D01*
X155481503Y-81890459D01*
X155482478Y-81899288D01*
X155529422Y-82156332D01*
X155531631Y-82164934D01*
X155614324Y-82412796D01*
X155617728Y-82421014D01*
X155734519Y-82654750D01*
X155739043Y-82662398D01*
X155854352Y-82829235D01*
X155864673Y-82837589D01*
X155878323Y-82830467D01*
X157010978Y-81697812D01*
X157017356Y-81686132D01*
X157747408Y-81686132D01*
X157747539Y-81687965D01*
X157751790Y-81694580D01*
X158888517Y-82831307D01*
X158901917Y-82838624D01*
X158911821Y-82831637D01*
X158927686Y-82812763D01*
X158932905Y-82805580D01*
X159071171Y-82583876D01*
X159075333Y-82576017D01*
X159180988Y-82337030D01*
X159183994Y-82328680D01*
X159254921Y-82077192D01*
X159256722Y-82068499D01*
X159291672Y-81808292D01*
X159292200Y-81801899D01*
X159295773Y-81688222D01*
X159295646Y-81681779D01*
X159277106Y-81419923D01*
X159275853Y-81411119D01*
X159220858Y-81155677D01*
X159218379Y-81147144D01*
X159127941Y-80902002D01*
X159124286Y-80893907D01*
X159000206Y-80663947D01*
X158995447Y-80656449D01*
X158910759Y-80541790D01*
X158899631Y-80533348D01*
X158887038Y-80540172D01*
X157755022Y-81672188D01*
X157747408Y-81686132D01*
X157017356Y-81686132D01*
X157018592Y-81683868D01*
X157018461Y-81682035D01*
X157014210Y-81675420D01*
X155878819Y-80540029D01*
X155865978Y-80533017D01*
X155855289Y-80540813D01*
X155803663Y-80606299D01*
X155798658Y-80613663D01*
X155667420Y-80839605D01*
X155663516Y-80847575D01*
X155565420Y-81089763D01*
X155562676Y-81098207D01*
X155499683Y-81351800D01*
X155498156Y-81360551D01*
X155471524Y-81620483D01*
X155471245Y-81629367D01*
X144305074Y-81629367D01*
X144315567Y-81556996D01*
X144316100Y-81553322D01*
X144317615Y-81495480D01*
X144299108Y-81294071D01*
X144244207Y-81099406D01*
X144154751Y-80918007D01*
X144142800Y-80902002D01*
X144037188Y-80760571D01*
X144037187Y-80760570D01*
X144033735Y-80755947D01*
X144010750Y-80734700D01*
X143889453Y-80622574D01*
X143889451Y-80622572D01*
X143885212Y-80618654D01*
X143857774Y-80601342D01*
X143719037Y-80513805D01*
X143714157Y-80510726D01*
X143637853Y-80480284D01*
X143581994Y-80436463D01*
X143558693Y-80369399D01*
X143575349Y-80300384D01*
X143626673Y-80251330D01*
X143648335Y-80242569D01*
X143704644Y-80225675D01*
X143714242Y-80221913D01*
X143824929Y-80167688D01*
X156231045Y-80167688D01*
X156238025Y-80180815D01*
X157370188Y-81312978D01*
X157384132Y-81320592D01*
X157385965Y-81320461D01*
X157392580Y-81316210D01*
X158527804Y-80180986D01*
X158534658Y-80168434D01*
X158526450Y-80157363D01*
X158436762Y-80088916D01*
X158429313Y-80084023D01*
X158201353Y-79956359D01*
X158193303Y-79952571D01*
X157949617Y-79858295D01*
X157941127Y-79855683D01*
X157686578Y-79796683D01*
X157677800Y-79795293D01*
X157417478Y-79772746D01*
X157408607Y-79772606D01*
X157147696Y-79786965D01*
X157138886Y-79788079D01*
X156882607Y-79839055D01*
X156874050Y-79841396D01*
X156627496Y-79927980D01*
X156619362Y-79931500D01*
X156387477Y-80051955D01*
X156379905Y-80056594D01*
X156239447Y-80156967D01*
X156231045Y-80167688D01*
X143824929Y-80167688D01*
X143905495Y-80128219D01*
X143914345Y-80122944D01*
X144087728Y-79999272D01*
X144095600Y-79992619D01*
X144246452Y-79842292D01*
X144253130Y-79834445D01*
X144377403Y-79661500D01*
X144382713Y-79652663D01*
X144477070Y-79461747D01*
X144480869Y-79452152D01*
X144542777Y-79248390D01*
X144544955Y-79238317D01*
X144546386Y-79227442D01*
X144544175Y-79213258D01*
X144531017Y-79209480D01*
X139355625Y-79209480D01*
X139342094Y-79213453D01*
X139340657Y-79223446D01*
X136706500Y-79223446D01*
X136706500Y-78689663D01*
X139336789Y-78689663D01*
X139338312Y-78698087D01*
X139350692Y-78701480D01*
X144530744Y-78701480D01*
X144544275Y-78697507D01*
X144545580Y-78688427D01*
X144503614Y-78521355D01*
X144500294Y-78511604D01*
X144415372Y-78316294D01*
X144410505Y-78307219D01*
X144294826Y-78128406D01*
X144288536Y-78120237D01*
X144145206Y-77962720D01*
X144137673Y-77955695D01*
X143970539Y-77823702D01*
X143961952Y-77817997D01*
X143775517Y-77715079D01*
X143766105Y-77710849D01*
X143645700Y-77668211D01*
X143588164Y-77626617D01*
X143562248Y-77560519D01*
X143576182Y-77490903D01*
X143625541Y-77439872D01*
X143647255Y-77430126D01*
X143651297Y-77428754D01*
X143656470Y-77426998D01*
X143656472Y-77426997D01*
X143661931Y-77425144D01*
X143838401Y-77326317D01*
X143900833Y-77274393D01*
X143989473Y-77200671D01*
X143993905Y-77196985D01*
X144123237Y-77041481D01*
X144222064Y-76865011D01*
X144260087Y-76753001D01*
X144285220Y-76678961D01*
X144285220Y-76678959D01*
X144287078Y-76673487D01*
X144287907Y-76667771D01*
X144287908Y-76667766D01*
X144301246Y-76575771D01*
X144306144Y-76541986D01*
X144335713Y-76477442D01*
X144395485Y-76439129D01*
X144466482Y-76439213D01*
X144519935Y-76470972D01*
X145296652Y-77247689D01*
X145311377Y-77265920D01*
X145312778Y-77267460D01*
X145318428Y-77276210D01*
X145326606Y-77282657D01*
X145344465Y-77296736D01*
X145348832Y-77300617D01*
X145348898Y-77300539D01*
X145352856Y-77303893D01*
X145356538Y-77307575D01*
X145360769Y-77310598D01*
X145360772Y-77310601D01*
X145364351Y-77313158D01*
X145372052Y-77318661D01*
X145376781Y-77322212D01*
X145416600Y-77353603D01*
X145425149Y-77356605D01*
X145432519Y-77361872D01*
X145465797Y-77371824D01*
X145481070Y-77376392D01*
X145486714Y-77378226D01*
X145527065Y-77392396D01*
X145527071Y-77392397D01*
X145534548Y-77395023D01*
X145540055Y-77395500D01*
X145542762Y-77395500D01*
X145545335Y-77395611D01*
X145545494Y-77395659D01*
X145545488Y-77395803D01*
X145546108Y-77395842D01*
X145552287Y-77397690D01*
X145605556Y-77395597D01*
X145610502Y-77395500D01*
X148721504Y-77395500D01*
X148744801Y-77397979D01*
X148746886Y-77398077D01*
X148757066Y-77400269D01*
X148789984Y-77396373D01*
X148795821Y-77396029D01*
X148795813Y-77395928D01*
X148800992Y-77395500D01*
X148806193Y-77395500D01*
X148811321Y-77394646D01*
X148811327Y-77394646D01*
X148824987Y-77392372D01*
X148830863Y-77391535D01*
X148835952Y-77390933D01*
X148881210Y-77385576D01*
X148889377Y-77381654D01*
X148898313Y-77380167D01*
X148907475Y-77375223D01*
X148907479Y-77375222D01*
X148942929Y-77356094D01*
X148948220Y-77353398D01*
X148986749Y-77334897D01*
X148986750Y-77334896D01*
X148993900Y-77331463D01*
X148998131Y-77327906D01*
X149000063Y-77325974D01*
X149001937Y-77324255D01*
X149002074Y-77324181D01*
X149002174Y-77324291D01*
X149002654Y-77323868D01*
X149008329Y-77320806D01*
X149017763Y-77310601D01*
X149044540Y-77281633D01*
X149047970Y-77278067D01*
X150798632Y-75527405D01*
X150860944Y-75493379D01*
X150887727Y-75490500D01*
X152987241Y-75490500D01*
X153055362Y-75510502D01*
X153096360Y-75553500D01*
X153103741Y-75566284D01*
X153150467Y-75647216D01*
X153154885Y-75652123D01*
X153154886Y-75652124D01*
X153245717Y-75753001D01*
X153277129Y-75787888D01*
X153282468Y-75791767D01*
X153405472Y-75881134D01*
X153430270Y-75899151D01*
X153603197Y-75976144D01*
X153656233Y-75987417D01*
X153676632Y-75991753D01*
X153739105Y-76025481D01*
X153773427Y-76087631D01*
X153768699Y-76158470D01*
X153726423Y-76215508D01*
X153676632Y-76238247D01*
X153603197Y-76253856D01*
X153430270Y-76330849D01*
X153277129Y-76442112D01*
X153272716Y-76447014D01*
X153272714Y-76447015D01*
X153154886Y-76577876D01*
X153150467Y-76582784D01*
X153147164Y-76588505D01*
X153116498Y-76641621D01*
X153055821Y-76746716D01*
X152997326Y-76926744D01*
X152996636Y-76933305D01*
X152996636Y-76933307D01*
X152978899Y-77102074D01*
X152977540Y-77115000D01*
X152978230Y-77121565D01*
X152994679Y-77278067D01*
X152997326Y-77303256D01*
X153055821Y-77483284D01*
X153059124Y-77489006D01*
X153059125Y-77489007D01*
X153131179Y-77613809D01*
X153150467Y-77647216D01*
X153154885Y-77652123D01*
X153154886Y-77652124D01*
X153248908Y-77756545D01*
X153277129Y-77787888D01*
X153430270Y-77899151D01*
X153603197Y-77976144D01*
X153671718Y-77990708D01*
X153676632Y-77991753D01*
X153739105Y-78025481D01*
X153773427Y-78087631D01*
X153768699Y-78158470D01*
X153726423Y-78215508D01*
X153676632Y-78238247D01*
X153603197Y-78253856D01*
X153430270Y-78330849D01*
X153424929Y-78334729D01*
X153424928Y-78334730D01*
X153382640Y-78365454D01*
X153277129Y-78442112D01*
X153272716Y-78447014D01*
X153272714Y-78447015D01*
X153234055Y-78489950D01*
X153150467Y-78582784D01*
X153147164Y-78588505D01*
X153088761Y-78689663D01*
X153055821Y-78746716D01*
X152997326Y-78926744D01*
X152996636Y-78933305D01*
X152996636Y-78933307D01*
X152990782Y-78989007D01*
X152977540Y-79115000D01*
X152978230Y-79121565D01*
X152987888Y-79213453D01*
X152997326Y-79303256D01*
X153055821Y-79483284D01*
X153150467Y-79647216D01*
X153154885Y-79652123D01*
X153154886Y-79652124D01*
X153163336Y-79661508D01*
X153277129Y-79787888D01*
X153430270Y-79899151D01*
X153603197Y-79976144D01*
X153701212Y-79996978D01*
X153781897Y-80014128D01*
X153781901Y-80014128D01*
X153788354Y-80015500D01*
X153977646Y-80015500D01*
X153984099Y-80014128D01*
X153984103Y-80014128D01*
X154064788Y-79996978D01*
X154162803Y-79976144D01*
X154335730Y-79899151D01*
X154488871Y-79787888D01*
X154602665Y-79661508D01*
X154611114Y-79652124D01*
X154611115Y-79652123D01*
X154615533Y-79647216D01*
X154710179Y-79483284D01*
X154720737Y-79450790D01*
X154760810Y-79392184D01*
X154826206Y-79364546D01*
X154896163Y-79376652D01*
X154914629Y-79387788D01*
X154924925Y-79395268D01*
X154930270Y-79399151D01*
X155103197Y-79476144D01*
X155201212Y-79496978D01*
X155281897Y-79514128D01*
X155281901Y-79514128D01*
X155288354Y-79515500D01*
X155477646Y-79515500D01*
X155484099Y-79514128D01*
X155484103Y-79514128D01*
X155564788Y-79496978D01*
X155662803Y-79476144D01*
X155835730Y-79399151D01*
X155845320Y-79392184D01*
X155983532Y-79291767D01*
X155988871Y-79287888D01*
X156024436Y-79248390D01*
X156111114Y-79152124D01*
X156111115Y-79152123D01*
X156115533Y-79147216D01*
X156210179Y-78983284D01*
X156268674Y-78803256D01*
X156274617Y-78746716D01*
X156287770Y-78621565D01*
X156288460Y-78615000D01*
X156268674Y-78426744D01*
X156210179Y-78246716D01*
X156205290Y-78238247D01*
X156118836Y-78088505D01*
X156115533Y-78082784D01*
X156054950Y-78015500D01*
X155993286Y-77947015D01*
X155993284Y-77947014D01*
X155988871Y-77942112D01*
X155835730Y-77830849D01*
X155662803Y-77753856D01*
X155564788Y-77733022D01*
X155484103Y-77715872D01*
X155484099Y-77715872D01*
X155477646Y-77714500D01*
X155288354Y-77714500D01*
X155281901Y-77715872D01*
X155281897Y-77715872D01*
X155201212Y-77733022D01*
X155103197Y-77753856D01*
X154930270Y-77830849D01*
X154777129Y-77942112D01*
X154772716Y-77947014D01*
X154772714Y-77947015D01*
X154711050Y-78015500D01*
X154650467Y-78082784D01*
X154647164Y-78088505D01*
X154560711Y-78238247D01*
X154555821Y-78246716D01*
X154553779Y-78253001D01*
X154553778Y-78253003D01*
X154545263Y-78279210D01*
X154505190Y-78337816D01*
X154439794Y-78365454D01*
X154369837Y-78353348D01*
X154351371Y-78342212D01*
X154341075Y-78334732D01*
X154341072Y-78334730D01*
X154335730Y-78330849D01*
X154162803Y-78253856D01*
X154089368Y-78238247D01*
X154026895Y-78204519D01*
X153992573Y-78142369D01*
X153997301Y-78071530D01*
X154039577Y-78014492D01*
X154089368Y-77991753D01*
X154094282Y-77990708D01*
X154162803Y-77976144D01*
X154335730Y-77899151D01*
X154488871Y-77787888D01*
X154517093Y-77756545D01*
X154611114Y-77652124D01*
X154611115Y-77652123D01*
X154615533Y-77647216D01*
X154634821Y-77613809D01*
X154706875Y-77489007D01*
X154706876Y-77489006D01*
X154710179Y-77483284D01*
X154768674Y-77303256D01*
X154771322Y-77278067D01*
X154787770Y-77121565D01*
X154788460Y-77115000D01*
X154780510Y-77039359D01*
X154793282Y-76969521D01*
X154841784Y-76917674D01*
X154910617Y-76900280D01*
X154957065Y-76911081D01*
X155103197Y-76976144D01*
X155201212Y-76996978D01*
X155281897Y-77014128D01*
X155281901Y-77014128D01*
X155288354Y-77015500D01*
X155477646Y-77015500D01*
X155484099Y-77014128D01*
X155484103Y-77014128D01*
X155564788Y-76996978D01*
X155662803Y-76976144D01*
X155835730Y-76899151D01*
X155890241Y-76859547D01*
X155983532Y-76791767D01*
X155988871Y-76787888D01*
X155997049Y-76778806D01*
X156111114Y-76652124D01*
X156111115Y-76652123D01*
X156115533Y-76647216D01*
X156156782Y-76575771D01*
X156206875Y-76489007D01*
X156206876Y-76489006D01*
X156210179Y-76483284D01*
X156268674Y-76303256D01*
X156273584Y-76256545D01*
X156287770Y-76121565D01*
X156288460Y-76115000D01*
X156279922Y-76033765D01*
X156269364Y-75933307D01*
X156269364Y-75933305D01*
X156268674Y-75926744D01*
X156210179Y-75746716D01*
X156115533Y-75582784D01*
X156111114Y-75577876D01*
X155993286Y-75447015D01*
X155993284Y-75447014D01*
X155988871Y-75442112D01*
X155859232Y-75347924D01*
X155841072Y-75334730D01*
X155841071Y-75334729D01*
X155835730Y-75330849D01*
X155662803Y-75253856D01*
X155589368Y-75238247D01*
X155526895Y-75204519D01*
X155492573Y-75142369D01*
X155497301Y-75071530D01*
X155539577Y-75014492D01*
X155589368Y-74991753D01*
X155594282Y-74990708D01*
X155662803Y-74976144D01*
X155835730Y-74899151D01*
X155848191Y-74890098D01*
X155983532Y-74791767D01*
X155988871Y-74787888D01*
X156014183Y-74759777D01*
X156111114Y-74652124D01*
X156111115Y-74652123D01*
X156115533Y-74647216D01*
X156210179Y-74483284D01*
X156268674Y-74303256D01*
X156273584Y-74256545D01*
X156287770Y-74121565D01*
X156288460Y-74115000D01*
X156280510Y-74039359D01*
X156269364Y-73933307D01*
X156269364Y-73933305D01*
X156268674Y-73926744D01*
X156251731Y-73874599D01*
X156249703Y-73803632D01*
X156282469Y-73746568D01*
X156635689Y-73393348D01*
X156653920Y-73378623D01*
X156655460Y-73377222D01*
X156664210Y-73371572D01*
X156684736Y-73345535D01*
X156688617Y-73341168D01*
X156688539Y-73341102D01*
X156691893Y-73337144D01*
X156695575Y-73333462D01*
X156706661Y-73317948D01*
X156710217Y-73313212D01*
X156718066Y-73303256D01*
X156741603Y-73273400D01*
X156744605Y-73264851D01*
X156749872Y-73257481D01*
X156764396Y-73208917D01*
X156766231Y-73203270D01*
X156780395Y-73162936D01*
X156780395Y-73162935D01*
X156783023Y-73155452D01*
X156783500Y-73149945D01*
X156783500Y-73147238D01*
X156783611Y-73144668D01*
X156783659Y-73144506D01*
X156783804Y-73144512D01*
X156783843Y-73143892D01*
X156785691Y-73137713D01*
X156783597Y-73084419D01*
X156783500Y-73079473D01*
X156783500Y-71243928D01*
X156785979Y-71220640D01*
X156786078Y-71218542D01*
X156788269Y-71208365D01*
X156784373Y-71175447D01*
X156784029Y-71169610D01*
X156783928Y-71169618D01*
X156783500Y-71164439D01*
X156783500Y-71159238D01*
X156780372Y-71140444D01*
X156779535Y-71134568D01*
X156774800Y-71094564D01*
X156773576Y-71084221D01*
X156769654Y-71076054D01*
X156768167Y-71067118D01*
X156763223Y-71057956D01*
X156763222Y-71057952D01*
X156744094Y-71022502D01*
X156741398Y-71017211D01*
X156722897Y-70978682D01*
X156722896Y-70978681D01*
X156719463Y-70971531D01*
X156715906Y-70967300D01*
X156713974Y-70965368D01*
X156712255Y-70963494D01*
X156712181Y-70963357D01*
X156712291Y-70963257D01*
X156711868Y-70962777D01*
X156708806Y-70957102D01*
X156669632Y-70920890D01*
X156666067Y-70917461D01*
X155555917Y-69807311D01*
X155541192Y-69789080D01*
X155539791Y-69787540D01*
X155534141Y-69778790D01*
X155508104Y-69758264D01*
X155503737Y-69754383D01*
X155503671Y-69754461D01*
X155499713Y-69751107D01*
X155496031Y-69747425D01*
X155491800Y-69744402D01*
X155491797Y-69744399D01*
X155486978Y-69740956D01*
X155480517Y-69736339D01*
X155475781Y-69732783D01*
X155435969Y-69701397D01*
X155427420Y-69698395D01*
X155420050Y-69693128D01*
X155386772Y-69683176D01*
X155371499Y-69678608D01*
X155365855Y-69676774D01*
X155325504Y-69662604D01*
X155325498Y-69662603D01*
X155318021Y-69659977D01*
X155312514Y-69659500D01*
X155309807Y-69659500D01*
X155307234Y-69659389D01*
X155307075Y-69659341D01*
X155307081Y-69659197D01*
X155306461Y-69659158D01*
X155300282Y-69657310D01*
X155247014Y-69659403D01*
X155242067Y-69659500D01*
X150733496Y-69659500D01*
X150710208Y-69657021D01*
X150708110Y-69656922D01*
X150697933Y-69654731D01*
X150666037Y-69658506D01*
X150665015Y-69658627D01*
X150659179Y-69658971D01*
X150659187Y-69659072D01*
X150654008Y-69659500D01*
X150648807Y-69659500D01*
X150643677Y-69660354D01*
X150643675Y-69660354D01*
X150630008Y-69662629D01*
X150624131Y-69663466D01*
X150573790Y-69669424D01*
X150565623Y-69673346D01*
X150556687Y-69674833D01*
X150547525Y-69679777D01*
X150547521Y-69679778D01*
X150512071Y-69698906D01*
X150506780Y-69701602D01*
X150470763Y-69718897D01*
X150461100Y-69723537D01*
X150456869Y-69727094D01*
X150454937Y-69729026D01*
X150453063Y-69730745D01*
X150452926Y-69730819D01*
X150452826Y-69730709D01*
X150452346Y-69731132D01*
X150446671Y-69734194D01*
X150439602Y-69741841D01*
X150439601Y-69741842D01*
X150410460Y-69773367D01*
X150407030Y-69776933D01*
X149260888Y-70923075D01*
X149198576Y-70957101D01*
X149171793Y-70959980D01*
X144332705Y-70959980D01*
X144264584Y-70939978D01*
X144219699Y-70889709D01*
X144154751Y-70758007D01*
X144151271Y-70753346D01*
X144037188Y-70600571D01*
X144037187Y-70600570D01*
X144033735Y-70595947D01*
X144029499Y-70592031D01*
X143889453Y-70462574D01*
X143889451Y-70462572D01*
X143885212Y-70458654D01*
X143880329Y-70455573D01*
X143719037Y-70353805D01*
X143714157Y-70350726D01*
X143526298Y-70275778D01*
X143327926Y-70236319D01*
X143322152Y-70236243D01*
X143322148Y-70236243D01*
X143219657Y-70234902D01*
X143125686Y-70233672D01*
X143119989Y-70234651D01*
X143119988Y-70234651D01*
X142932046Y-70266945D01*
X142932045Y-70266945D01*
X142926349Y-70267924D01*
X142736593Y-70337929D01*
X142731632Y-70340881D01*
X142731631Y-70340881D01*
X142609773Y-70413379D01*
X142562771Y-70441342D01*
X142410705Y-70574700D01*
X142285489Y-70733537D01*
X142191314Y-70912533D01*
X142131337Y-71105693D01*
X142107564Y-71306549D01*
X142120792Y-71508374D01*
X142140955Y-71587766D01*
X142168731Y-71697134D01*
X142170578Y-71704408D01*
X142255256Y-71888087D01*
X142371988Y-72053260D01*
X142516866Y-72194393D01*
X142685037Y-72306762D01*
X142690340Y-72309040D01*
X142690343Y-72309042D01*
X142778691Y-72346999D01*
X142870870Y-72386602D01*
X143068140Y-72431240D01*
X143073909Y-72431467D01*
X143073912Y-72431467D01*
X143150083Y-72434459D01*
X143270242Y-72439180D01*
X143356532Y-72426669D01*
X143464686Y-72410988D01*
X143464691Y-72410987D01*
X143470407Y-72410158D01*
X143475879Y-72408300D01*
X143475881Y-72408300D01*
X143656467Y-72346999D01*
X143656469Y-72346998D01*
X143661931Y-72345144D01*
X143784417Y-72276549D01*
X143833364Y-72249138D01*
X143833365Y-72249137D01*
X143838401Y-72246317D01*
X143900833Y-72194393D01*
X143989473Y-72120671D01*
X143993905Y-72116985D01*
X144123237Y-71961481D01*
X144222064Y-71785011D01*
X144222255Y-71784449D01*
X144267147Y-71731635D01*
X144336272Y-71710980D01*
X149326024Y-71710980D01*
X149349321Y-71713459D01*
X149351406Y-71713557D01*
X149361586Y-71715749D01*
X149394504Y-71711853D01*
X149400341Y-71711509D01*
X149400333Y-71711408D01*
X149405512Y-71710980D01*
X149410713Y-71710980D01*
X149415841Y-71710126D01*
X149415847Y-71710126D01*
X149429507Y-71707852D01*
X149435383Y-71707015D01*
X149440472Y-71706413D01*
X149485730Y-71701056D01*
X149493897Y-71697134D01*
X149502833Y-71695647D01*
X149511995Y-71690703D01*
X149511999Y-71690702D01*
X149547449Y-71671574D01*
X149552740Y-71668878D01*
X149591269Y-71650377D01*
X149591270Y-71650376D01*
X149598420Y-71646943D01*
X149602651Y-71643386D01*
X149604583Y-71641454D01*
X149606457Y-71639735D01*
X149606594Y-71639661D01*
X149606694Y-71639771D01*
X149607174Y-71639348D01*
X149612849Y-71636286D01*
X149649061Y-71597112D01*
X149652490Y-71593547D01*
X150798632Y-70447405D01*
X150860944Y-70413379D01*
X150887727Y-70410500D01*
X153031697Y-70410500D01*
X153099818Y-70430502D01*
X153146311Y-70484158D01*
X153156415Y-70554432D01*
X153140816Y-70599500D01*
X153096360Y-70676500D01*
X153044978Y-70725493D01*
X152987241Y-70739500D01*
X151558501Y-70739500D01*
X151535187Y-70737019D01*
X151533112Y-70736921D01*
X151522934Y-70734730D01*
X151490231Y-70738601D01*
X151490008Y-70738627D01*
X151484178Y-70738971D01*
X151484186Y-70739072D01*
X151479007Y-70739500D01*
X151473807Y-70739500D01*
X151468681Y-70740353D01*
X151468672Y-70740354D01*
X151455023Y-70742626D01*
X151449147Y-70743463D01*
X151437632Y-70744826D01*
X151398791Y-70749423D01*
X151390622Y-70753346D01*
X151381687Y-70754833D01*
X151372524Y-70759777D01*
X151337079Y-70778902D01*
X151331790Y-70781597D01*
X151293241Y-70800108D01*
X151293239Y-70800109D01*
X151286101Y-70803537D01*
X151281869Y-70807094D01*
X151279927Y-70809036D01*
X151278064Y-70810745D01*
X151277917Y-70810824D01*
X151277818Y-70810716D01*
X151277346Y-70811132D01*
X151271671Y-70814194D01*
X151264602Y-70821841D01*
X151264601Y-70821842D01*
X151235460Y-70853367D01*
X151232030Y-70856933D01*
X146899060Y-75189903D01*
X146836748Y-75223929D01*
X146809306Y-75226806D01*
X146750866Y-75226500D01*
X146667684Y-75226065D01*
X146660305Y-75227837D01*
X146660301Y-75227837D01*
X146521967Y-75261048D01*
X146521963Y-75261049D01*
X146514588Y-75262820D01*
X146507843Y-75266301D01*
X146507844Y-75266301D01*
X146387988Y-75328163D01*
X146374679Y-75335032D01*
X146368957Y-75340024D01*
X146368955Y-75340025D01*
X146261759Y-75433538D01*
X146261756Y-75433541D01*
X146256034Y-75438533D01*
X146233148Y-75471097D01*
X146175234Y-75553500D01*
X146165501Y-75567348D01*
X146108309Y-75714039D01*
X146104007Y-75746716D01*
X146093432Y-75827043D01*
X146087758Y-75870138D01*
X146105035Y-76026633D01*
X146159143Y-76174490D01*
X146163380Y-76180796D01*
X146163382Y-76180799D01*
X146186706Y-76215508D01*
X146246958Y-76305172D01*
X146363410Y-76411135D01*
X146370083Y-76414758D01*
X146371539Y-76415793D01*
X146415480Y-76471558D01*
X146422297Y-76542226D01*
X146389825Y-76605362D01*
X146328375Y-76640920D01*
X146298551Y-76644500D01*
X145807727Y-76644500D01*
X145739606Y-76624498D01*
X145718632Y-76607595D01*
X144073828Y-74962791D01*
X144059103Y-74944560D01*
X144057702Y-74943020D01*
X144052052Y-74934270D01*
X144026015Y-74913744D01*
X144021648Y-74909863D01*
X144021582Y-74909941D01*
X144017624Y-74906587D01*
X144013942Y-74902905D01*
X144009711Y-74899882D01*
X144009708Y-74899879D01*
X144004889Y-74896436D01*
X143998428Y-74891819D01*
X143993691Y-74888262D01*
X143973231Y-74872132D01*
X143932119Y-74814251D01*
X143928827Y-74743330D01*
X143964399Y-74681888D01*
X143970670Y-74676310D01*
X143989468Y-74660676D01*
X143989473Y-74660671D01*
X143993905Y-74656985D01*
X144123237Y-74501481D01*
X144136948Y-74476999D01*
X144211619Y-74343662D01*
X144222064Y-74325011D01*
X144224133Y-74318918D01*
X144285220Y-74138961D01*
X144285220Y-74138959D01*
X144287078Y-74133487D01*
X144287907Y-74127771D01*
X144287908Y-74127766D01*
X144315567Y-73936996D01*
X144316100Y-73933322D01*
X144317615Y-73875480D01*
X144299108Y-73674071D01*
X144244207Y-73479406D01*
X144154751Y-73298007D01*
X144136479Y-73273537D01*
X144037188Y-73140571D01*
X144037187Y-73140570D01*
X144033735Y-73135947D01*
X144029499Y-73132031D01*
X143889453Y-73002574D01*
X143889451Y-73002572D01*
X143885212Y-72998654D01*
X143857774Y-72981342D01*
X143719037Y-72893805D01*
X143714157Y-72890726D01*
X143526298Y-72815778D01*
X143327926Y-72776319D01*
X143322152Y-72776243D01*
X143322148Y-72776243D01*
X143219657Y-72774902D01*
X143125686Y-72773672D01*
X143119989Y-72774651D01*
X143119988Y-72774651D01*
X142932046Y-72806945D01*
X142932045Y-72806945D01*
X142926349Y-72807924D01*
X142736593Y-72877929D01*
X142731632Y-72880881D01*
X142731631Y-72880881D01*
X142641568Y-72934463D01*
X142562771Y-72981342D01*
X142410705Y-73114700D01*
X142285489Y-73273537D01*
X142191314Y-73452533D01*
X142131337Y-73645693D01*
X142107564Y-73846549D01*
X142120792Y-74048374D01*
X142137713Y-74115000D01*
X142160448Y-74204519D01*
X142170578Y-74244408D01*
X142255256Y-74428087D01*
X142265168Y-74442112D01*
X142368628Y-74588505D01*
X142371988Y-74593260D01*
X142377601Y-74598728D01*
X142378080Y-74599577D01*
X142379877Y-74601682D01*
X142379464Y-74602035D01*
X142412437Y-74660588D01*
X142408300Y-74731463D01*
X142366501Y-74788851D01*
X142300311Y-74814531D01*
X142289678Y-74814980D01*
X142195127Y-74814980D01*
X142127006Y-74794978D01*
X142106032Y-74778075D01*
X141730094Y-74402137D01*
X141696068Y-74339825D01*
X141699876Y-74272541D01*
X141745219Y-74138965D01*
X141745220Y-74138960D01*
X141747078Y-74133487D01*
X141747907Y-74127771D01*
X141747908Y-74127766D01*
X141775567Y-73936996D01*
X141776100Y-73933322D01*
X141777615Y-73875480D01*
X141759108Y-73674071D01*
X141704207Y-73479406D01*
X141614751Y-73298007D01*
X141596479Y-73273537D01*
X141497188Y-73140571D01*
X141497187Y-73140570D01*
X141493735Y-73135947D01*
X141489499Y-73132031D01*
X141349453Y-73002574D01*
X141349451Y-73002572D01*
X141345212Y-72998654D01*
X141317774Y-72981342D01*
X141179037Y-72893805D01*
X141174157Y-72890726D01*
X140986298Y-72815778D01*
X140787926Y-72776319D01*
X140782152Y-72776243D01*
X140782148Y-72776243D01*
X140679657Y-72774902D01*
X140585686Y-72773672D01*
X140579989Y-72774651D01*
X140579988Y-72774651D01*
X140392046Y-72806945D01*
X140392045Y-72806945D01*
X140386349Y-72807924D01*
X140196593Y-72877929D01*
X140191632Y-72880881D01*
X140191631Y-72880881D01*
X140101568Y-72934463D01*
X140022771Y-72981342D01*
X139870705Y-73114700D01*
X139745489Y-73273537D01*
X139651314Y-73452533D01*
X139591337Y-73645693D01*
X139567564Y-73846549D01*
X139580792Y-74048374D01*
X139597713Y-74115000D01*
X139620448Y-74204519D01*
X139630578Y-74244408D01*
X139715256Y-74428087D01*
X139725168Y-74442112D01*
X139828628Y-74588505D01*
X139831988Y-74593260D01*
X139976866Y-74734393D01*
X139981670Y-74737603D01*
X139999361Y-74749424D01*
X140145037Y-74846762D01*
X140150340Y-74849040D01*
X140150343Y-74849042D01*
X140291909Y-74909863D01*
X140330870Y-74926602D01*
X140528140Y-74971240D01*
X140533909Y-74971467D01*
X140533912Y-74971467D01*
X140610083Y-74974459D01*
X140730242Y-74979180D01*
X140816532Y-74966669D01*
X140924686Y-74950988D01*
X140924691Y-74950987D01*
X140930407Y-74950158D01*
X140935880Y-74948300D01*
X140935885Y-74948299D01*
X141069461Y-74902956D01*
X141140396Y-74900000D01*
X141199057Y-74933174D01*
X141684052Y-75418169D01*
X141698777Y-75436400D01*
X141700178Y-75437940D01*
X141705828Y-75446690D01*
X141714006Y-75453137D01*
X141731865Y-75467216D01*
X141736232Y-75471097D01*
X141736298Y-75471019D01*
X141740256Y-75474373D01*
X141743938Y-75478055D01*
X141748169Y-75481078D01*
X141748172Y-75481081D01*
X141751255Y-75483284D01*
X141759452Y-75489141D01*
X141764181Y-75492692D01*
X141804000Y-75524083D01*
X141812549Y-75527085D01*
X141819919Y-75532352D01*
X141829900Y-75535337D01*
X141868483Y-75546876D01*
X141874130Y-75548711D01*
X141914464Y-75562875D01*
X141914465Y-75562875D01*
X141921948Y-75565503D01*
X141927455Y-75565980D01*
X141930162Y-75565980D01*
X141932732Y-75566091D01*
X141932894Y-75566139D01*
X141932888Y-75566284D01*
X141933508Y-75566323D01*
X141939687Y-75568171D01*
X141992981Y-75566077D01*
X141997927Y-75565980D01*
X142220872Y-75565980D01*
X142288993Y-75585982D01*
X142335486Y-75639638D01*
X142345590Y-75709912D01*
X142319824Y-75769983D01*
X142285489Y-75813537D01*
X142191314Y-75992533D01*
X142131337Y-76185693D01*
X142107564Y-76386549D01*
X142120792Y-76588374D01*
X142129966Y-76624498D01*
X142162602Y-76753001D01*
X142170578Y-76784408D01*
X142255256Y-76968087D01*
X142258589Y-76972803D01*
X142354444Y-77108435D01*
X142371988Y-77133260D01*
X142516866Y-77274393D01*
X142521670Y-77277603D01*
X142588439Y-77322217D01*
X142685037Y-77386762D01*
X142690340Y-77389040D01*
X142690343Y-77389042D01*
X142791109Y-77432334D01*
X142845802Y-77477602D01*
X142867339Y-77545253D01*
X142848882Y-77613809D01*
X142796291Y-77661503D01*
X142780516Y-77667867D01*
X142689268Y-77697692D01*
X142679759Y-77701689D01*
X142490863Y-77800022D01*
X142482138Y-77805516D01*
X142311833Y-77933385D01*
X142304126Y-77940228D01*
X142156990Y-78094197D01*
X142150504Y-78102207D01*
X142045593Y-78256001D01*
X141990682Y-78301004D01*
X141920157Y-78309175D01*
X141856410Y-78277921D01*
X141835713Y-78253437D01*
X141754827Y-78128406D01*
X141748536Y-78120237D01*
X141605206Y-77962720D01*
X141597673Y-77955695D01*
X141430539Y-77823702D01*
X141421952Y-77817997D01*
X141235517Y-77715079D01*
X141226105Y-77710849D01*
X141105700Y-77668211D01*
X141048164Y-77626617D01*
X141022248Y-77560519D01*
X141036182Y-77490903D01*
X141085541Y-77439872D01*
X141107255Y-77430126D01*
X141111297Y-77428754D01*
X141116470Y-77426998D01*
X141116472Y-77426997D01*
X141121931Y-77425144D01*
X141298401Y-77326317D01*
X141360833Y-77274393D01*
X141449473Y-77200671D01*
X141453905Y-77196985D01*
X141583237Y-77041481D01*
X141682064Y-76865011D01*
X141720087Y-76753001D01*
X141745220Y-76678961D01*
X141745220Y-76678959D01*
X141747078Y-76673487D01*
X141747907Y-76667771D01*
X141747908Y-76667766D01*
X141768431Y-76526215D01*
X141776100Y-76473322D01*
X141777615Y-76415480D01*
X141759108Y-76214071D01*
X141749725Y-76180799D01*
X141709753Y-76039072D01*
X141704207Y-76019406D01*
X141614751Y-75838007D01*
X141596479Y-75813537D01*
X141497188Y-75680571D01*
X141497187Y-75680570D01*
X141493735Y-75675947D01*
X141470241Y-75654229D01*
X141349453Y-75542574D01*
X141349451Y-75542572D01*
X141345212Y-75538654D01*
X141335224Y-75532352D01*
X141179037Y-75433805D01*
X141174157Y-75430726D01*
X140986298Y-75355778D01*
X140787926Y-75316319D01*
X140782152Y-75316243D01*
X140782148Y-75316243D01*
X140679657Y-75314902D01*
X140585686Y-75313672D01*
X140579989Y-75314651D01*
X140579988Y-75314651D01*
X140392046Y-75346945D01*
X140392045Y-75346945D01*
X140386349Y-75347924D01*
X140196593Y-75417929D01*
X140191632Y-75420881D01*
X140191631Y-75420881D01*
X140069773Y-75493379D01*
X140022771Y-75521342D01*
X139870705Y-75654700D01*
X139745489Y-75813537D01*
X139651314Y-75992533D01*
X139591337Y-76185693D01*
X139567564Y-76386549D01*
X139580792Y-76588374D01*
X139589966Y-76624498D01*
X139622602Y-76753001D01*
X139630578Y-76784408D01*
X139715256Y-76968087D01*
X139718589Y-76972803D01*
X139814444Y-77108435D01*
X139831988Y-77133260D01*
X139976866Y-77274393D01*
X139981670Y-77277603D01*
X140048439Y-77322217D01*
X140145037Y-77386762D01*
X140150340Y-77389040D01*
X140150343Y-77389042D01*
X140251109Y-77432334D01*
X140305802Y-77477602D01*
X140327339Y-77545253D01*
X140308882Y-77613809D01*
X140256291Y-77661503D01*
X140240516Y-77667867D01*
X140149268Y-77697692D01*
X140139759Y-77701689D01*
X139950863Y-77800022D01*
X139942138Y-77805516D01*
X139771833Y-77933385D01*
X139764126Y-77940228D01*
X139616990Y-78094197D01*
X139610504Y-78102207D01*
X139490498Y-78278129D01*
X139485400Y-78287103D01*
X139395738Y-78480263D01*
X139392175Y-78489950D01*
X139336789Y-78689663D01*
X136706500Y-78689663D01*
X136706500Y-71306549D01*
X139567564Y-71306549D01*
X139580792Y-71508374D01*
X139600955Y-71587766D01*
X139628731Y-71697134D01*
X139630578Y-71704408D01*
X139715256Y-71888087D01*
X139831988Y-72053260D01*
X139976866Y-72194393D01*
X140145037Y-72306762D01*
X140150340Y-72309040D01*
X140150343Y-72309042D01*
X140238691Y-72346999D01*
X140330870Y-72386602D01*
X140528140Y-72431240D01*
X140533909Y-72431467D01*
X140533912Y-72431467D01*
X140610083Y-72434459D01*
X140730242Y-72439180D01*
X140816532Y-72426669D01*
X140924686Y-72410988D01*
X140924691Y-72410987D01*
X140930407Y-72410158D01*
X140935879Y-72408300D01*
X140935881Y-72408300D01*
X141116467Y-72346999D01*
X141116469Y-72346998D01*
X141121931Y-72345144D01*
X141244417Y-72276549D01*
X141293364Y-72249138D01*
X141293365Y-72249137D01*
X141298401Y-72246317D01*
X141360833Y-72194393D01*
X141449473Y-72120671D01*
X141453905Y-72116985D01*
X141583237Y-71961481D01*
X141682064Y-71785011D01*
X141705576Y-71715749D01*
X141745220Y-71598961D01*
X141745220Y-71598959D01*
X141747078Y-71593487D01*
X141747907Y-71587771D01*
X141747908Y-71587766D01*
X141775567Y-71396996D01*
X141776100Y-71393322D01*
X141777615Y-71335480D01*
X141759108Y-71134071D01*
X141753730Y-71115000D01*
X141710969Y-70963383D01*
X141704207Y-70939406D01*
X141614751Y-70758007D01*
X141611271Y-70753346D01*
X141497188Y-70600571D01*
X141497187Y-70600570D01*
X141493735Y-70595947D01*
X141489499Y-70592031D01*
X141349453Y-70462574D01*
X141349451Y-70462572D01*
X141345212Y-70458654D01*
X141340329Y-70455573D01*
X141179037Y-70353805D01*
X141174157Y-70350726D01*
X140986298Y-70275778D01*
X140787926Y-70236319D01*
X140782152Y-70236243D01*
X140782148Y-70236243D01*
X140679657Y-70234902D01*
X140585686Y-70233672D01*
X140579989Y-70234651D01*
X140579988Y-70234651D01*
X140392046Y-70266945D01*
X140392045Y-70266945D01*
X140386349Y-70267924D01*
X140196593Y-70337929D01*
X140191632Y-70340881D01*
X140191631Y-70340881D01*
X140069773Y-70413379D01*
X140022771Y-70441342D01*
X139870705Y-70574700D01*
X139745489Y-70733537D01*
X139651314Y-70912533D01*
X139591337Y-71105693D01*
X139567564Y-71306549D01*
X136706500Y-71306549D01*
X136706500Y-68766549D01*
X139567564Y-68766549D01*
X139580792Y-68968374D01*
X139630578Y-69164408D01*
X139715256Y-69348087D01*
X139831988Y-69513260D01*
X139976866Y-69654393D01*
X139981670Y-69657603D01*
X139999361Y-69669424D01*
X140145037Y-69766762D01*
X140150340Y-69769040D01*
X140150343Y-69769042D01*
X140325563Y-69844322D01*
X140330870Y-69846602D01*
X140483774Y-69881201D01*
X140509376Y-69886994D01*
X140528140Y-69891240D01*
X140533909Y-69891467D01*
X140533912Y-69891467D01*
X140610083Y-69894459D01*
X140730242Y-69899180D01*
X140816532Y-69886669D01*
X140924686Y-69870988D01*
X140924691Y-69870987D01*
X140930407Y-69870158D01*
X140935879Y-69868300D01*
X140935881Y-69868300D01*
X141116467Y-69806999D01*
X141116469Y-69806998D01*
X141121931Y-69805144D01*
X141254846Y-69730709D01*
X141293364Y-69709138D01*
X141293365Y-69709137D01*
X141298401Y-69706317D01*
X141341882Y-69670154D01*
X142111900Y-69670154D01*
X142126434Y-69743220D01*
X142181799Y-69826081D01*
X142264660Y-69881446D01*
X142337726Y-69895980D01*
X144087074Y-69895980D01*
X144160140Y-69881446D01*
X144243001Y-69826081D01*
X144298366Y-69743220D01*
X144312900Y-69670154D01*
X144312900Y-68545000D01*
X155727396Y-68545000D01*
X155747779Y-68803994D01*
X155748933Y-68808801D01*
X155748934Y-68808807D01*
X155785859Y-68962606D01*
X155808427Y-69056610D01*
X155810320Y-69061181D01*
X155810321Y-69061183D01*
X155853079Y-69164408D01*
X155907846Y-69296628D01*
X156043588Y-69518140D01*
X156167411Y-69663118D01*
X156204307Y-69706317D01*
X156212311Y-69715689D01*
X156216067Y-69718897D01*
X156226639Y-69727926D01*
X156409860Y-69884412D01*
X156631372Y-70020154D01*
X156635942Y-70022047D01*
X156635946Y-70022049D01*
X156866817Y-70117679D01*
X156871390Y-70119573D01*
X156959724Y-70140780D01*
X157119193Y-70179066D01*
X157119199Y-70179067D01*
X157124006Y-70180221D01*
X157383000Y-70200604D01*
X157641994Y-70180221D01*
X157646801Y-70179067D01*
X157646807Y-70179066D01*
X157806276Y-70140780D01*
X157894610Y-70119573D01*
X157899183Y-70117679D01*
X158130054Y-70022049D01*
X158130058Y-70022047D01*
X158134628Y-70020154D01*
X158356140Y-69884412D01*
X158539361Y-69727926D01*
X158549933Y-69718897D01*
X158553689Y-69715689D01*
X158561694Y-69706317D01*
X158598589Y-69663118D01*
X158722412Y-69518140D01*
X158858154Y-69296628D01*
X158912922Y-69164408D01*
X158955679Y-69061183D01*
X158955680Y-69061181D01*
X158957573Y-69056610D01*
X158980141Y-68962606D01*
X159017066Y-68808807D01*
X159017067Y-68808801D01*
X159018221Y-68803994D01*
X159038604Y-68545000D01*
X159018221Y-68286006D01*
X159017067Y-68281199D01*
X159017066Y-68281193D01*
X158978780Y-68121724D01*
X158957573Y-68033390D01*
X158913502Y-67926993D01*
X158860049Y-67797946D01*
X158860047Y-67797942D01*
X158858154Y-67793372D01*
X158722412Y-67571860D01*
X158553689Y-67374311D01*
X158356140Y-67205588D01*
X158134628Y-67069846D01*
X158130058Y-67067953D01*
X158130054Y-67067951D01*
X157899183Y-66972321D01*
X157899181Y-66972320D01*
X157894610Y-66970427D01*
X157806276Y-66949220D01*
X157646807Y-66910934D01*
X157646801Y-66910933D01*
X157641994Y-66909779D01*
X157383000Y-66889396D01*
X157124006Y-66909779D01*
X157119199Y-66910933D01*
X157119193Y-66910934D01*
X156959724Y-66949220D01*
X156871390Y-66970427D01*
X156866819Y-66972320D01*
X156866817Y-66972321D01*
X156635946Y-67067951D01*
X156635942Y-67067953D01*
X156631372Y-67069846D01*
X156409860Y-67205588D01*
X156212311Y-67374311D01*
X156043588Y-67571860D01*
X155907846Y-67793372D01*
X155905953Y-67797942D01*
X155905951Y-67797946D01*
X155852498Y-67926993D01*
X155808427Y-68033390D01*
X155787220Y-68121724D01*
X155748934Y-68281193D01*
X155748933Y-68281199D01*
X155747779Y-68286006D01*
X155727396Y-68545000D01*
X144312900Y-68545000D01*
X144312900Y-67920806D01*
X144298366Y-67847740D01*
X144243001Y-67764879D01*
X144160140Y-67709514D01*
X144087074Y-67694980D01*
X142337726Y-67694980D01*
X142264660Y-67709514D01*
X142181799Y-67764879D01*
X142126434Y-67847740D01*
X142111900Y-67920806D01*
X142111900Y-69670154D01*
X141341882Y-69670154D01*
X141354119Y-69659977D01*
X141449473Y-69580671D01*
X141453905Y-69576985D01*
X141583237Y-69421481D01*
X141682064Y-69245011D01*
X141747078Y-69053487D01*
X141747907Y-69047771D01*
X141747908Y-69047766D01*
X141775567Y-68856996D01*
X141776100Y-68853322D01*
X141777615Y-68795480D01*
X141759108Y-68594071D01*
X141704207Y-68399406D01*
X141614751Y-68218007D01*
X141596479Y-68193537D01*
X141497188Y-68060571D01*
X141497187Y-68060570D01*
X141493735Y-68055947D01*
X141469333Y-68033390D01*
X141349453Y-67922574D01*
X141349451Y-67922572D01*
X141345212Y-67918654D01*
X141317774Y-67901342D01*
X141179037Y-67813805D01*
X141174157Y-67810726D01*
X140986298Y-67735778D01*
X140787926Y-67696319D01*
X140782152Y-67696243D01*
X140782148Y-67696243D01*
X140679657Y-67694902D01*
X140585686Y-67693672D01*
X140579989Y-67694651D01*
X140579988Y-67694651D01*
X140392046Y-67726945D01*
X140392045Y-67726945D01*
X140386349Y-67727924D01*
X140196593Y-67797929D01*
X140022771Y-67901342D01*
X139870705Y-68034700D01*
X139745489Y-68193537D01*
X139651314Y-68372533D01*
X139591337Y-68565693D01*
X139567564Y-68766549D01*
X136706500Y-68766549D01*
X136706500Y-64569500D01*
X136726502Y-64501379D01*
X136780158Y-64454886D01*
X136832500Y-64443500D01*
X168813456Y-64443500D01*
X168881577Y-64463502D01*
G37*
%TD.AperFunction*%
%TA.AperFunction,Conductor*%
G36*
X153055362Y-71510502D02*
G01*
X153096360Y-71553500D01*
X153150467Y-71647216D01*
X153154885Y-71652123D01*
X153154886Y-71652124D01*
X153269619Y-71779547D01*
X153277129Y-71787888D01*
X153282468Y-71791767D01*
X153421533Y-71892803D01*
X153430270Y-71899151D01*
X153603197Y-71976144D01*
X153671718Y-71990708D01*
X153676632Y-71991753D01*
X153739105Y-72025481D01*
X153773427Y-72087631D01*
X153768699Y-72158470D01*
X153726423Y-72215508D01*
X153676632Y-72238247D01*
X153603197Y-72253856D01*
X153430270Y-72330849D01*
X153424929Y-72334729D01*
X153424928Y-72334730D01*
X153408041Y-72346999D01*
X153277129Y-72442112D01*
X153150467Y-72582784D01*
X153147164Y-72588505D01*
X153094759Y-72679274D01*
X153055821Y-72746716D01*
X152997326Y-72926744D01*
X152996636Y-72933305D01*
X152996636Y-72933307D01*
X152980754Y-73084420D01*
X152977540Y-73115000D01*
X152978230Y-73121565D01*
X152994740Y-73278647D01*
X152997326Y-73303256D01*
X153055821Y-73483284D01*
X153150467Y-73647216D01*
X153154885Y-73652123D01*
X153154886Y-73652124D01*
X153169638Y-73668507D01*
X153277129Y-73787888D01*
X153282468Y-73791767D01*
X153402788Y-73879184D01*
X153430270Y-73899151D01*
X153603197Y-73976144D01*
X153671718Y-73990708D01*
X153676632Y-73991753D01*
X153739105Y-74025481D01*
X153773427Y-74087631D01*
X153768699Y-74158470D01*
X153726423Y-74215508D01*
X153676632Y-74238247D01*
X153603197Y-74253856D01*
X153430270Y-74330849D01*
X153424929Y-74334729D01*
X153424928Y-74334730D01*
X153412634Y-74343662D01*
X153277129Y-74442112D01*
X153272716Y-74447014D01*
X153272714Y-74447015D01*
X153154886Y-74577876D01*
X153150467Y-74582784D01*
X153147164Y-74588505D01*
X153096360Y-74676500D01*
X153044978Y-74725493D01*
X152987241Y-74739500D01*
X150733496Y-74739500D01*
X150710199Y-74737021D01*
X150708114Y-74736923D01*
X150697934Y-74734731D01*
X150665871Y-74738526D01*
X150665016Y-74738627D01*
X150659179Y-74738971D01*
X150659187Y-74739072D01*
X150654011Y-74739500D01*
X150648807Y-74739500D01*
X150636496Y-74741549D01*
X150630011Y-74742628D01*
X150624134Y-74743465D01*
X150573791Y-74749424D01*
X150565625Y-74753345D01*
X150556687Y-74754833D01*
X150547524Y-74759777D01*
X150512067Y-74778908D01*
X150506778Y-74781602D01*
X150468247Y-74800104D01*
X150468241Y-74800108D01*
X150461100Y-74803537D01*
X150456869Y-74807094D01*
X150454940Y-74809023D01*
X150453063Y-74810745D01*
X150452926Y-74810819D01*
X150452826Y-74810709D01*
X150452346Y-74811132D01*
X150446671Y-74814194D01*
X150439602Y-74821841D01*
X150439601Y-74821842D01*
X150410460Y-74853367D01*
X150407030Y-74856933D01*
X148656368Y-76607595D01*
X148594056Y-76641621D01*
X148567273Y-76644500D01*
X147187579Y-76644500D01*
X147119458Y-76624498D01*
X147072965Y-76570842D01*
X147062861Y-76500568D01*
X147092355Y-76435988D01*
X147105749Y-76422689D01*
X147219574Y-76325474D01*
X147219576Y-76325471D01*
X147225348Y-76320542D01*
X147317224Y-76192683D01*
X147375950Y-76046598D01*
X147383743Y-75991843D01*
X147397553Y-75894807D01*
X147397553Y-75894804D01*
X147398134Y-75890723D01*
X147398278Y-75877000D01*
X147392232Y-75827041D01*
X147403906Y-75757013D01*
X147428225Y-75722812D01*
X151623632Y-71527405D01*
X151685944Y-71493379D01*
X151712727Y-71490500D01*
X152987241Y-71490500D01*
X153055362Y-71510502D01*
G37*
%TD.AperFunction*%
%TD*%
M02*
